<ttFont>
          <CharString index="0">
            rmoveto
            -11 callsubr
            -14 callgsubr
            -4 5 hvcurveto
            -182 220 rlineto
            6 -5 -7 3 -9 hhcurveto
            -8 -10 callsubr
            -4 hvcurveto
            -151 -220 rlineto
            -3 -4 -1 -5 -68 callgsubr
            8 8 4 7 5 vhcurveto
            74 109 96 -111 rlineto
            -6 5 7 -3 7 hhcurveto
            endchar
          </CharString>
          <CharString index="1">
            688 4 callgsubr
            -1 -36 callgsubr
            vhcurveto
            -214 -17 -63 callgsubr
            17 callgsubr
            82 7 rlineto
            7 -54 15 -137 -127 vvcurveto
            -171 -53 -136 -121 -140 -9 227 111 126 14 112 6 42 vhcurveto
            74 hlineto
            14 12 12 14 14 -12 12 -14 hvcurveto
            -306 hlineto
            -15 -11 -12 -14 -14 -38 callgsubr
            hvcurveto
            58 hlineto
            -8 -45 -13 -100 -123 vvcurveto
            -167 36 -242 232 212 64 162 204 6 vhcurveto
            -1 128 -15 138 -7 57 80 6 rcurveline
            5 callgsubr
            14 vvcurveto
            return
          </CharString>
          <CharString index="2">
            rmoveto
            40 -9 45 -24 38 vhcurveto
            6 -6 -7 4 -8 hhcurveto
            -13 -13 -11 -15 -5 2 -6 4 -4 hvcurveto
            10 -14 5 -17 -17 vvcurveto
            -21 -9 -28 -27 -9 -7 12 26 -12 vhcurveto
            43 -19 -28 63 -93 hhcurveto
            -68 -48 -56 -80 -34 6 -57 27 -37 hvcurveto
            -8 6 7 -4 8 -29 callgsubr
            5 -2 4 -3 5 hvcurveto
            20 -13 -30 95 52 hhcurveto
            23 11 -29 -19 10 hvcurveto
            -50 29 34 -62 68 hhcurveto
            69 51 67 75 hvcurveto
            endchar
          </CharString>
          <CharString index="3">
            142 811 484 rmoveto
            -79 callsubr
            vhcurveto
            -1 -2 -1 -2 hhcurveto
            -6 -30 -32 -3 -32 hhcurveto
            -26 -27 2 4 -26 hvcurveto
            -2 -1 1 -1 hhcurveto
            -13 -13 -12 -14 -13 10 -11 12 -1 hvcurveto
            -4 22 22 -2 22 hhcurveto
            -23 -141 -21 -87 -25 -64 -59 92 -44 95 -33 102 rrcurveto
            11 -3 -10 7 -11 hhcurveto
            -12 -13 -8 -15 -1 hvcurveto
            -6 -75 -31 -103 -44 -98 -64 114 -25 122 -9 50 19 2 19 2 17 3 -46 callsubr
            -58 callgsubr
            -2 -1 -39 callgsubr
            -6 -47 -56 -4 -54 hhcurveto
            -34 -33 2 2 -30 hvcurveto
            -65 callsubr
            -11 13 -2 hvcurveto
            14 -1 14 -1 15 -1 7 -65 33 -199 145 -200 rrcurveto
            -7 5 8 -4 9 hhcurveto
            8 8 5 7 5 hvcurveto
            38 61 31 63 30 67 23 -47 41 -71 65 -81 rrcurveto
            -6 5 7 -4 9 hhcurveto
            9 7 5 7 5 hvcurveto
            70 113 42 79 43 278 25 1 25 3 24 5 rrcurveto
            12 2 9 -39 callsubr
            return
          </CharString>
          <CharString index="4">
            rmoveto
            0 0 1 0 vhcurveto
            -58 callgsubr
            -109 hlineto
            -14 -11 -11 -14 -1 hvcurveto
            -27 -1 -14 -116 -46 hhcurveto
            -49 -13 90 38 8 0 4 0 -49 callsubr
            -64 callsubr
            -14 -11 -11 -13 -1 vhcurveto
            -1 0 -6 -9 vvcurveto
            -89 42 -102 107 113 65 98 106 7 vhcurveto
            endchar
          </CharString>
          <CharString index="5">
            -8 3 -7 6 -5 vhcurveto
            258 -231 rlineto
            -4 5 6 -2 6 hhcurveto
            15 11 12 13 4 -1 5 -2 3 hvcurveto
            -124 232 rlineto
            8 -5 -8 5 -10 hhcurveto
            -134 hlineto
            -15 -11 -12 -13 hvcurveto
            endchar
          </CharString>
          <CharString index="6">
            637 241 rmoveto
            2 1 -56 callgsubr
            11 callgsubr
            vhcurveto
            -36 -204 rlineto
            4 -58 -88 2 -89 -5 -5 0 -4 hhcurveto
            16 609 -84 callsubr
            -13 -11 -9 -17 -2 hvcurveto
            -12 -42 callsubr
            -2 vhcurveto
            -71 callgsubr
            -11 -617 rcurveline
            -29 -2 -25 -1 -19 -2 rrcurveto
            -13 -2 -73 callgsubr
            -16 2 11 -9 13 1 0 -42 callgsubr
            5 51 99 3 100 hhcurveto
            100 100 -3 -5 53 -53 callgsubr
            11 8 13 2 hvcurveto
            return
          </CharString>
          <CharString index="7">
            121 660 500 rmoveto
            -137 -150 -37 -115 -31 -30 2 5 -25 vhcurveto
            9 332 rlineto
            1 11 12 0 15 hhcurveto
            162 142 -29 -137 hvcurveto
            81 -309 rmoveto
            13 -1 -11 10 -13 hhcurveto
            -13 -13 -10 -15 hvcurveto
            -4 1 -4 -7 vvcurveto
            -37 -15 -81 -52 -61 -3 159 40 16 1 16 1 15 vhcurveto
            88 28 61 75 95 vvcurveto
            180 -164 28 -191 9 vhcurveto
            -199 -97 -31 -2 -4 hvcurveto
            -11 -3 -7 -10 -11 vvcurveto
            -14 -38 callgsubr
            2 3 1 1 2 vhcurveto
            1 25 7 8 48 hvcurveto
            -11 -602 -24 -2 -26 -2 -24 -3 rlinecurve
            -13 -2 -9 -48 callsubr
            -13 -23 callgsubr
            1 -42 callgsubr
            12 93 114 -42 callgsubr
            14 12 9 16 hvcurveto
            7 253 rlineto
            -4 26 28 -3 29 hhcurveto
            -9 -1 -12 -12 vvcurveto
            -118 40 -128 142 -4 vhcurveto
            1 hlineto
            103 66 77 106 hvcurveto
            10 -1 6 1 vvcurveto
            return
          </CharString>
          <CharString index="8">
            rmoveto
            41 -34 -18 callsubr
            -34 -34 -41 -41 34 -34 41 41 34 34 41 vhcurveto
            213 hmoveto
            41 -33 34 -42 -41 -33 -34 -41 -41 33 -34 41 42 33 -21 callgsubr
          </CharString>
          <CharString index="9">
            -61 511 241 rmoveto
            -105 -65 -104 -114 -103 -16 128 86 -1 vhcurveto
            84 26 117 108 98 67 -110 -96 vhcurveto
            51 hmoveto
            144 -107 122 -154 -147 -114 -112 -154 -161 102 -104 159 141 120 109 156 vhcurveto
            return
          </CharString>
          <CharString index="10">
            314 -7 rmoveto
            -33 callsubr
            12 -9 10 -12 3 hvcurveto
            -23 4 -5 0 -22 3 1 628 rcurveline
            -60 callsubr
            -46 -66 callgsubr
            3 16 -4 -3 41 hvcurveto
            -596 vlineto
            -22 -2 -18 -2 -24 -4 -26 callsubr
            -10 6 callsubr
            9 -12 16 vhcurveto
            -20 callgsubr
            52 41 3 46 hhcurveto
            46 30 -2 -10 52 -1 callgsubr
            return
          </CharString>
          <CharString index="11">
            -88 544 523 rmoveto
            1 0 1 2 vvcurveto
            -70 callsubr
            -12 -2 vhcurveto
            -16 -100 rlineto
            59 -41 -67 30 -74 hhcurveto
            -165 -91 -124 -164 -153 108 -105 150 142 74 107 65 13 hvcurveto
            -69 callsubr
            -10 -9 -12 -3 vhcurveto
            -55 -14 -53 -67 -66 hhcurveto
            -90 -39 100 91 80 29 151 110 58 51 -73 -57 hvcurveto
            -14 1 11 -10 13 -41 callgsubr
            return
          </CharString>
          <CharString index="12">
            359 432 42 rmoveto
            -14 -1 -73 callgsubr
            -15 11 -10 15 -1 vhcurveto
            2 hlineto
            -72 callsubr
            1 hlineto
            -49 callgsubr
            21 155 rlineto
            -51 callsubr
            329 vlineto
            78 4 75 -1 -28 callsubr
            -168 -2 -138 hhcurveto
            -7 -8 -3 -8 -7 hvcurveto
            -186 -239 -103 -182 -68 -215 -31 -2 -31 -4 -29 -7 -13 -3 -9 -10 -1 -12 rrcurveto
            -14 -1 9 -12 15 -51 callgsubr
            hhcurveto
            9 41 40 5 40 hhcurveto
            41 40 -5 -9 42 2 callgsubr
            -1 2 hhcurveto
            12 15 11 15 2 hvcurveto
            1 12 -7 11 -11 2 -41 9 -41 5 -40 1 17 51 19 51 22 51 rrcurveto
            -8 58 48 -4 52 hhcurveto
            48 31 3 7 53 hvcurveto
            -160 vlineto
            -21 -1 -21 -1 -21 -2 rrcurveto
            50 608 rmoveto
            0 12 -2 1 vhcurveto
            -393 vlineto
            -5 -50 -39 -3 -43 hhcurveto
            -47 -36 4 6 -52 hvcurveto
            48 97 109 189 97 107 rrcurveto
            return
          </CharString>
          <CharString index="13">
            158 836 53 rmoveto
            -63 callsubr
            -15 vhcurveto
            -89 callgsubr
            -109 -16 -53 223 -128 127 -43 37 rlinecurve
            54 59 50 59 40 90 rrcurveto
            93 hlineto
            14 12 11 14 15 -12 11 -14 hvcurveto
            -219 hlineto
            -14 -12 -11 -15 -14 12 -11 14 hvcurveto
            69 hlineto
            -74 -151 -115 -91 -62 -48 -5 288 rcurveline
            28 2 28 3 29 4 rrcurveto
            -55 callgsubr
            -63 callsubr
            -15 vhcurveto
            -89 callgsubr
            -10 -68 -68 -4 -66 hhcurveto
            -40 -39 1 4 -39 hvcurveto
            -53 callsubr
            -16 -26 callgsubr
            25 -2 24 -2 25 -1 16 -601 rcurveline
            -25 -2 -26 -2 -26 -2 rrcurveto
            -13 -2 -73 callgsubr
            -13 10 -12 15 vhcurveto
            -81 callgsubr
            hhcurveto
            5 52 52 3 52 hhcurveto
            51 51 -3 -5 49 hvcurveto
            -81 callgsubr
            hhcurveto
            11 15 9 16 -10 callgsubr
            2 hvcurveto
            -24 2 -25 2 -24 2 -5 255 rcurveline
            10 7 16 11 20 16 144 -146 39 -178 1 -2 rrcurveto
            -12 2 11 -8 12 -81 callgsubr
            hhcurveto
            245 35 rlineto
            -55 callgsubr
            return
          </CharString>
          <CharString index="14">
            rmoveto
            13 -10 12 -15 -2 -3 -19 callgsubr
            -101 -27 -106 -15 -107 -1 rrcurveto
            -14 -11 -12 -14 -14 12 -12 14 1 hvcurveto
            24 24 1 1 24 hvcurveto
            3 -67 49 -225 -130 vvcurveto
            -107 -53 -76 -112 -83 -73 67 85 38 14 37 29 32 vhcurveto
            5 5 2 6 7 vvcurveto
            -69 callgsubr
            -15 -7 22 callgsubr
            -38 -42 -19 -50 -49 vvcurveto
            -127 120 -92 121 157 139 126 157 110 -45 301 0 vhcurveto
            28 6 28 6 28 8 rrcurveto
            11 3 7 10 12 vvcurveto
            return
          </CharString>
          <CharString index="15">
            rmoveto
            2 1 3 2 vvcurveto
            11 -11 14 -15 -8 -7 -3 -6 -5 vhcurveto
            -10 -8 -27 -27 -26 hhcurveto
            -35 -24 46 33 return
          </CharString>
          <CharString index="16">
            rmoveto
            -107 callgsubr
            return
          </CharString>
          <CharString index="17">
            41 -33 33 -42 -41 -34 -33 -41 -42 34 -33 41 42 33 33 42 vhcurveto
            return
          </CharString>
          <CharString index="18">
            93 654 347 rmoveto
            -186 -155 -135 -189 5 vhcurveto
            261 vlineto
            36 2 33 5 31 7 rrcurveto
            12 3 8 10 12 vvcurveto
            -58 callgsubr
            -2 -2 -1 -2 hhcurveto
            -27 -6 -30 -4 -32 -3 rrcurveto
            317 vlineto
            196 12 148 -118 -207 vvcurveto
            51 hmoveto
            242 -171 122 -229 -139 -106 -36 -2 -6 vhcurveto
            -11 -3 -11 -17 6 -12 rrcurveto
            -11 4 10 -7 11 hhcurveto
            2 3 1 1 3 hvcurveto
            1 25 9 8 41 hvcurveto
            -295 vlineto
            4 -42 -28 5 -1 -1 -2 1 -1 hhcurveto
            -10 -16 -9 -17 -12 9 -11 12 -2 hvcurveto
            1 31 -6 -5 48 hvcurveto
            -251 vlineto
            8 -36 -20 7 -1 hhcurveto
            1 -3 0 callsubr
            -12 -13 -10 -16 -10 6 -10 10 -4 hvcurveto
            -1 5 83 -31 128 hhcurveto
            228 198 126 242 hvcurveto
            endchar
          </CharString>
          <CharString index="19">
            136 199 -84 rmoveto
            10 13 6 11 hvcurveto
            7 19 11 24 14 27 rrcurveto
            -21 44 49 -12 52 hhcurveto
            192 162 173 204 113 -43 112 -84 72 hvcurveto
            38 58 rlineto
            1 4 8 5 vvcurveto
            -24 callgsubr
            -16 -9 -7 -3 -8 -4 vhcurveto
            -10 -14 -13 -19 -14 -23 rrcurveto
            31 -51 -62 18 -73 hhcurveto
            -194 -159 -169 -208 -134 66 -118 99 -67 hvcurveto
            -16 -32 -13 -27 -7 -20 rrcurveto
            -1 -3 -1 -3 -3 vvcurveto
            -14 14 -10 12 vhcurveto
            503 431 rmoveto
            -145 -117 -174 -139 -65 -48 23 38 -35 vhcurveto
            85 158 129 215 88 140 rrcurveto
            61 -57 41 -93 -105 vvcurveto
            -484 8 rmoveto
            145 74 161 171 33 33 -10 -17 30 vhcurveto
            -82 -131 -124 -210 -87 -160 rrcurveto
            -35 62 -13 81 79 vvcurveto
            return
          </CharString>
          <CharString index="20">
            -60 -28 -98 -75 -81 -8 94 68 61 19 89 80 67 26 -98 -56 vhcurveto
            51 hmoveto
            105 -60 109 -121 -112 -79 -88 -126 -125 79 -88 112 116 65 101 112 vhcurveto
            return
          </CharString>
          <CharString index="21">
            -61 153 -64 rmoveto
            10 13 6 11 hvcurveto
            4 14 6 14 6 15 rrcurveto
            -13 32 37 -7 40 hhcurveto
            141 120 109 156 92 -44 84 -73 48 hvcurveto
            29 43 rlineto
            1 4 8 5 vvcurveto
            -24 callgsubr
            -16 -9 -7 -3 -8 -4 vhcurveto
            -10 -14 -11 -16 -11 -19 rrcurveto
            12 -30 -33 7 -36 hhcurveto
            -147 -114 -112 -154 -100 39 -78 68 -45 hvcurveto
            -8 -18 -6 -16 -4 -15 rrcurveto
            -1 -3 -1 -3 -3 vvcurveto
            -14 14 -10 12 vhcurveto
            358 305 rmoveto
            -105 -65 -104 -114 -47 -29 27 38 -18 vhcurveto
            52 107 69 122 60 98 rrcurveto
            57 -37 35 -77 -69 vvcurveto
            -299 5 rmoveto
            84 26 117 108 9 9 -1 -2 8 vhcurveto
            -49 -80 -58 -102 -48 -94 rrcurveto
            -4 27 -1 27 24 vvcurveto
            return
          </CharString>
          <CharString index="22">
            rmoveto
            41 -34 -18 callsubr
            -34 -34 -41 -41 34 -34 41 41 34 -21 callgsubr
          </CharString>
          <CharString index="23">
            -45 callgsubr
            -59 callgsubr
            -72 callgsubr
            return
          </CharString>
          <CharString index="24">
            13 12 9 14 1 hvcurveto
            14 -8 11 -15 3 vhcurveto
            return
          </CharString>
          <CharString index="25">
            -63 hhcurveto
            -60 -62 6 11 -84 hvcurveto
            -78 callgsubr
            -10 71 70 -5 70 hhcurveto
            71 return
          </CharString>
          <CharString index="26">
            -56 callsubr
            -15 return
          </CharString>
          <CharString index="27">
            -1 -1 1 -1 hhcurveto
            -15 -11 -12 -14 -13 9 return
          </CharString>
          <CharString index="28">
            13 -12 13 -14 return
          </CharString>
          <CharString index="29">
            -19 callsubr
            -29 callsubr
            -5 -25 -31 -2 -31 return
          </CharString>
          <CharString index="30">
            rmoveto
            -90 callsubr
            return
          </CharString>
          <CharString index="31">
            396 444 rmoveto
            90 -68 46 -63 20 vhcurveto
            76 54 rlineto
            7 5 4 8 8 vvcurveto
            -63 callsubr
            -15 vhcurveto
            -241 hlineto
            -23 callsubr
            -14 12 -11 14 hvcurveto
            161 hlineto
            -128 -91 rlineto
            -6 -5 -4 -8 -8 vvcurveto
            -13 10 -13 15 vhcurveto
            1 0 -42 callgsubr
            0 2 0 4 55 74 -19 -69 -56 -44 -34 -57 -36 -42 21 43 7 1 7 2 7 vhcurveto
            17 callsubr
            -24 callgsubr
            -16 -11 -11 -8 -12 -3 vhcurveto
            -2 -12 -1 -10 -9 vvcurveto
            -78 78 -44 74 101 103 52 115 vhcurveto
            return
          </CharString>
          <CharString index="32">
            93 655 347 rmoveto
            -187 -157 -135 -188 6 vhcurveto
            629 vlineto
            196 12 149 -118 -207 vvcurveto
            51 hmoveto
            243 -172 121 -229 -138 -107 -36 -2 -5 vhcurveto
            -11 -3 -6 -10 -11 vvcurveto
            -13 10 -13 15 3 3 1 1 3 vhcurveto
            0 25 9 42 8 vhcurveto
            -598 vlineto
            -36 8 -21 7 0 vvcurveto
            1 -3 0 callsubr
            -13 -13 -11 -15 -10 7 -10 10 -4 hvcurveto
            -1 4 84 -31 127 hhcurveto
            228 199 126 242 hvcurveto
            return
          </CharString>
          <CharString index="33">
            0 -1 hhcurveto
            return
          </CharString>
          <CharString index="34">
            366 rmoveto
            -56 callsubr
            -14 vhcurveto
            -1 -40 callsubr
            -42 -6 -40 -4 -38 -2 rrcurveto
            179 vlineto
            -63 callsubr
            -15 vhcurveto
            -117 hlineto
            -23 callsubr
            hvcurveto
            -179 vlineto
            -38 2 -40 4 -42 6 rrcurveto
            -1 -1 1 -1 hhcurveto
            -13 -11 -10 -12 -2 hvcurveto
            -14 6 -13 16 -2 vhcurveto
            45 -7 42 -4 40 -2 rrcurveto
            -171 vlineto
            -14 12 -12 14 vhcurveto
            117 hlineto
            15 11 12 14 hvcurveto
            171 vlineto
            41 2 42 4 44 7 -46 callsubr
            return
          </CharString>
          <CharString index="35">
            6 79 82 3 84 hhcurveto
            84 85 -3 -6 87 hvcurveto
            return
          </CharString>
          <CharString index="36">
            rmoveto
            -105 callgsubr
            180 hmoveto
            -48 callgsubr
          </CharString>
          <CharString index="37">
            11 -10 14 -16 -12 -11 -9 return
          </CharString>
          <CharString index="38">
            -50 callgsubr
            -56 callgsubr
            return
          </CharString>
          <CharString index="39">
            1 1 0 return
          </CharString>
          <CharString index="40">
            1 -18 callgsubr
            hvcurveto
            return
          </CharString>
          <CharString index="41">
            -26 2 -26 2 -25 2 return
          </CharString>
          <CharString index="42">
            -53 callsubr
            -15 -13 10 return
          </CharString>
          <CharString index="43">
            -63 callsubr
            -14 return
          </CharString>
          <CharString index="44">
            14 -11 12 return
          </CharString>
          <CharString index="45">
            13 1 9 11 13 vvcurveto
            return
          </CharString>
          <CharString index="46">
            -8 -46 callgsubr
            -13 return
          </CharString>
          <CharString index="47">
            -78 callsubr
            -62 return
          </CharString>
          <CharString index="48">
            -25 -31 -2 -31 -62 return
          </CharString>
          <CharString index="49">
            -54 callgsubr
            2 return
          </CharString>
          <CharString index="50">
            vlineto
            42 1 42 3 42 -35 callsubr
            return
          </CharString>
          <CharString index="51">
            13 -11 13 return
          </CharString>
          <CharString index="52">
            7 2 callsubr
            -8 hhcurveto
            return
          </CharString>
          <CharString index="53">
            -2 -62 callgsubr
            return
          </CharString>
          <CharString index="54">
            -1 -36 callgsubr
            hvcurveto
            -12 -14 -10 return
          </CharString>
          <CharString index="55">
            -97 callgsubr
            2 1 10 16 vvcurveto
            142 -67 88 -154 6 vhcurveto
            return
          </CharString>
          <CharString index="56">
            4 vlineto
            -70 callsubr
            -13 -2 vhcurveto
            -18 -131 rlineto
            5 -79 -79 2 -77 hhcurveto
            -14 222 hlineto
            31 1 83 4 60 11 rrcurveto
            12 3 9 10 13 vvcurveto
            -34 callsubr
            -5 hlineto
            -54 -10 -78 -5 -32 -1 rrcurveto
            return
          </CharString>
          <CharString index="57">
            3 5 2 5 6 -80 callgsubr
            -7 -10 callsubr
            -5 vhcurveto
            -44 -57 -87 -106 -82 -62 rrcurveto
            -6 -4 -4 return
          </CharString>
          <CharString index="58">
            hvcurveto
            -18 callgsubr
            1 vvcurveto
            return
          </CharString>
          <CharString index="59">
            -11 -13 vvcurveto
            return
          </CharString>
          <CharString index="60">
            13 -9 callsubr
            return
          </CharString>
          <CharString index="61">
            rrcurveto
            -62 callsubr
            return
          </CharString>
          <CharString index="62">
            -24 callgsubr
            -15 return
          </CharString>
          <CharString index="63">
            -81 callsubr
            vhcurveto
            return
          </CharString>
          <CharString index="64">
            -17 callsubr
            13 return
          </CharString>
          <CharString index="65">
            9 -11 13 return
          </CharString>
          <CharString index="66">
            -5 -3 callgsubr
            return
          </CharString>
          <CharString index="67">
            -2 -39 callgsubr
            return
          </CharString>
          <CharString index="68">
            11 12 vvcurveto
            return
          </CharString>
          <CharString index="69">
            hvcurveto
            -1 0 -74 callsubr
            -13 -11 return
          </CharString>
          <CharString index="70">
            25 26 -1 -3 26 hvcurveto
            3 hlineto
            12 13 -6 callsubr
            12 -25 callgsubr
            3 -23 -24 1 -23 hhcurveto
            8 404 22 3 23 3 23 5 rlinecurve
            13 2 15 callsubr
            return
          </CharString>
          <CharString index="71">
            -2 -70 hhcurveto
            -116 -133 5 9 -68 hvcurveto
            return
          </CharString>
          <CharString index="72">
            3 rrcurveto
            13 1 10 12 13 vvcurveto
            return
          </CharString>
          <CharString index="73">
            13 -12 12 -14 vhcurveto
            return
          </CharString>
          <CharString index="74">
            13 13 11 15 return
          </CharString>
          <CharString index="75">
            -61 callgsubr
            -11 -79 return
          </CharString>
          <CharString index="76">
            -38 callgsubr
            vhcurveto
            return
          </CharString>
          <CharString index="77">
            -59 callsubr
            -61 8 -1 -89 callgsubr
            return
          </CharString>
          <CharString index="78">
            -22 callgsubr
            vhcurveto
            return
          </CharString>
          <CharString index="79">
            75 10 18 -139 rcurveline
            -13 2 11 -9 12 hhcurveto
            13 13 10 15 hvcurveto
            3 vlineto
            -21 165 rlineto
            12 -2 -10 10 -13 hhcurveto
            -4 hlineto
            -18 -135 return
          </CharString>
          <CharString index="80">
            -53 callgsubr
            13 10 16 return
          </CharString>
          <CharString index="81">
            -7 callgsubr
            -8 return
          </CharString>
          <CharString index="82">
            2 1 1 return
          </CharString>
          <CharString index="83">
            rrcurveto
            -13 -67 callgsubr
            -23 callgsubr
            2 -42 callgsubr
            return
          </CharString>
          <CharString index="84">
            -14 -9 callgsubr
            return
          </CharString>
          <CharString index="85">
            271 rmoveto
            -113 -45 -116 -104 -84 -69 81 114 148 106 46 104 26 25 -4 -7 23 vhcurveto
            11 -49 7 -36 -64 vvcurveto
            return
          </CharString>
          <CharString index="86">
            vlineto
            -22 -3 -23 -3 -23 -5 rrcurveto
            -12 -75 callgsubr
            return
          </CharString>
          <CharString index="87">
            2 -11 callgsubr
            return
          </CharString>
          <CharString index="88">
            -81 callsubr
            -2 return
          </CharString>
          <CharString index="89">
            34 -41 -41 return
          </CharString>
          <CharString index="90">
            1 10 11 return
          </CharString>
          <CharString index="91">
            -194 -159 -143 -177 -176 159 -143 194 168 186 125 194 vhcurveto
            endchar
          </CharString>
          <CharString index="92">
            -10 -40 callgsubr
            return
          </CharString>
          <CharString index="93">
            -3 -40 -63 -36 callsubr
            return
          </CharString>
          <CharString index="94">
            12 -14 vhcurveto
            -2 -2 -4 callsubr
            return
          </CharString>
          <CharString index="95">
            1 12 -10 15 hhcurveto
            13 return
          </CharString>
          <CharString index="96">
            12 14 11 15 return
          </CharString>
          <CharString index="97">
            -8 -4 -7 return
          </CharString>
          <CharString index="98">
            13 12 14 return
          </CharString>
          <CharString index="99">
            0 0 0 return
          </CharString>
          <CharString index="100">
            0 1 1 return
          </CharString>
          <CharString index="101">
            10 16 12 -9 return
          </CharString>
          <CharString index="102">
            14 11 12 14 return
          </CharString>
          <CharString index="103">
            0 -2 hhcurveto
            return
          </CharString>
          <CharString index="104">
            rmoveto
            -121 -113 -141 -143 -158 -70 116 153 144 93 107 152 return
          </CharString>
          <CharString index="105">
            hvcurveto
            -1 0 -74 callsubr
            -12 return
          </CharString>
          <CharString index="106">
            11 -12 14 vhcurveto
            return
          </CharString>
          <CharString index="107">
            -3 1 -3 hhcurveto
            return
          </CharString>
          <CharString index="108">
            vlineto
            -12 12 -14 14 4 4 1 3 4 vhcurveto
            118 64 rlineto
            8 4 5 9 9 vvcurveto
            return
          </CharString>
          <CharString index="109">
            -5 -8 4 return
          </CharString>
          <CharString index="110">
            2 0 2 2 vvcurveto
            return
          </CharString>
          <CharString index="111">
            -50 callgsubr
            2 hhcurveto
            return
          </CharString>
          <CharString index="112">
            -1 -2 vhcurveto
            return
          </CharString>
          <CharString index="113">
            -12 vvcurveto
            -14 return
          </CharString>
          <CharString index="114">
            -12 -2 -9 -48 callsubr
            -13 -1 callsubr
            2 1 -42 callgsubr
            7 45 return
          </CharString>
          <CharString index="115">
            19 callgsubr
            endchar
          </CharString>
          <CharString index="116">
            14 -11 11 -15 1 vhcurveto
            return
          </CharString>
          <CharString index="117">
            -13 12 -13 14 return
          </CharString>
          <CharString index="118">
            2 1 2 hhcurveto
            return
          </CharString>
          <CharString index="119">
            -11 -15 -9 -16 -13 -79 callgsubr
            3 -60 callgsubr
            return
          </CharString>
          <CharString index="120">
            10 71 hvcurveto
            -62 callsubr
            return
          </CharString>
          <CharString index="121">
            14 vhcurveto
            1 0 -42 callgsubr
            return
          </CharString>
          <CharString index="122">
            8 -39 callsubr
            return
          </CharString>
          <CharString index="123">
            20 callsubr
            3 hlineto
            return
          </CharString>
          <CharString index="124">
            2 0 2 1 vvcurveto
            return
          </CharString>
          <CharString index="125">
            -1 0 -74 callsubr
            -4 return
          </CharString>
          <CharString index="126">
            11 -13 15 11 10 7 return
          </CharString>
          <CharString index="127">
            -13 -1 -73 callgsubr
            10 callsubr
            vhcurveto
            return
          </CharString>
          <CharString index="128">
            hhcurveto
            -47 callsubr
            return
          </CharString>
          <CharString index="129">
            61 64 -48 -51 32 return
          </CharString>
          <CharString index="130">
            -15 2 -16 2 -15 1 rrcurveto
            230 vlineto
            return
          </CharString>
          <CharString index="131">
            0 -36 callgsubr
            return
          </CharString>
        <CharString name=".notdef">
          -362 endchar
        </CharString>
        <CharString name="A">
          489 257 rmoveto
          -6 -49 -46 -4 -47 hhcurveto
          -47 -48 4 6 -52 hvcurveto
          37 97 48 98 60 102 33 -48 63 -102 48 -147 rrcurveto
          333 -268 rmoveto
          -64 callgsubr
          -33 5 -33 4 -33 3 -63 276 -97 219 -137 174 rrcurveto
          6 -4 -8 3 -8 hhcurveto
          -7 -8 -3 -8 -6 hvcurveto
          -161 -239 -96 -212 -45 -215 -31 -2 -30 -4 -29 -7 -26 callsubr
          -10 6 callsubr
          -31 callsubr
          -51 callgsubr
          hhcurveto
          9 40 39 5 40 hhcurveto
          41 41 -5 -9 43 2 callgsubr
          -1 2 hhcurveto
          -11 callsubr
          12 -8 11 -12 2 hvcurveto
          -42 9 -41 5 -40 1 11 51 14 51 17 51 rrcurveto
          -8 59 54 -4 52 hhcurveto
          52 51 4 8 55 hvcurveto
          27 -85 13 -47 6 -25 -28 -3 -27 -3 -26 -5 rrcurveto
          -13 -54 callsubr
          -13 14 1 2 -7 callsubr
          vhcurveto
          9 54 56 4 56 hhcurveto
          57 58 -4 -9 59 hvcurveto
          -1 1 2 -42 callgsubr
          endchar
        </CharString>
        <CharString name="AE">
          -95 callsubr
          endchar
        </CharString>
        <CharString name="AEacute">
          -95 callsubr
          401 338 -91 callsubr
          endchar
        </CharString>
        <CharString name="Aacute">
          489 257 rmoveto
          -6 -49 -46 -4 -47 hhcurveto
          -47 -48 4 6 -52 hvcurveto
          37 97 48 98 60 102 33 -48 63 -102 48 -147 rrcurveto
          333 -268 rmoveto
          -64 callgsubr
          -33 5 -33 4 -33 3 -63 276 -97 219 -137 174 rrcurveto
          6 -4 -8 3 -8 hhcurveto
          -7 -8 -3 -8 -6 hvcurveto
          -161 -239 -96 -212 -45 -215 -31 -2 -30 -4 -29 -7 -26 callsubr
          -10 6 callsubr
          -31 callsubr
          -51 callgsubr
          hhcurveto
          9 40 39 5 40 hhcurveto
          41 41 -5 -9 43 2 callgsubr
          -1 2 hhcurveto
          -11 callsubr
          12 -8 11 -12 2 hvcurveto
          -42 9 -41 5 -40 1 11 51 14 51 17 51 rrcurveto
          -8 59 54 -4 52 hhcurveto
          52 51 4 8 55 hvcurveto
          27 -85 13 -47 6 -25 -28 -3 -27 -3 -26 -5 rrcurveto
          -13 -54 callsubr
          -13 14 1 2 -7 callsubr
          vhcurveto
          9 54 56 4 56 hhcurveto
          57 58 -4 -9 59 hvcurveto
          -1 1 2 -42 callgsubr
          -107 1023 -91 callsubr
          endchar
        </CharString>
        <CharString name="Abreve">
          489 257 rmoveto
          -6 -49 -46 -4 -47 hhcurveto
          -47 -48 4 6 -52 hvcurveto
          37 97 48 98 60 102 33 -48 63 -102 48 -147 rrcurveto
          333 -268 rmoveto
          -64 callgsubr
          -33 5 -33 4 -33 3 -63 276 -97 219 -137 174 rrcurveto
          6 -4 -8 3 -8 hhcurveto
          -7 -8 -3 -8 -6 hvcurveto
          -161 -239 -96 -212 -45 -215 -31 -2 -30 -4 -29 -7 -26 callsubr
          -10 6 callsubr
          -31 callsubr
          -51 callgsubr
          hhcurveto
          9 40 39 5 40 hhcurveto
          41 41 -5 -9 43 2 callgsubr
          -1 2 hhcurveto
          -11 callsubr
          12 -8 11 -12 2 hvcurveto
          -42 9 -41 5 -40 1 11 51 14 51 17 51 rrcurveto
          -8 59 54 -4 52 hhcurveto
          52 51 4 8 55 hvcurveto
          27 -85 13 -47 6 -25 -28 -3 -27 -3 -26 -5 rrcurveto
          -13 -54 callsubr
          -13 14 1 2 -7 callsubr
          vhcurveto
          9 54 56 4 56 hhcurveto
          57 58 -4 -9 59 hvcurveto
          -1 1 2 -42 callgsubr
          -245 974 -103 callsubr
        </CharString>
        <CharString name="Acircumflex">
          489 257 rmoveto
          -6 -49 -46 -4 -47 hhcurveto
          -47 -48 4 6 -52 hvcurveto
          37 97 48 98 60 102 33 -48 63 -102 48 -147 rrcurveto
          333 -268 rmoveto
          -64 callgsubr
          -33 5 -33 4 -33 3 -63 276 -97 219 -137 174 rrcurveto
          6 -4 -8 3 -8 hhcurveto
          -7 -8 -3 -8 -6 hvcurveto
          -161 -239 -96 -212 -45 -215 -31 -2 -30 -4 -29 -7 -26 callsubr
          -10 6 callsubr
          -31 callsubr
          -51 callgsubr
          hhcurveto
          9 40 39 5 40 hhcurveto
          41 41 -5 -9 43 2 callgsubr
          -1 2 hhcurveto
          -11 callsubr
          12 -8 11 -12 2 hvcurveto
          -42 9 -41 5 -40 1 11 51 14 51 17 51 rrcurveto
          -8 59 54 -4 52 hhcurveto
          52 51 4 8 55 hvcurveto
          27 -85 13 -47 6 -25 -28 -3 -27 -3 -26 -5 rrcurveto
          -13 -54 callsubr
          -13 14 1 2 -7 callsubr
          vhcurveto
          9 54 56 4 56 hhcurveto
          57 58 -4 -9 59 hvcurveto
          -1 1 2 -42 callgsubr
          -233 748 -107 callsubr
        </CharString>
        <CharString name="Adieresis">
          160 489 257 rmoveto
          -6 -49 -46 -4 -47 hhcurveto
          -47 -48 4 6 -52 hvcurveto
          37 97 48 98 60 102 33 -48 63 -102 48 -147 rrcurveto
          333 -268 rmoveto
          -64 callgsubr
          -33 5 -33 4 -33 3 -63 276 -97 219 -137 174 rrcurveto
          6 -4 -8 3 -8 hhcurveto
          -7 -8 -3 -8 -6 hvcurveto
          -161 -239 -96 -212 -45 -215 -31 -2 -30 -4 -29 -7 -26 callsubr
          -10 6 callsubr
          -31 callsubr
          -51 callgsubr
          hhcurveto
          9 40 39 5 40 hhcurveto
          41 41 -5 -9 43 2 callgsubr
          -1 2 hhcurveto
          -11 callsubr
          12 -8 11 -12 2 hvcurveto
          -42 9 -41 5 -40 1 11 51 14 51 17 51 rrcurveto
          -8 59 54 -4 52 hhcurveto
          52 51 4 8 55 hvcurveto
          27 -85 13 -47 6 -25 -28 -3 -27 -3 -26 -5 rrcurveto
          -13 -54 callsubr
          -13 14 1 2 -7 callsubr
          vhcurveto
          9 54 56 4 56 hhcurveto
          57 58 -4 -9 59 hvcurveto
          -1 1 2 -42 callgsubr
          -441 799 -99 callsubr
        </CharString>
        <CharString name="Agrave">
          489 257 rmoveto
          -6 -49 -46 -4 -47 hhcurveto
          -47 -48 4 6 -52 hvcurveto
          37 97 48 98 60 102 33 -48 63 -102 48 -147 rrcurveto
          333 -268 rmoveto
          -64 callgsubr
          -33 5 -33 4 -33 3 -63 276 -97 219 -137 174 rrcurveto
          6 -4 -8 3 -8 hhcurveto
          -7 -8 -3 -8 -6 hvcurveto
          -161 -239 -96 -212 -45 -215 -31 -2 -30 -4 -29 -7 -26 callsubr
          -10 6 callsubr
          -31 callsubr
          -51 callgsubr
          hhcurveto
          9 40 39 5 40 hhcurveto
          41 41 -5 -9 43 2 callgsubr
          -1 2 hhcurveto
          -11 callsubr
          12 -8 11 -12 2 hvcurveto
          -42 9 -41 5 -40 1 11 51 14 51 17 51 rrcurveto
          -8 59 54 -4 52 hhcurveto
          52 51 4 8 55 hvcurveto
          27 -85 13 -47 6 -25 -28 -3 -27 -3 -26 -5 rrcurveto
          -13 -54 callsubr
          -13 14 1 2 -7 callsubr
          vhcurveto
          9 54 56 4 56 hhcurveto
          57 58 -4 -9 59 hvcurveto
          -1 1 2 -42 callgsubr
          -725 1026 rmoveto
          -102 callsubr
        </CharString>
        <CharString name="Amacron">
          489 257 rmoveto
          -6 -49 -46 -4 -47 hhcurveto
          -47 -48 4 6 -52 hvcurveto
          37 97 48 98 60 102 33 -48 63 -102 48 -147 rrcurveto
          333 -268 rmoveto
          -64 callgsubr
          -33 5 -33 4 -33 3 -63 276 -97 219 -137 174 rrcurveto
          6 -4 -8 3 -8 hhcurveto
          -7 -8 -3 -8 -6 hvcurveto
          -161 -239 -96 -212 -45 -215 -31 -2 -30 -4 -29 -7 -26 callsubr
          -10 6 callsubr
          -31 callsubr
          -51 callgsubr
          hhcurveto
          9 40 39 5 40 hhcurveto
          41 41 -5 -9 43 2 callgsubr
          -1 2 hhcurveto
          -11 callsubr
          12 -8 11 -12 2 hvcurveto
          -42 9 -41 5 -40 1 11 51 14 51 17 51 rrcurveto
          -8 59 54 -4 52 hhcurveto
          52 51 4 8 55 hvcurveto
          27 -85 13 -47 6 -25 -28 -3 -27 -3 -26 -5 rrcurveto
          -13 -54 callsubr
          -13 14 1 2 -7 callsubr
          vhcurveto
          9 54 56 4 56 hhcurveto
          57 58 -4 -9 59 hvcurveto
          -1 1 2 -42 callgsubr
          -240 891 rmoveto
          15 -11 11 -14 vhcurveto
          -293 hlineto
          -14 -11 -11 -15 hvcurveto
          -94 vlineto
          -14 -1 callsubr
          293 -28 callgsubr
          hvcurveto
          endchar
        </CharString>
        <CharString name="Aogonek">
          769 -152 -92 callsubr
          40 21 26 36 23 hvcurveto
          0 1 0 1 vvcurveto
          51 -1 52 -4 53 -8 rrcurveto
          -1 1 2 -42 callgsubr
          -64 callgsubr
          -33 5 -33 4 -33 3 -63 276 -97 219 -137 174 rrcurveto
          6 -4 -8 3 -8 hhcurveto
          -7 -8 -3 -8 -6 hvcurveto
          -161 -239 -96 -212 -45 -215 -31 -2 -30 -4 -29 -7 -26 callsubr
          -10 6 callsubr
          -31 callsubr
          -51 callgsubr
          hhcurveto
          9 40 39 5 40 hhcurveto
          41 41 -5 -9 43 2 callgsubr
          -1 2 hhcurveto
          -11 callsubr
          12 -8 11 -12 2 hvcurveto
          -42 9 -41 5 -40 1 11 51 14 51 17 51 rrcurveto
          -8 59 54 -4 52 hhcurveto
          52 51 4 8 55 hvcurveto
          27 -85 13 -47 6 -25 -28 -3 -27 -3 -26 -5 rrcurveto
          -13 -54 callsubr
          -13 14 1 2 -7 callsubr
          vhcurveto
          27 5 28 3 29 2 rrcurveto
          -45 -36 -37 -49 -59 -65 callgsubr
          -280 409 rmoveto
          -6 -49 -46 -4 -47 hhcurveto
          -47 -48 4 6 -52 hvcurveto
          37 97 48 98 60 102 33 -48 63 -102 48 -147 rrcurveto
          endchar
        </CharString>
        <CharString name="Aring">
          161 490 257 rmoveto
          -6 -49 -46 -4 -47 hhcurveto
          -47 -48 4 6 -52 hvcurveto
          37 97 48 98 60 102 33 -48 63 -102 48 -147 rrcurveto
          -71 539 rmoveto
          -31 -15 -49 -41 -37 -13 44 33 28 10 51 38 36 22 -42 -34 vhcurveto
          146 -3 rmoveto
          91 -63 63 -89 -84 -67 -66 -88 -61 33 -54 52 -25 vhcurveto
          -136 -212 -82 -193 -41 -195 -31 -2 -30 -4 -29 -7 -26 callsubr
          -10 6 callsubr
          -31 callsubr
          -51 callgsubr
          hhcurveto
          9 40 39 5 40 hhcurveto
          41 41 -5 -9 43 2 callgsubr
          -1 2 hhcurveto
          -11 callsubr
          12 -8 11 -12 2 hvcurveto
          -42 9 -41 5 -40 1 11 51 14 51 17 51 rrcurveto
          -8 59 54 -4 52 hhcurveto
          52 51 4 8 55 hvcurveto
          27 -85 13 -47 6 -25 -28 -3 -27 -3 -26 -5 rrcurveto
          -13 -54 callsubr
          -13 14 1 2 -7 callsubr
          vhcurveto
          9 54 56 4 56 hhcurveto
          57 58 -4 -9 59 hvcurveto
          -1 1 2 -42 callgsubr
          -64 callgsubr
          -33 5 -33 4 -33 3 -55 241 -81 197 -111 162 rrcurveto
          52 23 32 51 67 vvcurveto
          endchar
        </CharString>
        <CharString name="Atilde">
          160 489 257 rmoveto
          -6 -49 -46 -4 -47 hhcurveto
          -47 -48 4 6 -52 hvcurveto
          37 97 48 98 60 102 33 -48 63 -102 48 -147 rrcurveto
          333 -268 rmoveto
          -64 callgsubr
          -33 5 -33 4 -33 3 -63 276 -97 219 -137 174 rrcurveto
          6 -4 -8 3 -8 hhcurveto
          -7 -8 -3 -8 -6 hvcurveto
          -161 -239 -96 -212 -45 -215 -31 -2 -30 -4 -29 -7 -26 callsubr
          -10 6 callsubr
          -31 callsubr
          -51 callgsubr
          hhcurveto
          9 40 39 5 40 hhcurveto
          41 41 -5 -9 43 2 callgsubr
          -1 2 hhcurveto
          -11 callsubr
          12 -8 11 -12 2 hvcurveto
          -42 9 -41 5 -40 1 11 51 14 51 17 51 rrcurveto
          -8 59 54 -4 52 hhcurveto
          52 51 4 8 55 hvcurveto
          27 -85 13 -47 6 -25 -28 -3 -27 -3 -26 -5 rrcurveto
          -13 -54 callsubr
          -13 14 1 2 -7 callsubr
          vhcurveto
          9 54 56 4 56 hhcurveto
          57 58 -4 -9 59 hvcurveto
          -1 1 2 -42 callgsubr
          -220 884 -105 callsubr
        </CharString>
        <CharString name="B">
          55 325 297 rmoveto
          82 151 -15 -119 -109 -113 -31 -125 hvcurveto
          -2 -2 0 -19 hhcurveto
          273 vlineto
          8 9 1 11 hhcurveto
          303 213 rmoveto
          -170 -226 9 -105 vhcurveto
          328 vlineto
          118 6 213 -34 -139 vvcurveto
          51 hmoveto
          183 -235 35 -154 -89 -80 -11 -16 -55 vhcurveto
          -11 -4 -7 -10 -11 -88 callgsubr
          vhcurveto
          2 2 1 3 hhcurveto
          13 4 15 4 16 3 -1 -164 6 -344 1 -113 -30 7 -15 7 -1 1 rrcurveto
          1 -3 -4 1 -4 hhcurveto
          -12 -14 -11 -14 -10 5 -9 9 -4 hvcurveto
          4 -2 74 -37 174 1 rrcurveto
          159 7 137 34 150 vvcurveto
          74 -42 57 -65 24 vhcurveto
          101 17 75 71 104 vvcurveto
          endchar
        </CharString>
        <CharString name="C">
          -98 callgsubr
          endchar
        </CharString>
        <CharString name="Cacute">
          -98 callgsubr
          67 548 -91 callsubr
          endchar
        </CharString>
        <CharString name="Ccaron">
          -98 callgsubr
          -28 562 rmoveto
          -122 hlineto
          -7 -7 -3 -6 -5 hvcurveto
          -96 -111 -74 109 rlineto
          -55 callsubr
          -15 -11 -13 -13 -5 1 -5 3 -4 hvcurveto
          151 -220 rlineto
          -7 4 8 -4 8 hhcurveto
          9 7 3 6 5 hvcurveto
          182 220 rlineto
          4 -43 callgsubr
          15 -14 11 -12 vhcurveto
          endchar
        </CharString>
        <CharString name="Ccedilla">
          77 518 -180 3 callgsubr
          17 39 rlineto
          9 9 -1 9 hhcurveto
          89 91 36 74 60 -35 callgsubr
          6 vlineto
          -56 callsubr
          -14 -12 -10 -8 -12 -3 vhcurveto
          -104 -35 -95 -68 -113 hhcurveto
          -144 -38 196 126 146 59 175 178 62 63 -47 -52 32 hvcurveto
          -31 -91 rlineto
          -1 -2 -1 -3 -3 vvcurveto
          -11 11 -14 15 11 10 6 11 -2 callgsubr
          2 1 3 3 -80 callgsubr
          -10 -10 -7 -11 -4 vhcurveto
          -27 -77 rlineto
          41 -34 -68 54 -114 hhcurveto
          -172 -201 -97 -297 -187 103 -129 174 -31 hvcurveto
          -28 -68 rlineto
          -93 callgsubr
        </CharString>
        <CharString name="Ccircumflex">
          -98 callgsubr
          -51 291 -107 callsubr
        </CharString>
        <CharString name="Cdotaccent">
          -98 callgsubr
          -135 365 -85 callsubr
        </CharString>
        <CharString name="D">
          -75 callsubr
          endchar
        </CharString>
        <CharString name="Dcaron">
          -75 callsubr
          -163 663 rmoveto
          -122 hlineto
          -7 -7 -3 -6 -5 hvcurveto
          -96 -111 -74 109 rlineto
          -55 callsubr
          -15 -11 -13 -13 -5 1 -5 3 -4 hvcurveto
          151 -220 rlineto
          -7 4 8 -4 8 hhcurveto
          9 7 3 6 5 hvcurveto
          182 220 rlineto
          4 -43 callgsubr
          15 -14 11 -12 vhcurveto
          endchar
        </CharString>
        <CharString name="Dcroat">
          -89 callsubr
        </CharString>
        <CharString name="E">
          -3 623 168 rmoveto
          2 -17 callgsubr
          -70 callsubr
          -13 -2 vhcurveto
          -18 -131 rlineto
          5 -79 -79 2 -77 -4 -5 0 -5 hhcurveto
          222 vlineto
          31 1 83 4 60 11 rrcurveto
          12 3 9 10 13 vvcurveto
          -34 callsubr
          -2 -33 callgsubr
          -94 callgsubr
          1 -17 callgsubr
          -21 165 rlineto
          12 -2 -10 10 -13 -2 -1 -74 callsubr
          -18 -135 -137 -9 -138 hhcurveto
          -23 -23 0 1 -24 hvcurveto
          15 callgsubr
          14 -1 hvcurveto
          21 20 0 -1 21 hvcurveto
          -595 vlineto
          -21 -1 -21 -1 -21 -2 rrcurveto
          -14 -1 -73 callgsubr
          -15 11 -10 15 -1 vhcurveto
          -37 callgsubr
          -72 callsubr
          0 -18 callgsubr
          -58 callsubr
          vhcurveto
          endchar
        </CharString>
        <CharString name="Eacute">
          -3 623 168 rmoveto
          2 -17 callgsubr
          -70 callsubr
          -13 -2 vhcurveto
          -18 -131 rlineto
          5 -79 -79 2 -77 -4 -5 0 -5 hhcurveto
          222 vlineto
          31 1 83 4 60 11 rrcurveto
          12 3 9 10 13 vvcurveto
          -34 callsubr
          -2 -33 callgsubr
          -94 callgsubr
          1 -17 callgsubr
          -21 165 rlineto
          12 -2 -10 10 -13 -2 -1 -74 callsubr
          -18 -135 -137 -9 -138 hhcurveto
          -23 -23 0 1 -24 hvcurveto
          15 callgsubr
          14 -1 hvcurveto
          21 20 0 -1 21 hvcurveto
          -595 vlineto
          -21 -1 -21 -1 -21 -2 rrcurveto
          -14 -1 -73 callgsubr
          -15 11 -10 15 -1 vhcurveto
          -37 callgsubr
          -72 callsubr
          0 -18 callgsubr
          -58 callsubr
          vhcurveto
          961 vmoveto
          -107 callgsubr
          endchar
        </CharString>
        <CharString name="Ebreve">
          -3 623 168 rmoveto
          2 -17 callgsubr
          -70 callsubr
          -13 -2 vhcurveto
          -18 -131 rlineto
          5 -79 -79 2 -77 -4 -5 0 -5 hhcurveto
          222 vlineto
          31 1 83 4 60 11 rrcurveto
          12 3 9 10 13 vvcurveto
          -34 callsubr
          -2 -33 callgsubr
          -94 callgsubr
          1 -17 callgsubr
          -21 165 rlineto
          12 -2 -10 10 -13 -2 -1 -74 callsubr
          -18 -135 -137 -9 -138 hhcurveto
          -23 -23 0 1 -24 hvcurveto
          15 callgsubr
          14 -1 hvcurveto
          21 20 0 -1 21 hvcurveto
          -595 vlineto
          -21 -1 -21 -1 -21 -2 rrcurveto
          -14 -1 -73 callgsubr
          -15 11 -10 15 -1 vhcurveto
          -37 callgsubr
          -72 callsubr
          0 -18 callgsubr
          -58 callsubr
          vhcurveto
          -106 918 -103 callsubr
        </CharString>
        <CharString name="Ecaron">
          -3 623 168 rmoveto
          2 -17 callgsubr
          -70 callsubr
          -13 -2 vhcurveto
          -18 -131 rlineto
          5 -79 -79 2 -77 -4 -5 0 -5 hhcurveto
          222 vlineto
          31 1 83 4 60 11 rrcurveto
          12 3 9 10 13 vvcurveto
          -34 callsubr
          -2 -33 callgsubr
          -94 callgsubr
          1 -17 callgsubr
          -21 165 rlineto
          12 -2 -10 10 -13 -2 -1 -74 callsubr
          -18 -135 -137 -9 -138 hhcurveto
          -23 -23 0 1 -24 hvcurveto
          15 callgsubr
          14 -1 hvcurveto
          21 20 0 -1 21 hvcurveto
          -595 vlineto
          -21 -1 -21 -1 -21 -2 rrcurveto
          -14 -1 -73 callgsubr
          -15 11 -10 15 -1 vhcurveto
          -37 callgsubr
          -72 callsubr
          0 -18 callgsubr
          -58 callsubr
          vhcurveto
          -107 984 rmoveto
          -122 hlineto
          -7 -7 -3 -6 -5 hvcurveto
          -96 -111 -74 109 rlineto
          -55 callsubr
          -15 -11 -13 -13 -5 1 -5 3 -4 hvcurveto
          151 -220 rlineto
          -7 4 8 -4 8 hhcurveto
          9 7 3 6 5 hvcurveto
          182 220 rlineto
          4 -43 callgsubr
          15 -14 11 -12 vhcurveto
          endchar
        </CharString>
        <CharString name="Ecircumflex">
          -3 623 168 rmoveto
          2 -17 callgsubr
          -70 callsubr
          -13 -2 vhcurveto
          -18 -131 rlineto
          5 -79 -79 2 -77 -4 -5 0 -5 hhcurveto
          222 vlineto
          31 1 83 4 60 11 rrcurveto
          12 3 9 10 13 vvcurveto
          -34 callsubr
          -2 -33 callgsubr
          -94 callgsubr
          1 -17 callgsubr
          -21 165 rlineto
          12 -2 -10 10 -13 -2 -1 -74 callsubr
          -18 -135 -137 -9 -138 hhcurveto
          -23 -23 0 1 -24 hvcurveto
          15 callgsubr
          14 -1 hvcurveto
          21 20 0 -1 21 hvcurveto
          -595 vlineto
          -21 -1 -21 -1 -21 -2 rrcurveto
          -14 -1 -73 callgsubr
          -15 11 -10 15 -1 vhcurveto
          -37 callgsubr
          -72 callsubr
          0 -18 callgsubr
          -58 callsubr
          vhcurveto
          -102 719 -107 callsubr
        </CharString>
        <CharString name="Edieresis">
          -3 623 168 rmoveto
          2 -17 callgsubr
          -70 callsubr
          -13 -2 vhcurveto
          -18 -131 rlineto
          5 -79 -79 2 -77 -4 -5 0 -5 hhcurveto
          222 vlineto
          31 1 83 4 60 11 rrcurveto
          12 3 9 10 13 vvcurveto
          -34 callsubr
          -2 -33 callgsubr
          -94 callgsubr
          1 -17 callgsubr
          -21 165 rlineto
          12 -2 -10 10 -13 -2 -1 -74 callsubr
          -18 -135 -137 -9 -138 hhcurveto
          -23 -23 0 1 -24 hvcurveto
          15 callgsubr
          14 -1 hvcurveto
          21 20 0 -1 21 hvcurveto
          -595 vlineto
          -21 -1 -21 -1 -21 -2 rrcurveto
          -14 -1 -73 callgsubr
          -15 11 -10 15 -1 vhcurveto
          -37 callgsubr
          -72 callsubr
          0 -18 callgsubr
          -58 callsubr
          vhcurveto
          -299 803 -99 callsubr
        </CharString>
        <CharString name="Edotaccent">
          -3 623 168 rmoveto
          2 -17 callgsubr
          -70 callsubr
          -13 -2 vhcurveto
          -18 -131 rlineto
          5 -79 -79 2 -77 -4 -5 0 -5 hhcurveto
          222 vlineto
          31 1 83 4 60 11 rrcurveto
          12 3 9 10 13 vvcurveto
          -34 callsubr
          -2 -33 callgsubr
          -94 callgsubr
          1 -17 callgsubr
          -21 165 rlineto
          12 -2 -10 10 -13 -2 -1 -74 callsubr
          -18 -135 -137 -9 -138 hhcurveto
          -23 -23 0 1 -24 hvcurveto
          15 callgsubr
          14 -1 hvcurveto
          21 20 0 -1 21 hvcurveto
          -595 vlineto
          -21 -1 -21 -1 -21 -2 rrcurveto
          -14 -1 -73 callgsubr
          -15 11 -10 15 -1 vhcurveto
          -37 callgsubr
          -72 callsubr
          0 -18 callgsubr
          -58 callsubr
          vhcurveto
          -198 790 -85 callsubr
        </CharString>
        <CharString name="Egrave">
          -3 623 168 rmoveto
          2 -17 callgsubr
          -70 callsubr
          -13 -2 vhcurveto
          -18 -131 rlineto
          5 -79 -79 2 -77 -4 -5 0 -5 hhcurveto
          222 vlineto
          31 1 83 4 60 11 rrcurveto
          12 3 9 10 13 vvcurveto
          -34 callsubr
          -2 -33 callgsubr
          -94 callgsubr
          1 -17 callgsubr
          -21 165 rlineto
          12 -2 -10 10 -13 -2 -1 -74 callsubr
          -18 -135 -137 -9 -138 hhcurveto
          -23 -23 0 1 -24 hvcurveto
          15 callgsubr
          14 -1 hvcurveto
          21 20 0 -1 21 hvcurveto
          -595 vlineto
          -21 -1 -21 -1 -21 -2 rrcurveto
          -14 -1 -73 callgsubr
          -15 11 -10 15 -1 vhcurveto
          -37 callgsubr
          -72 callsubr
          0 -18 callgsubr
          -58 callsubr
          vhcurveto
          -561 966 rmoveto
          -102 callsubr
        </CharString>
        <CharString name="Emacron">
          -3 623 168 rmoveto
          2 -17 callgsubr
          -70 callsubr
          -13 -2 vhcurveto
          -18 -131 rlineto
          5 -79 -79 2 -77 -4 -5 0 -5 hhcurveto
          222 vlineto
          31 1 83 4 60 11 rrcurveto
          12 3 9 10 13 vvcurveto
          -34 callsubr
          -2 -33 callgsubr
          -94 callgsubr
          1 -17 callgsubr
          -21 165 rlineto
          12 -2 -10 10 -13 -2 -1 -74 callsubr
          -18 -135 -137 -9 -138 hhcurveto
          -23 -23 0 1 -24 hvcurveto
          15 callgsubr
          14 -1 hvcurveto
          21 20 0 -1 21 hvcurveto
          -595 vlineto
          -21 -1 -21 -1 -21 -2 rrcurveto
          -14 -1 -73 callgsubr
          -15 11 -10 15 -1 vhcurveto
          -37 callgsubr
          -72 callsubr
          0 -18 callgsubr
          -58 callsubr
          vhcurveto
          -101 845 rmoveto
          15 -11 11 -14 vhcurveto
          -293 hlineto
          -14 -11 -11 -15 hvcurveto
          -94 vlineto
          -14 -1 callsubr
          293 -28 callgsubr
          hvcurveto
          endchar
        </CharString>
        <CharString name="Eng">
          779 709 4 callgsubr
          -3 -2 -19 callgsubr
          -11 -41 -43 -6 -45 hhcurveto
          -18 -18 1 2 -18 hvcurveto
          -89 callgsubr
          -13 -13 -11 -14 -13 10 -12 13 -1 hvcurveto
          -2 21 20 -1 19 hhcurveto
          9 8 0 1 8 hvcurveto
          16 -101 7 -97 -92 vvcurveto
          -92 -7 -88 -8 -85 vhcurveto
          -102 208 -209 362 -12 17 rrcurveto
          13 -9 -12 -1 -1 -12 -12 0 -12 1 callgsubr
          5 9 -68 hvcurveto
          -89 callgsubr
          -11 -15 -9 -16 -13 -79 callgsubr
          -71 callgsubr
          -11 -616 rcurveline
          -8 callgsubr
          -87 callgsubr
          12 -12 14 callsubr
          5 50 51 3 51 hhcurveto
          52 52 -3 -5 52 hvcurveto
          -67 callsubr
          -83 callsubr
          -66 callsubr
          15 566 rcurveline
          77 -135 187 -330 57 -136 rrcurveto
          -51 -6 -36 -237 -142 hhcurveto
          -60 -55 53 61 14 -12 12 -14 -23 callsubr
          hvcurveto
          -88 2 69 -77 97 hhcurveto
          159 59 201 138 17 hvcurveto
          14 115 12 121 129 vvcurveto
          93 -7 97 -16 102 vhcurveto
          23 3 22 5 22 6 rrcurveto
          11 3 7 11 11 vvcurveto
          endchar
        </CharString>
        <CharString name="Eogonek">
          -3 622 -159 -92 callsubr
          40 21 26 36 23 hvcurveto
          20 -1 20 -1 21 -2 rrcurveto
          1 hlineto
          -49 callgsubr
          21 155 rlineto
          -51 callsubr
          322 vlineto
          77 4 76 6 -28 callsubr
          -137 -9 -138 hhcurveto
          -23 -23 0 1 -24 hvcurveto
          15 callgsubr
          14 -1 hvcurveto
          21 20 0 -1 21 hvcurveto
          -595 vlineto
          -21 -1 -21 -1 -21 -2 rrcurveto
          -14 -1 -73 callgsubr
          -15 11 -10 15 -1 vhcurveto
          2 hlineto
          6 79 82 3 84 hhcurveto
          34 34 0 -1 35 hvcurveto
          -48 -37 -41 -51 -62 -65 callgsubr
          endchar
        </CharString>
        <CharString name="Eth">
          -89 callsubr
        </CharString>
        <CharString name="Euro">
          206 827 692 rmoveto
          1 3 0 3 2 vvcurveto
          12 -10 14 -16 -10 -10 -7 -10 -4 vhcurveto
          -26 -77 rlineto
          41 -35 -68 53 -114 hhcurveto
          -152 -175 -72 -225 -38 hvcurveto
          -35 2 -36 4 -35 5 rrcurveto
          -89 callgsubr
          -11 -15 -9 -16 -13 -79 callgsubr
          35 -5 36 -3 36 -3 rrcurveto
          -1 -14 -1 -15 -15 vvcurveto
          -15 1 -14 1 -14 vhcurveto
          -33 2 -34 4 -33 4 rrcurveto
          1 -89 callgsubr
          -11 -15 -9 -17 -12 -79 callgsubr
          37 -6 38 -4 38 -2 rrcurveto
          -153 29 143 -104 168 hhcurveto
          124 80 52 58 45 -35 callgsubr
          3 callsubr
          -45 callsubr
          -12 -10 -8 -12 -3 vhcurveto
          0 -54 -176 -189 4 vhcurveto
          -100 8 -57 103 -17 94 45 2 45 4 45 7 rrcurveto
          -55 callgsubr
          -45 callsubr
          -1 -29 callsubr
          -44 -6 -45 -4 -45 -2 rrcurveto
          -1 20 -1 21 22 8 0 8 8 vvcurveto
          48 2 48 5 47 6 rrcurveto
          13 2 9 11 13 vvcurveto
          -69 callgsubr
          -14 vhcurveto
          -1 -2 -74 callsubr
          -44 -6 -44 -4 -44 -3 rrcurveto
          121 15 79 124 139 hhcurveto
          22 callsubr
          hvcurveto
          23 callgsubr
          -5 callgsubr
          -12 9 -14 16 11 10 7 10 3 vhcurveto
          endchar
        </CharString>
        <CharString name="F">
          -9 635 696 rmoveto
          1 -17 callgsubr
          13 -10 12 -15 vhcurveto
          -89 callgsubr
          -13 -106 -108 -9 -156 hhcurveto
          -54 -55 1 3 -54 hvcurveto
          24 callsubr
          -14 -12 -11 -14 -14 11 -11 13 -1 vhcurveto
          25 -1 24 -1 24 -1 -7 -601 rcurveline
          -24 -2 -26 -3 -27 -4 -15 callgsubr
          -14 -23 callgsubr
          1 -42 callgsubr
          11 76 59 5 63 hhcurveto
          40 42 -2 -4 50 hvcurveto
          0 1 0 1 13 11 10 13 1 vhcurveto
          13 -8 14 -15 1 vhcurveto
          -33 3 -31 1 -28 1 2 232 rcurveline
          48 48 4 11 59 hvcurveto
          12 2 9 11 17 vvcurveto
          12 -2 -11 9 -12 hhcurveto
          -2 -1 0 -1 -2 hvcurveto
          -8 -45 -47 -6 -53 hhcurveto
          4 312 88 2 89 6 88 9 rlinecurve
          -17 -176 rlineto
          -1 0 -1 0 vhcurveto
          -12 10 -14 16 13 11 10 13 1 vhcurveto
          endchar
        </CharString>
        <CharString name="G">
          -102 callgsubr
          endchar
        </CharString>
        <CharString name="Gbreve">
          -102 callgsubr
          -153 653 -103 callsubr
        </CharString>
        <CharString name="Gcircumflex">
          -102 callgsubr
          -181 448 -107 callsubr
        </CharString>
        <CharString name="Gcommaaccent">
          -102 callgsubr
          -271 -453 rmoveto
          -48 callgsubr
        </CharString>
        <CharString name="Gdotaccent">
          -102 callgsubr
          -252 524 -85 callsubr
        </CharString>
        <CharString name="H">
          175 822 700 rmoveto
          12 -3 -10 8 -12 -2 -2 -4 callsubr
          -11 -47 -43 -5 -41 hhcurveto
          -27 -26 2 5 -26 hvcurveto
          -1 -33 callgsubr
          -11 -14 -10 -16 -12 9 -11 12 -2 hvcurveto
          25 -4 25 -2 26 -1 -5 -45 -11 -113 -6 -153 rrcurveto
          -5 -54 -54 -2 -54 hhcurveto
          -53 -53 2 6 -48 hvcurveto
          8 312 -45 callgsubr
          13 1 11 11 16 vvcurveto
          13 -1 -12 10 -13 18 callsubr
          -39 -39 -1 -40 1 callgsubr
          4 10 -68 hvcurveto
          -89 callgsubr
          -11 -15 -9 -17 -12 -79 callgsubr
          -71 callgsubr
          -11 -616 rcurveline
          -8 callgsubr
          -87 callgsubr
          -23 callgsubr
          0 -42 callgsubr
          5 50 51 3 51 hhcurveto
          52 52 -3 -5 52 hvcurveto
          -67 callsubr
          12 14 10 15 -10 callgsubr
          2 hvcurveto
          -66 callsubr
          6 247 rcurveline
          -5 50 52 -2 54 hhcurveto
          53 54 2 5 53 hvcurveto
          -2 -62 -1 -67 -71 -16 0 -16 -16 vvcurveto
          -25 -1 -24 -87 callgsubr
          -23 callgsubr
          1 -42 callgsubr
          3 33 35 2 35 hhcurveto
          35 36 -2 -3 37 hvcurveto
          -67 callsubr
          -83 callsubr
          3 -34 -32 2 -32 hhcurveto
          16 0 16 16 vvcurveto
          286 21 219 6 59 vhcurveto
          33 2 33 5 36 7 rrcurveto
          11 3 9 10 18 vvcurveto
          endchar
        </CharString>
        <CharString name="Hbar">
          175 822 700 rmoveto
          12 -3 -10 8 -12 hhcurveto
          -6 hlineto
          -11 -47 -43 -5 -41 hhcurveto
          -27 -26 2 5 -26 hvcurveto
          -4 hlineto
          -11 -14 -10 -16 -12 9 -11 12 -2 hvcurveto
          25 -4 25 -2 26 -1 -4 -31 -6 -62 -5 -85 rrcurveto
          -5 -84 -91 -2 -39 hhcurveto
          -22 -39 0 2 -45 hvcurveto
          5 185 -45 callgsubr
          13 1 11 11 16 vvcurveto
          13 -1 -12 10 -13 hhcurveto
          -2 hlineto
          -4 -39 -39 -1 -40 1 callgsubr
          4 10 -68 hvcurveto
          -3 hlineto
          -11 -15 -9 -17 -12 -79 callgsubr
          -71 callgsubr
          -3 -182 rcurveline
          -26 2 -23 2 -18 3 rrcurveto
          -78 callgsubr
          17 -3 26 -2 30 -2 -7 -384 rcurveline
          -73 -6 -63 callgsubr
          -12 15 vhcurveto
          2 hlineto
          5 50 51 3 51 hhcurveto
          52 52 -3 -5 52 hvcurveto
          2 hlineto
          12 14 10 15 -10 callgsubr
          2 hvcurveto
          -77 6 6 247 rlineto
          -5 50 52 -2 54 hhcurveto
          53 54 2 5 53 hvcurveto
          -2 -62 -1 -67 -71 vvcurveto
          -48 vlineto
          -25 -1 -24 -87 callgsubr
          -31 callsubr
          3 hlineto
          3 33 35 2 35 hhcurveto
          35 36 -2 -3 37 hvcurveto
          2 hlineto
          -83 callsubr
          3 -34 -32 2 -32 hhcurveto
          48 vlineto
          128 4 115 5 93 vhcurveto
          37 2 32 3 21 3 -46 callsubr
          -76 callgsubr
          -20 -3 -28 -3 -32 -2 6 88 6 62 3 28 33 2 33 5 36 7 rrcurveto
          11 3 9 10 18 vvcurveto
          -404 -280 rmoveto
          41 90 1 4 82 hvcurveto
          -2 -26 -1 -28 -1 -29 rrcurveto
          -5 -54 -54 -2 -54 hhcurveto
          -53 -53 2 6 -48 hvcurveto
          2 78 rlineto
          -1 43 39 0 23 hhcurveto
          endchar
        </CharString>
        <CharString name="Hcircumflex">
          175 822 700 rmoveto
          12 -3 -10 8 -12 -2 -2 -4 callsubr
          -11 -47 -43 -5 -41 hhcurveto
          -27 -26 2 5 -26 hvcurveto
          -1 -33 callgsubr
          -11 -14 -10 -16 -12 9 -11 12 -2 hvcurveto
          25 -4 25 -2 26 -1 -5 -45 -11 -113 -6 -153 rrcurveto
          -5 -54 -54 -2 -54 hhcurveto
          -53 -53 2 6 -48 hvcurveto
          8 312 -45 callgsubr
          13 1 11 11 16 vvcurveto
          13 -1 -12 10 -13 18 callsubr
          -39 -39 -1 -40 1 callgsubr
          4 10 -68 hvcurveto
          -89 callgsubr
          -11 -15 -9 -17 -12 -79 callgsubr
          -71 callgsubr
          -11 -616 rcurveline
          -8 callgsubr
          -87 callgsubr
          -23 callgsubr
          0 -42 callgsubr
          5 50 51 3 51 hhcurveto
          52 52 -3 -5 52 hvcurveto
          -67 callsubr
          12 14 10 15 -10 callgsubr
          2 hvcurveto
          -66 callsubr
          6 247 rcurveline
          -5 50 52 -2 54 hhcurveto
          53 54 2 5 53 hvcurveto
          -2 -62 -1 -67 -71 -16 0 -16 -16 vvcurveto
          -25 -1 -24 -87 callgsubr
          -23 callgsubr
          1 -42 callgsubr
          3 33 35 2 35 hhcurveto
          35 36 -2 -3 37 hvcurveto
          -67 callsubr
          -83 callsubr
          3 -34 -32 2 -32 hhcurveto
          16 0 16 16 vvcurveto
          286 21 219 6 59 vhcurveto
          33 2 33 5 36 7 rrcurveto
          11 3 9 10 18 vvcurveto
          -195 43 -107 callsubr
        </CharString>
        <CharString name="I">
          -210 416 682 rmoveto
          -72 callgsubr
          -11 -15 -9 -17 -12 -79 callgsubr
          -71 callgsubr
          -11 -607 rcurveline
          -8 callgsubr
          -87 callgsubr
          -23 callgsubr
          0 -42 callgsubr
          5 50 51 3 51 hhcurveto
          52 52 -3 -5 52 hvcurveto
          -67 callsubr
          -83 callsubr
          -66 callsubr
          16 602 rcurveline
          25 1 24 2 24 2 rrcurveto
          -59 callgsubr
          endchar
        </CharString>
        <CharString name="IJ">
          438 416 682 rmoveto
          -72 callgsubr
          -11 -15 -9 -17 -12 -79 callgsubr
          -71 callgsubr
          -11 -607 rcurveline
          -8 callgsubr
          -87 callgsubr
          -23 callgsubr
          0 -42 callgsubr
          5 50 51 3 51 hhcurveto
          52 52 -3 -5 52 hvcurveto
          -67 callsubr
          -83 callsubr
          -66 callsubr
          16 602 rcurveline
          25 1 24 2 24 2 rrcurveto
          -59 callgsubr
          650 34 -93 callsubr
          endchar
        </CharString>
        <CharString name="Iacute">
          -210 416 682 rmoveto
          -72 callgsubr
          -11 -15 -9 -17 -12 -79 callgsubr
          -71 callgsubr
          -11 -607 rcurveline
          -8 callgsubr
          -87 callgsubr
          -23 callgsubr
          0 -42 callgsubr
          5 50 51 3 51 hhcurveto
          52 52 -3 -5 52 hvcurveto
          -67 callsubr
          -83 callsubr
          -66 callsubr
          16 602 rcurveline
          25 1 24 2 24 2 rrcurveto
          -59 callgsubr
          110 305 -91 callsubr
          endchar
        </CharString>
        <CharString name="Ibreve">
          -210 416 682 rmoveto
          -72 callgsubr
          -11 -15 -9 -17 -12 -79 callgsubr
          -71 callgsubr
          -11 -607 rcurveline
          -8 callgsubr
          -87 callgsubr
          -23 callgsubr
          0 -42 callgsubr
          5 50 51 3 51 hhcurveto
          52 52 -3 -5 52 hvcurveto
          -67 callsubr
          -83 callsubr
          -66 callsubr
          16 602 rcurveline
          25 1 24 2 24 2 rrcurveto
          -59 callgsubr
          -3 255 -103 callsubr
        </CharString>
        <CharString name="Icircumflex">
          -210 416 682 rmoveto
          -72 callgsubr
          -11 -15 -9 -17 -12 -79 callgsubr
          -71 callgsubr
          -11 -607 rcurveline
          -8 callgsubr
          -87 callgsubr
          -23 callgsubr
          0 -42 callgsubr
          5 50 51 3 51 hhcurveto
          52 52 -3 -5 52 hvcurveto
          -67 callsubr
          -83 callsubr
          -66 callsubr
          16 602 rcurveline
          25 1 24 2 24 2 rrcurveto
          -59 callgsubr
          -22 68 -107 callsubr
        </CharString>
        <CharString name="Idieresis">
          -210 416 682 rmoveto
          -72 callgsubr
          -11 -15 -9 -17 -12 -79 callgsubr
          -71 callgsubr
          -11 -607 rcurveline
          -8 callgsubr
          -87 callgsubr
          -23 callgsubr
          0 -42 callgsubr
          5 50 51 3 51 hhcurveto
          52 52 -3 -5 52 hvcurveto
          -67 callsubr
          -83 callsubr
          -66 callsubr
          16 602 rcurveline
          25 1 24 2 24 2 rrcurveto
          -59 callgsubr
          -220 137 -99 callsubr
        </CharString>
        <CharString name="Idotaccent">
          -210 416 682 rmoveto
          -72 callgsubr
          -11 -15 -9 -17 -12 -79 callgsubr
          -71 callgsubr
          -11 -607 rcurveline
          -8 callgsubr
          -87 callgsubr
          -23 callgsubr
          0 -42 callgsubr
          5 50 51 3 51 hhcurveto
          52 52 -3 -5 52 hvcurveto
          -67 callsubr
          -83 callsubr
          -66 callsubr
          16 602 rcurveline
          25 1 24 2 24 2 rrcurveto
          -59 callgsubr
          -103 135 -85 callsubr
        </CharString>
        <CharString name="Igrave">
          -210 416 682 rmoveto
          -72 callgsubr
          -11 -15 -9 -17 -12 -79 callgsubr
          -71 callgsubr
          -11 -607 rcurveline
          -8 callgsubr
          -87 callgsubr
          -23 callgsubr
          0 -42 callgsubr
          5 50 51 3 51 hhcurveto
          52 52 -3 -5 52 hvcurveto
          -67 callsubr
          -83 callsubr
          -66 callsubr
          16 602 rcurveline
          25 1 24 2 24 2 rrcurveto
          -59 callgsubr
          -480 304 rmoveto
          -102 callsubr
        </CharString>
        <CharString name="Imacron">
          -210 416 682 rmoveto
          -72 callgsubr
          -11 -15 -9 -17 -12 -79 callgsubr
          -71 callgsubr
          -11 -607 rcurveline
          -8 callgsubr
          -87 callgsubr
          -23 callgsubr
          0 -42 callgsubr
          5 50 51 3 51 hhcurveto
          52 52 -3 -5 52 hvcurveto
          -67 callsubr
          -83 callsubr
          -66 callsubr
          16 602 rcurveline
          25 1 24 2 24 2 rrcurveto
          -59 callgsubr
          -19 182 rmoveto
          15 -11 11 -14 vhcurveto
          -293 hlineto
          -14 -11 -11 -15 hvcurveto
          -94 vlineto
          -14 -1 callsubr
          293 -28 callgsubr
          hvcurveto
          endchar
        </CharString>
        <CharString name="Iogonek">
          -210 349 -157 -92 callsubr
          40 21 26 36 23 hvcurveto
          4 4 43 -1 44 -3 43 -4 rlinecurve
          2 hlineto
          -83 callsubr
          -77 6 16 602 -45 callgsubr
          -59 callgsubr
          -63 callsubr
          -15 vhcurveto
          -2 hlineto
          -4 -39 -39 -1 -40 1 callgsubr
          4 10 -68 hvcurveto
          -3 hlineto
          -11 -15 -9 -17 -12 -79 callgsubr
          -71 callgsubr
          -11 -607 rcurveline
          -73 -6 -63 callgsubr
          -12 15 vhcurveto
          2 hlineto
          26 3 27 2 27 2 rrcurveto
          -48 -37 -39 -51 -61 -65 callgsubr
          endchar
        </CharString>
        <CharString name="Itilde">
          -210 416 682 rmoveto
          -72 callgsubr
          -11 -15 -9 -17 -12 -79 callgsubr
          -71 callgsubr
          -11 -607 rcurveline
          -8 callgsubr
          -87 callgsubr
          -23 callgsubr
          0 -42 callgsubr
          5 50 51 3 51 hhcurveto
          52 52 -3 -5 52 hvcurveto
          -67 callsubr
          -83 callsubr
          -66 callsubr
          16 602 rcurveline
          25 1 24 2 24 2 rrcurveto
          -59 callgsubr
          -1 203 -105 callsubr
        </CharString>
        <CharString name="J">
          -14 614 716 -93 callsubr
          endchar
        </CharString>
        <CharString name="Jcircumflex">
          -14 614 716 -93 callsubr
          -21 50 -107 callsubr
        </CharString>
        <CharString name="K">
          -94 callsubr
          endchar
        </CharString>
        <CharString name="Kcommaaccent">
          -94 callsubr
          -350 -200 rmoveto
          -48 callgsubr
        </CharString>
        <CharString name="L">
          -7 -101 callsubr
          endchar
        </CharString>
        <CharString name="Lacute">
          -7 -101 callsubr
          -66 994 -91 callsubr
          endchar
        </CharString>
        <CharString name="Lcaron">
          -7 -101 callsubr
          17 616 rmoveto
          -48 callgsubr
        </CharString>
        <CharString name="Lcommaaccent">
          -7 -101 callsubr
          -193 -161 rmoveto
          -48 callgsubr
        </CharString>
        <CharString name="Ldot">
          185 -101 callsubr
          197 329 rmoveto
          -30 callgsubr
        </CharString>
        <CharString name="Lslash">
          -6 638 236 rmoveto
          2 1 -56 callgsubr
          11 callgsubr
          vhcurveto
          -36 -204 rlineto
          4 -58 -88 2 -89 -5 -5 0 -4 hhcurveto
          8 295 133 71 rlineto
          8 5 5 9 9 vvcurveto
          13 -10 12 -15 -4 -5 -1 -2 -3 vhcurveto
          -108 -57 7 253 -84 callsubr
          -11 -15 -9 -17 -12 -79 callgsubr
          -71 callgsubr
          -6 -351 rcurveline
          -87 -44 rlineto
          -9 -5 -5 -9 -9 -88 callgsubr
          4 4 1 2 3 vhcurveto
          63 32 -4 -206 -29 -2 -25 -1 -19 -2 rlinecurve
          -13 -2 -73 callgsubr
          -13 -23 callgsubr
          0 -42 callgsubr
          5 51 99 3 100 hhcurveto
          100 100 -3 -5 53 -53 callgsubr
          11 8 13 2 hvcurveto
          endchar
        </CharString>
        <CharString name="M">
          392 1021 14 rmoveto
          14 12 11 15 14 -11 11 -14 hvcurveto
          1 -17 -18 0 -17 -10 -10 0 -10 hhcurveto
          -12 199 -49 299 -13 81 33 4 23 3 10 2 rrcurveto
          13 2 9 10 13 vvcurveto
          -44 callsubr
          -1 -1 -1 -2 hhcurveto
          -22 -3 -84 -4 -117 -11 rrcurveto
          -9 -8 -4 -8 -5 hvcurveto
          -33 -57 -76 -209 -57 -166 -249 458 rcurveline
          8 -5 -8 5 -10 -10 -10 -1 -15 hhcurveto
          -37 -35 5 9 -35 hvcurveto
          1 -3 -2 -4 callsubr
          -13 -13 -11 -15 -11 8 -10 11 -3 hvcurveto
          35 -10 36 -5 36 -1 -53 -231 -25 -271 -5 -98 -24 -1 -25 -2 -24 -4 rrcurveto
          -12 -2 -9 -11 6 callsubr
          -23 callgsubr
          1 0 2 hhcurveto
          5 27 27 2 28 hhcurveto
          36 37 -4 -7 38 hvcurveto
          -20 callgsubr
          15 8 17 12 -8 11 -12 2 hvcurveto
          -30 6 -29 4 -28 1 rrcurveto
          5 124 38 283 0 vvcurveto
          237 -463 rlineto
          -8 4 9 -5 10 hhcurveto
          10 11 6 11 3 hvcurveto
          1 5 133 400 71 171 50 -227 16 -245 4 -59 -26 -3 -25 -4 -24 -5 rrcurveto
          -13 -75 callgsubr
          -12 15 vhcurveto
          2 1 0 2 hhcurveto
          16 88 92 8 93 hhcurveto
          17 17 0 -1 17 hvcurveto
          endchar
        </CharString>
        <CharString name="N">
          779 709 4 callgsubr
          -3 -2 -19 callgsubr
          -11 -41 -43 -6 -45 hhcurveto
          -18 -18 1 2 -18 hvcurveto
          -89 callgsubr
          -13 -13 -11 -14 -13 10 -12 13 -1 hvcurveto
          -2 21 20 -1 19 hhcurveto
          9 8 0 1 8 hvcurveto
          16 -101 7 -97 -92 vvcurveto
          -92 -7 -88 -8 -85 vhcurveto
          -102 208 -210 361 -11 18 rrcurveto
          12 -7 -14 0 -1 -12 -12 0 -12 hhcurveto
          -66 -67 5 9 -69 hvcurveto
          -89 callgsubr
          -11 -15 -9 -16 -13 -79 callgsubr
          -71 callgsubr
          -11 -616 rcurveline
          -8 callgsubr
          -87 callgsubr
          12 -12 14 callsubr
          5 50 51 3 51 hhcurveto
          52 52 -3 -5 52 hvcurveto
          -67 callsubr
          12 14 10 15 -10 callgsubr
          2 hvcurveto
          -66 callsubr
          15 566 rcurveline
          78 -137 192 -337 54 -133 rrcurveto
          -10 4 9 -6 10 hhcurveto
          12 10 8 14 4 hvcurveto
          14 115 12 120 128 vvcurveto
          94 -6 98 -17 102 vhcurveto
          23 3 22 5 22 6 rrcurveto
          11 3 7 11 11 vvcurveto
          endchar
        </CharString>
        <CharString name="Nacute">
          779 709 4 callgsubr
          -3 -2 -19 callgsubr
          -11 -41 -43 -6 -45 hhcurveto
          -18 -18 1 2 -18 hvcurveto
          -89 callgsubr
          -13 -13 -11 -14 -13 10 -12 13 -1 hvcurveto
          -2 21 20 -1 19 hhcurveto
          9 8 0 1 8 hvcurveto
          16 -101 7 -97 -92 vvcurveto
          -92 -7 -88 -8 -85 vhcurveto
          -102 208 -210 361 -11 18 rrcurveto
          12 -7 -14 0 -1 -12 -12 0 -12 hhcurveto
          -66 -67 5 9 -69 hvcurveto
          -89 callgsubr
          -11 -15 -9 -16 -13 -79 callgsubr
          -71 callgsubr
          -11 -616 rcurveline
          -8 callgsubr
          -87 callgsubr
          12 -12 14 callsubr
          5 50 51 3 51 hhcurveto
          52 52 -3 -5 52 hvcurveto
          -67 callsubr
          12 14 10 15 -10 callgsubr
          2 hvcurveto
          -66 callsubr
          15 566 rcurveline
          78 -137 192 -337 54 -133 rrcurveto
          -10 4 9 -6 10 hhcurveto
          12 10 8 14 4 hvcurveto
          14 115 12 120 128 vvcurveto
          94 -6 98 -17 102 vhcurveto
          23 3 22 5 22 6 rrcurveto
          11 3 7 11 11 vvcurveto
          -62 255 -91 callsubr
          endchar
        </CharString>
        <CharString name="Ncaron">
          779 709 4 callgsubr
          -3 -2 -19 callgsubr
          -11 -41 -43 -6 -45 hhcurveto
          -18 -18 1 2 -18 hvcurveto
          -89 callgsubr
          -13 -13 -11 -14 -13 10 -12 13 -1 hvcurveto
          -2 21 20 -1 19 hhcurveto
          9 8 0 1 8 hvcurveto
          16 -101 7 -97 -92 vvcurveto
          -92 -7 -88 -8 -85 vhcurveto
          -102 208 -210 361 -11 18 rrcurveto
          12 -7 -14 0 -1 -12 -12 0 -12 hhcurveto
          -66 -67 5 9 -69 hvcurveto
          -89 callgsubr
          -11 -15 -9 -16 -13 -79 callgsubr
          -71 callgsubr
          -11 -616 rcurveline
          -8 callgsubr
          -87 callgsubr
          12 -12 14 callsubr
          5 50 51 3 51 hhcurveto
          52 52 -3 -5 52 hvcurveto
          -67 callsubr
          12 14 10 15 -10 callgsubr
          2 hvcurveto
          -66 callsubr
          15 566 rcurveline
          78 -137 192 -337 54 -133 rrcurveto
          -10 4 9 -6 10 hhcurveto
          12 10 8 14 4 hvcurveto
          14 115 12 120 128 vvcurveto
          94 -6 98 -17 102 vhcurveto
          23 3 22 5 22 6 rrcurveto
          11 3 7 11 11 vvcurveto
          -168 281 rmoveto
          -122 hlineto
          -7 -7 -3 -6 -5 hvcurveto
          -96 -111 -74 109 rlineto
          -55 callsubr
          -15 -11 -13 -13 -5 1 -5 3 -4 hvcurveto
          151 -220 rlineto
          -7 4 8 -4 8 hhcurveto
          9 7 3 6 5 hvcurveto
          182 220 rlineto
          4 -43 callgsubr
          15 -14 11 -12 vhcurveto
          endchar
        </CharString>
        <CharString name="Ncommaaccent">
          779 709 4 callgsubr
          -3 -2 -19 callgsubr
          -11 -41 -43 -6 -45 hhcurveto
          -18 -18 1 2 -18 hvcurveto
          -89 callgsubr
          -13 -13 -11 -14 -13 10 -12 13 -1 hvcurveto
          -2 21 20 -1 19 hhcurveto
          9 8 0 1 8 hvcurveto
          16 -101 7 -97 -92 vvcurveto
          -92 -7 -88 -8 -85 vhcurveto
          -102 208 -210 361 -11 18 rrcurveto
          12 -7 -14 0 -1 -12 -12 0 -12 hhcurveto
          -66 -67 5 9 -69 hvcurveto
          -89 callgsubr
          -11 -15 -9 -16 -13 -79 callgsubr
          -71 callgsubr
          -11 -616 rcurveline
          -8 callgsubr
          -87 callgsubr
          12 -12 14 callsubr
          5 50 51 3 51 hhcurveto
          52 52 -3 -5 52 hvcurveto
          -67 callsubr
          12 14 10 15 -10 callgsubr
          2 hvcurveto
          -66 callsubr
          15 566 rcurveline
          78 -137 192 -337 54 -133 rrcurveto
          -10 4 9 -6 10 hhcurveto
          12 10 8 14 4 hvcurveto
          14 115 12 120 128 vvcurveto
          94 -6 98 -17 102 vhcurveto
          23 3 22 5 22 6 rrcurveto
          11 3 7 11 11 vvcurveto
          -292 -856 rmoveto
          -48 callgsubr
        </CharString>
        <CharString name="Ntilde">
          779 709 4 callgsubr
          -3 -2 -19 callgsubr
          -11 -41 -43 -6 -45 hhcurveto
          -18 -18 1 2 -18 hvcurveto
          -89 callgsubr
          -13 -13 -11 -14 -13 10 -12 13 -1 hvcurveto
          -2 21 20 -1 19 hhcurveto
          9 8 0 1 8 hvcurveto
          16 -101 7 -97 -92 vvcurveto
          -92 -7 -88 -8 -85 vhcurveto
          -102 208 -210 361 -11 18 rrcurveto
          12 -7 -14 0 -1 -12 -12 0 -12 hhcurveto
          -66 -67 5 9 -69 hvcurveto
          -89 callgsubr
          -11 -15 -9 -16 -13 -79 callgsubr
          -71 callgsubr
          -11 -616 rcurveline
          -8 callgsubr
          -87 callgsubr
          12 -12 14 callsubr
          5 50 51 3 51 hhcurveto
          52 52 -3 -5 52 hvcurveto
          -67 callsubr
          12 14 10 15 -10 callgsubr
          2 hvcurveto
          -66 callsubr
          15 566 rcurveline
          78 -137 192 -337 54 -133 rrcurveto
          -10 4 9 -6 10 hhcurveto
          12 10 8 14 4 hvcurveto
          14 115 12 120 128 vvcurveto
          94 -6 98 -17 102 vhcurveto
          23 3 22 5 22 6 rrcurveto
          11 3 7 11 11 vvcurveto
          -181 161 -105 callsubr
        </CharString>
        <CharString name="O">
          -100 callgsubr
          endchar
        </CharString>
        <CharString name="OE">
          566 1192 168 rmoveto
          -51 callsubr
          322 vlineto
          77 4 76 6 -28 callsubr
          -137 -9 -138 hhcurveto
          -23 -23 0 1 -24 hvcurveto
          15 callgsubr
          14 -1 hvcurveto
          21 20 0 -1 21 hvcurveto
          -103 vlineto
          107 -61 -109 79 -133 hhcurveto
          -194 -159 -169 -208 -208 159 -169 194 127 113 76 110 63 hvcurveto
          -110 vlineto
          -21 -1 -21 -1 -21 -2 rrcurveto
          -14 -1 -73 callgsubr
          -15 11 -10 15 -1 vhcurveto
          2 hlineto
          -72 callsubr
          1 hlineto
          -49 callgsubr
          -469 334 rmoveto
          -145 -117 -174 -139 -175 -53 169 158 145 74 161 171 128 111 -180 -134 vhcurveto
          endchar
        </CharString>
        <CharString name="Oacute">
          -100 callgsubr
          -33 667 -91 callsubr
          endchar
        </CharString>
        <CharString name="Obreve">
          -100 callgsubr
          -171 611 -103 callsubr
        </CharString>
        <CharString name="Ocircumflex">
          -100 callgsubr
          -188 405 -107 callsubr
        </CharString>
        <CharString name="Odieresis">
          -100 callgsubr
          -385 475 -99 callsubr
        </CharString>
        <CharString name="Ograve">
          -100 callgsubr
          -648 666 rmoveto
          -102 callsubr
        </CharString>
        <CharString name="Ohungarumlaut">
          -100 callgsubr
          -183 657 -95 callgsubr
        </CharString>
        <CharString name="Omacron">
          -100 callgsubr
          -179 526 rmoveto
          15 -11 11 -14 vhcurveto
          -293 hlineto
          -14 -11 -11 -15 hvcurveto
          -94 vlineto
          -14 -1 callsubr
          293 -28 callgsubr
          hvcurveto
          endchar
        </CharString>
        <CharString name="Oslash">
          -88 callsubr
          endchar
        </CharString>
        <CharString name="Oslashacute">
          -88 callsubr
          490 656 -91 callsubr
          endchar
        </CharString>
        <CharString name="Otilde">
          -100 callgsubr
          -164 537 -105 callsubr
        </CharString>
        <CharString name="P">
          50 635 457 rmoveto
          -139 -120 -72 -137 -26 -24 3 5 -20 vhcurveto
          11 412 rlineto
          11 11 0 12 hhcurveto
          130 -5 152 -46 -158 vvcurveto
          -257 -262 rmoveto
          145 163 91 171 182 -162 73 -170 5 hvcurveto
          1 -15 -16 0 -14 hhcurveto
          -166 -84 -33 -1 -4 hvcurveto
          -10 -4 -6 -10 -10 vvcurveto
          10 callsubr
          3 3 1 1 3 vhcurveto
          1 23 10 8 48 hvcurveto
          -11 -606 -8 callgsubr
          -2 -24 -2 rlinecurve
          -13 -2 -73 callgsubr
          -13 12 -12 14 callsubr
          5 50 51 3 51 hhcurveto
          52 52 -3 -5 52 hvcurveto
          -67 callsubr
          12 14 10 15 -10 callgsubr
          2 hvcurveto
          -66 callsubr
          4 154 rcurveline
          -5 21 24 -2 26 hhcurveto
          endchar
        </CharString>
        <CharString name="Q">
          137 753 347 rmoveto
          191 -149 186 -205 -194 -159 -169 -208 -208 159 -169 194 50 48 12 21 44 vhcurveto
          -77 27 56 -61 75 hhcurveto
          22 22 7 12 19 hvcurveto
          8 5 4 8 9 vvcurveto
          15 -13 10 -13 -4 -5 -1 -3 -4 vhcurveto
          -7 -11 -13 -3 -12 hhcurveto
          -55 -39 51 61 -18 hvcurveto
          99 68 67 118 132 vvcurveto
          -51 hmoveto
          -98 -53 -110 -76 -62 vhcurveto
          62 -24 -46 37 -65 hhcurveto
          -42 -35 -16 -1 -2 hvcurveto
          -9 -4 -6 -10 -9 vvcurveto
          -15 -63 callsubr
          3 4 1 2 4 vhcurveto
          0 27 12 30 47 28 -27 -49 16 vhcurveto
          -13 -26 -28 -8 -29 hhcurveto
          -175 -53 169 158 145 74 161 171 128 111 -180 -134 hvcurveto
          endchar
        </CharString>
        <CharString name="R">
          -100 callsubr
          endchar
        </CharString>
        <CharString name="Racute">
          -100 callsubr
          -43 809 -91 callsubr
          endchar
        </CharString>
        <CharString name="Rcaron">
          -100 callsubr
          -184 835 rmoveto
          -122 hlineto
          -7 -7 -3 -6 -5 hvcurveto
          -96 -111 -74 109 rlineto
          -55 callsubr
          -15 -11 -13 -13 -5 1 -5 3 -4 hvcurveto
          151 -220 rlineto
          -7 4 8 -4 8 hhcurveto
          9 7 3 6 5 hvcurveto
          182 220 rlineto
          4 -43 callgsubr
          15 -14 11 -12 vhcurveto
          endchar
        </CharString>
        <CharString name="Rcommaaccent">
          -100 callsubr
          -273 -338 rmoveto
          -48 callgsubr
        </CharString>
        <CharString name="S">
          -101 callgsubr
          endchar
        </CharString>
        <CharString name="Sacute">
          -101 callgsubr
          -9 819 -91 callsubr
          endchar
        </CharString>
        <CharString name="Scaron">
          -101 callgsubr
          -137 824 rmoveto
          -122 hlineto
          -7 -7 -3 -6 -5 hvcurveto
          -96 -111 -74 109 rlineto
          -55 callsubr
          -15 -11 -13 -13 -5 1 -5 3 -4 hvcurveto
          151 -220 rlineto
          -7 4 8 -4 8 hhcurveto
          9 7 3 6 5 hvcurveto
          182 220 rlineto
          4 -43 callgsubr
          15 -14 11 -12 vhcurveto
          endchar
        </CharString>
        <CharString name="Scedilla">
          50 492 -197 3 callgsubr
          19 44 rlineto
          -1 14 13 -1 14 hhcurveto
          122 144 82 142 149 -115 38 -132 31 hvcurveto
          -77 19 -147 18 -9 108 rrcurveto
          84 2 73 33 79 hhcurveto
          79 130 -49 -36 12 hvcurveto
          -10 -34 -7 -34 -4 -34 rrcurveto
          -3 vlineto
          -11 11 -14 15 -54 callgsubr
          1 vhcurveto
          9 72 22 71 34 70 rrcurveto
          2 4 1 3 4 vvcurveto
          -81 callsubr
          -9 -9 -5 -9 -5 vhcurveto
          -12 -25 -11 -24 -9 -25 rrcurveto
          41 -34 -116 40 -83 hhcurveto
          -135 -133 -80 -157 -160 139 -43 139 -30 hvcurveto
          58 -12 148 -36 -85 vvcurveto
          -79 -95 -21 -67 -116 -95 53 93 -72 vhcurveto
          3 31 4 18 6 30 rrcurveto
          1 2 0 2 1 18 callgsubr
          10 callgsubr
          -11 -55 -7 -55 -66 vvcurveto
          -21 1 -21 1 -21 vhcurveto
          -14 1 11 -10 15 hhcurveto
          -59 callgsubr
          2 vlineto
          -1 20 -1 20 21 vvcurveto
          12 vlineto
          54 -58 66 -38 75 -17 -31 -74 rcurveline
          -93 callgsubr
        </CharString>
        <CharString name="Scircumflex">
          -101 callgsubr
          -140 558 -107 callsubr
        </CharString>
        <CharString name="T">
          -4 644 516 rmoveto
          -23 65 -17 101 1 vvcurveto
          12 -2 -11 9 -12 hhcurveto
          -1 -36 callgsubr
          hvcurveto
          -14 callsubr
          -1 -2 -74 callsubr
          -12 -10 -8 -12 -3 hvcurveto
          -1 -23 -108 -19 -69 vhcurveto
          -1 -2 0 -3 -2 -88 callgsubr
          11 10 8 11 3 vhcurveto
          15 52 15 71 8 35 38 -3 50 -3 55 -2 -11 -606 rcurveline
          -25 -1 -8 callgsubr
          -3 rrcurveto
          20 callsubr
          -81 callgsubr
          hhcurveto
          6 50 50 2 52 hhcurveto
          51 52 -2 -6 52 -27 callsubr
          13 -9 -40 callgsubr
          -25 3 -26 2 -26 1 16 603 rcurveline
          54 49 1 2 37 hvcurveto
          6 -34 14 -67 17 -50 rrcurveto
          -11 4 10 -7 10 21 callsubr
          hvcurveto
          3 -1 3 2 vvcurveto
          endchar
        </CharString>
        <CharString name="Tbar">
          -4 479 345 rmoveto
          -76 callgsubr
          -13 -5 -14 -3 -13 -2 8 288 rcurveline
          54 49 1 2 37 hvcurveto
          6 -34 14 -67 17 -50 rrcurveto
          -11 4 10 -7 10 21 callsubr
          hvcurveto
          3 -1 3 2 vvcurveto
          -23 65 -17 101 1 vvcurveto
          12 -2 -11 9 -12 hhcurveto
          -2 hlineto
          -14 callsubr
          -4 hlineto
          -12 -10 -8 -12 -3 hvcurveto
          -1 -23 -108 -19 -69 vhcurveto
          -1 -2 0 -3 -2 -88 callgsubr
          11 10 8 11 3 vhcurveto
          15 52 15 71 8 35 38 -3 50 -3 55 -2 -5 -286 rcurveline
          -33 5 rlineto
          -80 callsubr
          -9 13 -3 hvcurveto
          13 -4 13 -2 13 -3 -5 -266 rcurveline
          -25 -1 -8 callgsubr
          -3 rrcurveto
          16 callsubr
          6 50 50 2 52 hhcurveto
          51 52 -2 -6 52 hvcurveto
          16 callgsubr
          -26 2 -26 1 7 265 rcurveline
          17 2 17 4 14 4 rrcurveto
          8 callsubr
        </CharString>
        <CharString name="Tcaron">
          -4 644 516 rmoveto
          -23 65 -17 101 1 vvcurveto
          12 -2 -11 9 -12 hhcurveto
          -1 -36 callgsubr
          hvcurveto
          -14 callsubr
          -1 -2 -74 callsubr
          -12 -10 -8 -12 -3 hvcurveto
          -1 -23 -108 -19 -69 vhcurveto
          -1 -2 0 -3 -2 -88 callgsubr
          11 10 8 11 3 vhcurveto
          15 52 15 71 8 35 38 -3 50 -3 55 -2 -11 -606 rcurveline
          -25 -1 -8 callgsubr
          -3 rrcurveto
          20 callsubr
          -81 callgsubr
          hhcurveto
          6 50 50 2 52 hhcurveto
          51 52 -2 -6 52 -27 callsubr
          13 -9 -40 callgsubr
          -25 3 -26 2 -26 1 16 603 rcurveline
          54 49 1 2 37 hvcurveto
          6 -34 14 -67 17 -50 rrcurveto
          -11 4 10 -7 10 21 callsubr
          hvcurveto
          3 -1 3 2 vvcurveto
          -126 494 rmoveto
          -122 hlineto
          -7 -7 -3 -6 -5 hvcurveto
          -96 -111 -74 109 rlineto
          -55 callsubr
          -15 -11 -13 -13 -5 1 -5 3 -4 hvcurveto
          151 -220 rlineto
          -7 4 8 -4 8 hhcurveto
          9 7 3 6 5 hvcurveto
          182 220 rlineto
          4 -43 callgsubr
          15 -14 11 -12 vhcurveto
          endchar
        </CharString>
        <CharString name="Tcommaaccent">
          -4 644 516 rmoveto
          -23 65 -17 101 1 vvcurveto
          12 -2 -11 9 -12 hhcurveto
          -1 -36 callgsubr
          hvcurveto
          -14 callsubr
          -1 -2 -74 callsubr
          -12 -10 -8 -12 -3 hvcurveto
          -1 -23 -108 -19 -69 vhcurveto
          -1 -2 0 -3 -2 -88 callgsubr
          11 10 8 11 3 vhcurveto
          15 52 15 71 8 35 38 -3 50 -3 55 -2 -11 -606 rcurveline
          -25 -1 -8 callgsubr
          -3 rrcurveto
          20 callsubr
          -81 callgsubr
          hhcurveto
          6 50 50 2 52 hhcurveto
          51 52 -2 -6 52 -27 callsubr
          13 -9 -40 callgsubr
          -25 3 -26 2 -26 1 16 603 rcurveline
          54 49 1 2 37 hvcurveto
          6 -34 14 -67 17 -50 rrcurveto
          -11 4 10 -7 10 21 callsubr
          hvcurveto
          3 -1 3 2 vvcurveto
          -239 -663 rmoveto
          -48 callgsubr
        </CharString>
        <CharString name="Thorn">
          64 648 324 rmoveto
          -105 -16 -124 -43 -131 hhcurveto
          -17 -18 1 1 -17 hvcurveto
          10 369 rlineto
          -8 callsubr
          1 154 161 -41 -148 -11 -1 -11 -2 -12 vhcurveto
          51 -8 rmoveto
          2 15 1 14 14 vvcurveto
          183 -181 54 -185 2 vhcurveto
          2 63 20 1 21 2 20 2 rlinecurve
          13 -43 callsubr
          vvcurveto
          15 -11 10 -15 1 vhcurveto
          0 -1 0 -1 vhcurveto
          -5 -52 -52 -3 -52 hhcurveto
          -51 -51 3 5 -50 -2 callsubr
          -14 -10 -16 -12 10 -12 13 -1 hvcurveto
          28 -3 28 -2 28 -1 -1 -78 rcurveline
          -60 -12 -30 -14 -2 -1 rrcurveto
          -9 -4 -5 -10 -9 -88 callgsubr
          3 4 1 2 4 vhcurveto
          0 23 11 45 10 vhcurveto
          -6 -318 -20 7 -20 8 -23 10 rlinecurve
          1 -4 0 callsubr
          -13 -13 -11 -15 -10 6 -9 10 -4 hvcurveto
          30 -13 25 -10 27 -9 -2 -110 rcurveline
          -8 callgsubr
          -87 callgsubr
          12 -12 14 callsubr
          5 50 51 3 51 hhcurveto
          52 52 -3 -5 52 hvcurveto
          -67 callsubr
          -83 callsubr
          -66 callsubr
          2 79 rcurveline
          -1 19 18 -1 19 hhcurveto
          135 162 49 142 22 hvcurveto
          endchar
        </CharString>
        <CharString name="U">
          92 729 -106 callsubr
          endchar
        </CharString>
        <CharString name="Uacute">
          93 730 -106 callsubr
          -11 292 -91 callsubr
          endchar
        </CharString>
        <CharString name="Ubreve">
          92 729 -106 callsubr
          -120 234 -103 callsubr
        </CharString>
        <CharString name="Ucircumflex">
          93 730 -106 callsubr
          -165 43 -107 callsubr
        </CharString>
        <CharString name="Udieresis">
          93 730 -106 callsubr
          -378 110 -99 callsubr
        </CharString>
        <CharString name="Ugrave">
          93 730 -106 callsubr
          -593 292 rmoveto
          -102 callsubr
        </CharString>
        <CharString name="Uhungarumlaut">
          92 729 -106 callsubr
          -145 300 -95 callgsubr
        </CharString>
        <CharString name="Umacron">
          92 729 -106 callsubr
          -146 164 rmoveto
          15 -11 11 -14 vhcurveto
          -293 hlineto
          -14 -11 -11 -15 hvcurveto
          -94 vlineto
          -14 -1 callsubr
          293 -28 callgsubr
          hvcurveto
          endchar
        </CharString>
        <CharString name="Uogonek">
          92 543 -177 -92 callsubr
          37 17 25 31 22 hvcurveto
          165 28 52 149 6 184 -1 128 -15 138 -7 57 80 6 rcurveline
          5 callgsubr
          14 vvcurveto
          -69 callgsubr
          -14 vhcurveto
          -2 hlineto
          -214 -17 -63 callgsubr
          -13 14 vhcurveto
          3 hlineto
          82 7 rlineto
          7 -54 15 -137 -127 vvcurveto
          -171 -53 -136 -121 -140 -9 227 111 126 14 112 6 42 vhcurveto
          74 hlineto
          14 12 12 14 14 -12 12 -14 hvcurveto
          -306 hlineto
          -15 -11 -12 -14 -14 -38 callgsubr
          hvcurveto
          58 hlineto
          -8 -45 -13 -100 -123 vvcurveto
          -158 32 -223 198 -25 vhcurveto
          -42 -36 -33 -47 -56 -65 callgsubr
          endchar
        </CharString>
        <CharString name="Uring">
          92 729 -106 callsubr
          -306 189 -77 callgsubr
        </CharString>
        <CharString name="Utilde">
          92 729 -106 callsubr
          -163 176 -105 callsubr
        </CharString>
        <CharString name="V">
          163 847 679 rmoveto
          -79 callsubr
          vhcurveto
          -2 -2 -1 -2 hhcurveto
          -9 -39 -33 -5 -34 hhcurveto
          -34 -35 5 9 -43 hvcurveto
          -1 -2 1 -2 hhcurveto
          -13 -13 -12 -14 -12 9 -11 12 -2 hvcurveto
          36 -8 31 -4 30 -2 -36 -163 -66 -162 -104 -175 -102 150 -59 176 -45 177 28 3 27 3 27 5 rrcurveto
          12 2 9 -39 callsubr
          -58 callgsubr
          -2 -1 -1 -2 hhcurveto
          -9 -54 -55 -5 -57 hhcurveto
          -56 -58 5 9 -59 hvcurveto
          -2 -1 1 -1 hhcurveto
          -11 -15 -10 -16 -13 9 -10 -57 callgsubr
          32 -6 33 -3 32 -3 63 -274 97 -219 138 -176 rrcurveto
          -6 5 7 -4 9 hhcurveto
          8 1 8 4 5 7 132 201 114 214 56 250 28 2 29 4 33 8 rrcurveto
          12 3 8 10 12 vvcurveto
          endchar
        </CharString>
        <CharString name="W">
          280 973 688 rmoveto
          13 -12 -13 callsubr
          -9 -38 -39 -4 -39 hhcurveto
          -33 -32 3 6 -33 hvcurveto
          -2 -33 callgsubr
          -11 -14 -9 -17 -12 9 -11 12 -2 hvcurveto
          30 -5 29 -3 29 -1 -34 -252 -32 -135 -39 -100 -81 167 -51 149 -27 151 rrcurveto
          12 -3 -11 9 -13 hhcurveto
          -13 -1 -10 -10 -1 -13 -10 -152 -49 -153 -61 -145 -90 185 -32 217 -8 73 31 3 30 4 29 4 rrcurveto
          13 2 9 11 13 vvcurveto
          -69 callgsubr
          -15 vhcurveto
          -1 -33 callgsubr
          -10 -58 -64 -5 -62 hhcurveto
          -39 -38 2 4 -37 -38 callsubr
          -9 -16 -2 hvcurveto
          -13 10 -11 13 -2 vhcurveto
          15 -1 16 -2 16 -1 9 -83 44 -314 169 -276 rrcurveto
          -8 5 8 -5 9 hhcurveto
          9 9 6 8 4 hvcurveto
          52 93 41 98 39 113 27 -77 50 -121 80 -117 rrcurveto
          -7 5 8 -4 10 hhcurveto
          9 8 6 7 4 hvcurveto
          86 163 52 113 54 406 32 1 31 5 31 7 rrcurveto
          12 2 9 -39 callsubr
          endchar
        </CharString>
        <CharString name="Wacute">
          280 973 688 rmoveto
          13 -12 -13 callsubr
          -9 -38 -39 -4 -39 hhcurveto
          -33 -32 3 6 -33 hvcurveto
          -2 -33 callgsubr
          -11 -14 -9 -17 -12 9 -11 12 -2 hvcurveto
          30 -5 29 -3 29 -1 -34 -252 -32 -135 -39 -100 -81 167 -51 149 -27 151 rrcurveto
          12 -3 -11 9 -13 hhcurveto
          -13 -1 -10 -10 -1 -13 -10 -152 -49 -153 -61 -145 -90 185 -32 217 -8 73 31 3 30 4 29 4 rrcurveto
          13 2 9 11 13 vvcurveto
          -69 callgsubr
          -15 vhcurveto
          -1 -33 callgsubr
          -10 -58 -64 -5 -62 hhcurveto
          -39 -38 2 4 -37 -38 callsubr
          -9 -16 -2 hvcurveto
          -13 10 -11 13 -2 vhcurveto
          15 -1 16 -2 16 -1 9 -83 44 -314 169 -276 rrcurveto
          -8 5 8 -5 9 hhcurveto
          9 9 6 8 4 hvcurveto
          52 93 41 98 39 113 27 -77 50 -121 80 -117 rrcurveto
          -7 5 8 -4 10 hhcurveto
          9 8 6 7 4 hvcurveto
          86 163 52 113 54 406 32 1 31 5 31 7 rrcurveto
          12 2 9 -39 callsubr
          -160 251 -91 callsubr
          endchar
        </CharString>
        <CharString name="Wcircumflex">
          280 973 688 rmoveto
          13 -12 -13 callsubr
          -9 -38 -39 -4 -39 hhcurveto
          -33 -32 3 6 -33 hvcurveto
          -2 -33 callgsubr
          -11 -14 -9 -17 -12 9 -11 12 -2 hvcurveto
          30 -5 29 -3 29 -1 -34 -252 -32 -135 -39 -100 -81 167 -51 149 -27 151 rrcurveto
          12 -3 -11 9 -13 hhcurveto
          -13 -1 -10 -10 -1 -13 -10 -152 -49 -153 -61 -145 -90 185 -32 217 -8 73 31 3 30 4 29 4 rrcurveto
          13 2 9 11 13 vvcurveto
          -69 callgsubr
          -15 vhcurveto
          -1 -33 callgsubr
          -10 -58 -64 -5 -62 hhcurveto
          -39 -38 2 4 -37 -38 callsubr
          -9 -16 -2 hvcurveto
          -13 10 -11 13 -2 vhcurveto
          15 -1 16 -2 16 -1 9 -83 44 -314 169 -276 rrcurveto
          -8 5 8 -5 9 hhcurveto
          9 9 6 8 4 hvcurveto
          52 93 41 98 39 113 27 -77 50 -121 80 -117 rrcurveto
          -7 5 8 -4 10 hhcurveto
          9 8 6 7 4 hvcurveto
          86 163 52 113 54 406 32 1 31 5 31 7 rrcurveto
          12 2 9 -39 callsubr
          -285 47 -107 callsubr
        </CharString>
        <CharString name="Wdieresis">
          280 973 688 rmoveto
          13 -12 -13 callsubr
          -9 -38 -39 -4 -39 hhcurveto
          -33 -32 3 6 -33 hvcurveto
          -2 -33 callgsubr
          -11 -14 -9 -17 -12 9 -11 12 -2 hvcurveto
          30 -5 29 -3 29 -1 -34 -252 -32 -135 -39 -100 -81 167 -51 149 -27 151 rrcurveto
          12 -3 -11 9 -13 hhcurveto
          -13 -1 -10 -10 -1 -13 -10 -152 -49 -153 -61 -145 -90 185 -32 217 -8 73 31 3 30 4 29 4 rrcurveto
          13 2 9 11 13 vvcurveto
          -69 callgsubr
          -15 vhcurveto
          -1 -33 callgsubr
          -10 -58 -64 -5 -62 hhcurveto
          -39 -38 2 4 -37 -38 callsubr
          -9 -16 -2 hvcurveto
          -13 10 -11 13 -2 vhcurveto
          15 -1 16 -2 16 -1 9 -83 44 -314 169 -276 rrcurveto
          -8 5 8 -5 9 hhcurveto
          9 9 6 8 4 hvcurveto
          52 93 41 98 39 113 27 -77 50 -121 80 -117 rrcurveto
          -7 5 8 -4 10 hhcurveto
          9 8 6 7 4 hvcurveto
          86 163 52 113 54 406 32 1 31 5 31 7 rrcurveto
          12 2 9 -39 callsubr
          -477 98 -99 callsubr
        </CharString>
        <CharString name="Wgrave">
          280 973 688 rmoveto
          13 -12 -13 callsubr
          -9 -38 -39 -4 -39 hhcurveto
          -33 -32 3 6 -33 hvcurveto
          -2 -33 callgsubr
          -11 -14 -9 -17 -12 9 -11 12 -2 hvcurveto
          30 -5 29 -3 29 -1 -34 -252 -32 -135 -39 -100 -81 167 -51 149 -27 151 rrcurveto
          12 -3 -11 9 -13 hhcurveto
          -13 -1 -10 -10 -1 -13 -10 -152 -49 -153 -61 -145 -90 185 -32 217 -8 73 31 3 30 4 29 4 rrcurveto
          13 2 9 11 13 vvcurveto
          -69 callgsubr
          -15 vhcurveto
          -1 -33 callgsubr
          -10 -58 -64 -5 -62 hhcurveto
          -39 -38 2 4 -37 -38 callsubr
          -9 -16 -2 hvcurveto
          -13 10 -11 13 -2 vhcurveto
          15 -1 16 -2 16 -1 9 -83 44 -314 169 -276 rrcurveto
          -8 5 8 -5 9 hhcurveto
          9 9 6 8 4 hvcurveto
          52 93 41 98 39 113 27 -77 50 -121 80 -117 rrcurveto
          -7 5 8 -4 10 hhcurveto
          9 8 6 7 4 hvcurveto
          86 163 52 113 54 406 32 1 31 5 31 7 rrcurveto
          12 2 9 -39 callsubr
          -751 255 rmoveto
          -102 callsubr
        </CharString>
        <CharString name="X">
          121 751 -2 rmoveto
          13 12 11 15 -10 callgsubr
          1 hvcurveto
          -25 3 -25 1 -26 1 -78 82 -76 96 -65 110 79 104 68 109 46 96 34 2 35 4 36 6 rrcurveto
          12 3 15 callsubr
          13 -10 12 -15 vhcurveto
          -2 -33 callgsubr
          -8 -40 -38 -4 -37 hhcurveto
          -37 -35 4 8 -34 hvcurveto
          -2 -2 -4 callsubr
          -10 -15 -9 -16 -12 8 -11 12 -2 hvcurveto
          26 -6 27 -4 28 -2 -42 -82 -57 -91 -65 -88 -64 112 -48 102 -22 47 26 3 26 4 27 4 rrcurveto
          12 2 9 11 13 vvcurveto
          -69 callgsubr
          -15 vhcurveto
          -1 -33 callgsubr
          -12 -70 -69 -6 -69 hhcurveto
          -34 -34 2 3 -34 hvcurveto
          -1 0 -74 callsubr
          -13 -13 -11 -15 -13 10 -47 callgsubr
          21 -2 21 -1 21 -1 23 -52 78 -154 99 -170 -95 -112 -86 -84 -24 -23 -33 -1 -33 -3 -32 -6 -15 callgsubr
          -14 -23 callgsubr
          1 1 2 hhcurveto
          6 37 37 3 38 hhcurveto
          38 37 -3 -6 38 hvcurveto
          1 2 -1 1 hhcurveto
          -64 callgsubr
          -24 4 -24 3 -23 1 38 39 59 61 64 74 40 -64 42 -63 43 -53 -21 -2 -21 -4 -20 -4 rrcurveto
          -12 -2 -31 callgsubr
          1 2 -42 callgsubr
          14 73 73 6 75 hhcurveto
          37 37 -1 -4 37 hvcurveto
          -81 callgsubr
          hhcurveto
          endchar
        </CharString>
        <CharString name="Y">
          -103 callgsubr
          endchar
        </CharString>
        <CharString name="Yacute">
          -103 callgsubr
          -80 243 -91 callsubr
          endchar
        </CharString>
        <CharString name="Ycircumflex">
          -103 callgsubr
          -177 57 -107 callsubr
        </CharString>
        <CharString name="Ydieresis">
          -103 callgsubr
          -392 134 -99 callsubr
        </CharString>
        <CharString name="Ygrave">
          -103 callgsubr
          -632 275 rmoveto
          -102 callsubr
        </CharString>
        <CharString name="Z">
          -99 callgsubr
          endchar
        </CharString>
        <CharString name="Zacute">
          -99 callgsubr
          10 776 -91 callsubr
          endchar
        </CharString>
        <CharString name="Zcaron">
          -99 callgsubr
          -128 771 rmoveto
          -122 hlineto
          -7 -7 -3 -6 -5 hvcurveto
          -96 -111 -74 109 rlineto
          -55 callsubr
          -15 -11 -13 -13 -5 1 -5 3 -4 hvcurveto
          151 -220 rlineto
          -7 4 8 -4 8 hhcurveto
          9 7 3 6 5 hvcurveto
          182 220 rlineto
          4 -43 callgsubr
          15 -14 11 -12 vhcurveto
          endchar
        </CharString>
        <CharString name="Zdotaccent">
          -99 callgsubr
          -202 579 -85 callsubr
        </CharString>
        <CharString name="a">
          -106 callgsubr
          endchar
        </CharString>
        <CharString name="aacute">
          -106 callgsubr
          -113 766 -91 callsubr
          endchar
        </CharString>
        <CharString name="abreve">
          -106 callgsubr
          -132 731 -103 callsubr
        </CharString>
        <CharString name="acircumflex">
          -106 callgsubr
          -143 526 -107 callsubr
        </CharString>
        <CharString name="acute">
          -352 310 816 -91 callsubr
          endchar
        </CharString>
        <CharString name="adieresis">
          -106 callgsubr
          -365 600 -99 callsubr
        </CharString>
        <CharString name="ae">
          -91 callgsubr
          endchar
        </CharString>
        <CharString name="aeacute">
          -91 callgsubr
          352 648 -91 callsubr
          endchar
        </CharString>
        <CharString name="agrave">
          -106 callgsubr
          -602 779 rmoveto
          -102 callsubr
        </CharString>
        <CharString name="amacron">
          -106 callgsubr
          -128 649 rmoveto
          15 -11 11 -14 vhcurveto
          -293 hlineto
          -14 -11 -11 -15 hvcurveto
          -94 vlineto
          -14 -1 callsubr
          293 -28 callgsubr
          hvcurveto
          endchar
        </CharString>
        <CharString name="ampersand">
          313 955 287 rmoveto
          96 -69 91 -108 -75 -82 -41 -70 -61 vhcurveto
          -79 -68 -70 -13 -37 hhcurveto
          -17 -11 2 1 -1 hvcurveto
          -2 -2 1 -2 hhcurveto
          -12 -14 -10 -16 -9 5 -9 8 -4 hvcurveto
          -3 4 68 -36 83 hhcurveto
          15 15 1 3 15 hvcurveto
          1 -8 1 -7 -7 vvcurveto
          -84 -66 -49 -78 -101 -81 58 113 164 131 15 6 vhcurveto
          13 2 10 11 13 vvcurveto
          0 0 1 0 vhcurveto
          14 -1 -11 11 -13 hhcurveto
          -1 hlineto
          24 callsubr
          -54 -105 15 76 71 82 21 77 22 19 -2 -4 16 vhcurveto
          -23 -15 -15 -27 -30 vvcurveto
          -48 39 -39 48 48 39 39 48 38 -26 92 -167 -105 -106 -40 -103 -47 25 -36 32 -21 vhcurveto
          -93 -31 -54 -81 -105 vvcurveto
          -181 145 -58 171 112 117 77 122 12 -1 12 -2 12 vhcurveto
          52 22 59 52 30 29 rrcurveto
          29 32 28 30 39 hhcurveto
          45 28 -37 -44 4 hvcurveto
          -22 -6 -21 -11 -16 vhcurveto
          48 -1 -38 39 -48 hhcurveto
          -48 -40 -39 -49 -48 41 -39 51 84 67 57 90 hvcurveto
          endchar
        </CharString>
        <CharString name="aogonek">
          -50 619 -155 -92 callsubr
          40 21 26 36 23 hvcurveto
          -81 callgsubr
          vhcurveto
          2 18 19 1 19 hhcurveto
          11 12 0 -1 11 hvcurveto
          2 -28 callgsubr
          14 -15 callsubr
          -12 -12 1 -11 -10 -10 -1 -10 hhcurveto
          13 1 20 27 vvcurveto
          163 -15 222 -220 -157 -103 -127 -94 10 callsubr
          13 13 10 13 63 61 76 61 83 59 -77 -80 vhcurveto
          -12 20 callgsubr
          79 71 48 63 56 hvcurveto
          -3 -45 -4 -26 -1 vvcurveto
          -4 vlineto
          -12 10 -14 15 vhcurveto
          1 hlineto
          -34 -34 -26 -42 -49 -65 callgsubr
          -248 326 rmoveto
          -72 -41 -73 -79 -93 hhcurveto
          -30 -39 14 37 103 178 32 78 hvcurveto
          18 hlineto
          -12 1 -12 1 -11 vhcurveto
          endchar
        </CharString>
        <CharString name="approxequal">
          -19 571 533 rmoveto
          52 -18 36 -15 19 vhcurveto
          7 -5 -8 3 -8 hhcurveto
          -13 -12 -10 -15 -6 2 -5 3 -5 hvcurveto
          8 -13 4 -12 -14 vvcurveto
          -34 -17 -18 -40 vhcurveto
          -68 10 134 -167 hhcurveto
          -86 -61 -72 -102 -80 28 -32 2 -2 hvcurveto
          -8 5 8 -4 8 21 callsubr
          5 -2 5 -3 4 hvcurveto
          -10 10 -7 23 10 vvcurveto
          28 13 44 36 vhcurveto
          110 -5 -155 129 hhcurveto
          93 60 88 93 hvcurveto
          -310 vmoveto
          52 -18 36 -15 19 vhcurveto
          7 -5 -8 3 -8 hhcurveto
          -13 -12 -10 -15 -6 2 -5 3 -5 hvcurveto
          8 -13 4 -12 -14 vvcurveto
          -34 -17 -18 -40 vhcurveto
          -68 10 134 -167 hhcurveto
          -86 -61 -72 -102 -80 28 -32 2 -2 hvcurveto
          -8 5 8 -4 8 21 callsubr
          5 -2 5 -3 4 hvcurveto
          -10 10 -7 23 10 vvcurveto
          28 13 44 36 vhcurveto
          110 -5 -155 129 hhcurveto
          93 60 88 93 hvcurveto
          endchar
        </CharString>
        <CharString name="aring">
          -106 callgsubr
          -332 682 -77 callgsubr
        </CharString>
        <CharString name="asciicircum">
          -236 219 708 rmoveto
          9 2 callsubr
          -10 hhcurveto
          -10 -9 -6 -9 -4 hvcurveto
          -171 -359 rlineto
          -2 -4 0 -4 -3 vvcurveto
          -13 10 -13 15 10 9 5 10 4 vhcurveto
          88 184 103 -186 rlineto
          -8 5 8 -5 10 hhcurveto
          138 hlineto
          -11 callsubr
          4 -1 4 -2 4 hvcurveto
          endchar
        </CharString>
        <CharString name="asciitilde">
          -82 537 362 rmoveto
          52 -10 61 -33 46 vhcurveto
          7 -5 -8 3 -8 hhcurveto
          -13 -12 -10 -15 -6 1 -5 4 -5 hvcurveto
          14 -19 8 -26 -25 vvcurveto
          -34 -17 -39 -40 -17 -10 17 39 -18 vhcurveto
          55 -24 -37 82 -119 hhcurveto
          -86 -61 -72 -102 -101 41 -64 2 -2 hvcurveto
          -8 5 8 -4 8 21 callsubr
          5 -2 5 -3 4 hvcurveto
          -16 26 -14 36 34 vvcurveto
          28 13 44 36 34 16 -37 -31 17 vhcurveto
          -64 34 47 -82 86 hhcurveto
          93 60 88 93 hvcurveto
          endchar
        </CharString>
        <CharString name="asterisk">
          -127 495 548 rmoveto
          39 -31 35 -43 -9 -8 -1 -3 -9 vhcurveto
          -20 -8 -30 -22 -27 -22 rrcurveto
          12 35 11 39 22 vvcurveto
          41 -33 -18 callsubr
          -33 -34 -41 -22 11 -39 12 -34 vhcurveto
          -27 22 -30 22 -20 7 rrcurveto
          3 -8 -9 1 -9 hhcurveto
          -38 -36 -32 -42 -30 19 -29 30 -11 hvcurveto
          7 -2 19 -7 64 -2 -29 -20 -30 -24 -12 -18 rrcurveto
          -10 -13 -4 -15 -15 vvcurveto
          -38 33 -36 41 24 23 11 20 14 vhcurveto
          15 22 16 49 11 39 10 -39 16 -49 15 -22 rrcurveto
          -20 14 23 -11 24 hhcurveto
          39 35 33 41 15 -4 15 -10 13 hvcurveto
          -12 18 -30 24 -29 20 61 2 18 7 7 2 rrcurveto
          30 11 18 29 30 vvcurveto
          endchar
        </CharString>
        <CharString name="at">
          100 404 375 rmoveto
          -66 -27 -110 -74 -46 -11 46 46 84 42 55 52 51 11 -45 -10 2 vhcurveto
          320 16 rmoveto
          139 -92 149 -203 -222 -155 -166 -217 -152 82 -130 150 30 31 5 12 31 vhcurveto
          10 4 7 10 10 -80 callgsubr
          -3 -3 -1 -1 -3 vhcurveto
          -10 -26 -25 -4 -24 hhcurveto
          -121 -59 107 124 188 134 144 192 169 75 -119 -118 -46 -20 -127 -67 -29 -16 36 27 hvcurveto
          153 31 vlineto
          14 12 12 14 14 -12 12 -14 hvcurveto
          -142 hlineto
          -14 -10 -10 -13 -2 hvcurveto
          11 -16 -21 7 -27 hhcurveto
          -72 -74 -67 -122 -76 32 -68 77 51 34 31 38 23 hvcurveto
          -48 18 45 -28 53 hhcurveto
          127 70 124 126 hvcurveto
          endchar
        </CharString>
        <CharString name="atilde">
          -106 callgsubr
          -149 662 -105 callsubr
        </CharString>
        <CharString name="b">
          -60 510 262 rmoveto
          -105 -44 -114 -105 -82 -36 70 96 -3 vhcurveto
          -1 36 -1 39 40 vvcurveto
          30 3 57 92 81 hhcurveto
          97 34 -82 -102 hvcurveto
          51 hmoveto
          131 -55 104 -128 -58 -54 -28 -41 -28 vhcurveto
          135 2 121 1 vvcurveto
          1 -8 callsubr
          vhcurveto
          -19 callsubr
          -3 -1 5 callsubr
          -14 -49 -50 -4 -40 -50 -36 6 -2 hhcurveto
          1 -1 -2 -74 callsubr
          -10 -16 -9 -17 -12 9 -11 12 -2 hvcurveto
          -1 3 37 -7 54 hhcurveto
          -1 -52 -1 -119 -108 vvcurveto
          -72 1 -67 1 -40 vhcurveto
          -127 5 95 -92 125 hhcurveto
          173 98 133 166 hvcurveto
          endchar
        </CharString>
        <CharString name="backslash">
          -60 573 20 rmoveto
          -160 249 -125 228 -98 220 rrcurveto
          10 -4 -9 6 -10 hhcurveto
          -118 hlineto
          -13 -9 callgsubr
          -5 1 -4 3 -5 hvcurveto
          144 -232 165 -230 194 -241 rrcurveto
          -6 5 8 -4 7 -29 callgsubr
          5 -1 4 -3 5 hvcurveto
          endchar
        </CharString>
        <CharString name="bar">
          -337 247 916 rmoveto
          -6 callgsubr
          -1094 vlineto
          -14 -31 callsubr
          117 hlineto
          14 12 12 14 hvcurveto
          endchar
        </CharString>
        <CharString name="braceleft">
          -305 335 -217 rmoveto
          9 callsubr
          -50 -33 43 51 hvcurveto
          94 58 86 103 vvcurveto
          74 -31 63 -68 37 vhcurveto
          66 33 33 66 75 103 -58 87 92 vvcurveto
          57 48 37 35 1 vhcurveto
          11 15 9 16 12 -8 11 -12 2 hvcurveto
          1 -2 -14 3 -21 hhcurveto
          -133 -57 -114 -126 hvcurveto
          -69 26 -67 -73 vvcurveto
          -53 -19 -45 -69 -36 vhcurveto
          -9 -4 -5 -9 -9 vvcurveto
          -10 5 -9 9 -4 vhcurveto
          69 -36 19 -44 -53 -70 -26 -67 -72 vvcurveto
          -120 51 -120 139 vhcurveto
          21 14 3 2 hhcurveto
          12 3 8 10 12 vvcurveto
          endchar
        </CharString>
        <CharString name="braceright">
          -305 345 360 rmoveto
          9 -6 9 -8 4 vhcurveto
          -69 36 -19 45 53 70 26 66 73 vvcurveto
          118 -52 122 -138 -21 -14 -3 5 callsubr
          -12 -75 callgsubr
          -12 15 51 33 -44 -51 vhcurveto
          -89 -58 -87 -106 vvcurveto
          -72 30 -68 69 -34 vhcurveto
          -66 -34 -33 -64 -76 -102 58 -100 -81 vvcurveto
          -48 -31 -46 -53 -12 -13 -10 -16 -12 8 -10 12 -3 vhcurveto
          2 14 -3 21 hhcurveto
          133 57 113 127 hvcurveto
          69 -26 67 73 vvcurveto
          53 19 44 69 36 vhcurveto
          8 4 6 9 10 vvcurveto
          endchar
        </CharString>
        <CharString name="bracketleft">
          -290 363 936 rmoveto
          -81 callsubr
          -1 -1 0 -1 -1 vhcurveto
          -4 -44 -40 -3 -37 hhcurveto
          -38 -35 3 4 -34 hvcurveto
          1 -89 callgsubr
          -13 -13 -12 -14 hvcurveto
          -1153 vlineto
          -14 -38 callgsubr
          -20 callsubr
          7 35 34 3 33 hhcurveto
          44 41 -5 -6 38 -12 callgsubr
          11 15 9 17 12 -9 11 -13 2 hvcurveto
          -28 4 -31 4 -34 2 rrcurveto
          1086 vlineto
          29 1 30 2 33 4 rrcurveto
          13 -43 callsubr
          vvcurveto
          endchar
        </CharString>
        <CharString name="bracketright">
          -290 295 936 rmoveto
          12 -12 14 -14 -1 -1 0 -1 -1 vhcurveto
          -4 -34 -35 -3 -38 hhcurveto
          -37 -41 3 4 -44 hvcurveto
          1 -1 0 -74 callsubr
          -12 -14 -10 -16 -26 callgsubr
          32 -4 31 -2 29 -1 rrcurveto
          -1086 vlineto
          -34 -2 -31 -4 -28 -4 -15 callgsubr
          -14 -23 callgsubr
          1 0 2 hhcurveto
          6 38 41 5 44 hhcurveto
          33 34 -3 -7 34 hvcurveto
          -1 2 2 0 2 hhcurveto
          14 12 11 15 hvcurveto
          endchar
        </CharString>
        <CharString name="breve">
          -328 334 777 -103 callsubr
        </CharString>
        <CharString name="brokenbar">
          -337 247 316 rmoveto
          -6 callgsubr
          -494 vlineto
          -14 -31 callsubr
          117 hlineto
          14 12 12 14 hvcurveto
          1094 vmoveto
          -6 callgsubr
          -494 vlineto
          -14 -31 callsubr
          117 hlineto
          14 12 12 14 hvcurveto
          endchar
        </CharString>
        <CharString name="bullet">
          -264 323 351 rmoveto
          69 -55 56 -69 -68 -56 -56 -69 -68 56 -56 68 69 55 56 68 vhcurveto
          endchar
        </CharString>
        <CharString name="c">
          -96 callsubr
          endchar
        </CharString>
        <CharString name="cacute">
          -96 callsubr
          77 483 -91 callsubr
          endchar
        </CharString>
        <CharString name="caron">
          -278 358 840 rmoveto
          -122 hlineto
          -7 -7 -3 -6 -5 hvcurveto
          -96 -111 -74 109 rlineto
          -55 callsubr
          -15 -11 -13 -13 -5 1 -5 3 -4 hvcurveto
          151 -220 rlineto
          -7 4 8 -4 8 hhcurveto
          9 7 3 6 5 hvcurveto
          182 220 rlineto
          4 -43 callgsubr
          15 -14 11 -12 vhcurveto
          endchar
        </CharString>
        <CharString name="ccaron">
          -96 callsubr
          -27 498 rmoveto
          -122 hlineto
          -7 -7 -3 -6 -5 hvcurveto
          -96 -111 -74 109 rlineto
          -55 callsubr
          -15 -11 -13 -13 -5 1 -5 3 -4 hvcurveto
          151 -220 rlineto
          -7 4 8 -4 8 hhcurveto
          9 7 3 6 5 hvcurveto
          182 220 rlineto
          4 -43 callgsubr
          15 -14 11 -12 vhcurveto
          endchar
        </CharString>
        <CharString name="ccedilla">
          -86 430 -180 3 callgsubr
          14 33 rlineto
          11 hlineto
          142 74 107 65 13 hvcurveto
          -69 callsubr
          -10 -9 -12 -3 vhcurveto
          -55 -14 -53 -67 -66 hhcurveto
          -90 -39 100 91 80 29 151 110 58 51 -73 -57 hvcurveto
          -14 1 11 -10 13 -41 callgsubr
          31 199 rlineto
          4 vlineto
          -70 callsubr
          -12 -2 vhcurveto
          -16 -100 rlineto
          59 -41 -67 30 -74 hhcurveto
          -165 -91 -124 -164 -131 78 -96 117 -24 hvcurveto
          -26 -62 rlineto
          -93 callgsubr
        </CharString>
        <CharString name="ccircumflex">
          -96 callsubr
          -60 227 -107 callsubr
        </CharString>
        <CharString name="cdotaccent">
          -96 callsubr
          -147 300 -85 callsubr
        </CharString>
        <CharString name="cedilla">
          -389 273 -180 rmoveto
          74 -60 47 -77 vhcurveto
          -7 -6 0 -6 hhcurveto
          26 59 rlineto
          1 3 1 3 4 vvcurveto
          12 -11 13 -15 -10 -10 -6 -10 -4 vhcurveto
          -42 -100 rlineto
          -93 callgsubr
        </CharString>
        <CharString name="cent">
          -80 307 -46 rmoveto
          14 12 11 14 hvcurveto
          1 -1 2 1 vvcurveto
          -4 31 -2 31 -2 30 125 12 66 98 12 61 rrcurveto
          -69 callsubr
          -10 -9 -12 -3 vhcurveto
          -55 -14 -53 -67 -66 hhcurveto
          -9 -8 1 1 -7 hvcurveto
          -6 110 2 83 0 vvcurveto
          0 -1 89 3 103 vhcurveto
          3 11 12 2 13 hhcurveto
          46 63 -63 -57 hvcurveto
          -14 1 11 -10 13 -41 callgsubr
          31 189 rlineto
          4 vlineto
          -70 callsubr
          -12 -2 vhcurveto
          -16 -100 -37 52 -56 29 -64 6 rlinecurve
          2 47 4 46 6 40 13 callgsubr
          -4 -50 -3 -47 -2 -42 rrcurveto
          -151 -8 -83 -93 -156 vvcurveto
          -145 97 -102 138 -10 vhcurveto
          2 -36 2 -34 3 -29 rrcurveto
          -13 1 11 -9 13 hhcurveto
          -92 371 rmoveto
          54 13 72 42 42 vhcurveto
          -3 -100 0 -62 0 vvcurveto
          0 0 -78 4 -91 vhcurveto
          -39 37 -17 65 61 vvcurveto
          endchar
        </CharString>
        <CharString name="circumflex">
          -278 358 569 -107 callsubr
        </CharString>
        <CharString name="colon">
          -387 212 6 callgsubr
          270 vmoveto
          -30 callgsubr
        </CharString>
        <CharString name="comma">
          -418 199 20 rmoveto
          -48 callgsubr
        </CharString>
        <CharString name="copyright">
          145 616 511 rmoveto
          2 0 1 1 18 callgsubr
          -12 11 callgsubr
          vhcurveto
          -6 -39 rlineto
          28 -27 -39 13 -40 hhcurveto
          -103 -64 -84 -103 -94 69 -75 99 67 70 42 72 14 hvcurveto
          2 0 1 2 vvcurveto
          -45 callsubr
          -12 -11 -9 -12 -2 vhcurveto
          -31 -1 -38 -36 -34 hhcurveto
          -50 -19 65 43 42 13 89 62 35 18 -41 -29 5 hvcurveto
          -13 1 11 -11 13 -41 callgsubr
          109 -38 -3 callsubr
          118 121 -133 -125 vhcurveto
          51 hmoveto
          184 -173 136 -181 -16 callsubr
        </CharString>
        <CharString name="currency">
          -287 202 361 8 callgsubr
          122 188 rmoveto
          -10 -2 -4 -8 -8 hvcurveto
          -15 -22 -13 -20 -14 -19 rrcurveto
          8 -18 -22 5 -23 hhcurveto
          -29 -27 -9 -15 -23 hvcurveto
          -16 22 -16 24 -17 26 rrcurveto
          8 -8 -2 4 -10 hhcurveto
          -13 -14 -10 -15 -5 2 -6 3 -4 hvcurveto
          17 -27 19 -26 19 -25 rrcurveto
          -14 -21 -8 -24 -28 vvcurveto
          -30 9 -27 17 -22 vhcurveto
          -55 -48 rlineto
          -1 -9 -11 -7 vvcurveto
          -14 13 -12 14 5 6 2 4 4 vhcurveto
          20 17 20 19 20 18 rrcurveto
          -12 21 25 -6 27 hhcurveto
          21 20 4 6 17 hvcurveto
          17 -16 17 -15 18 -15 rrcurveto
          -4 4 -14 callgsubr
          hhcurveto
          14 -9 callsubr
          hvcurveto
          7 -9 11 1 vvcurveto
          -15 12 -13 12 -13 11 rrcurveto
          22 23 13 31 38 vvcurveto
          36 -12 31 -21 22 vhcurveto
          15 20 14 21 14 21 rrcurveto
          3 4 2 6 5 vvcurveto
          15 -14 10 -13 vhcurveto
          endchar
        </CharString>
        <CharString name="d">
          14 -85 callgsubr
          endchar
        </CharString>
        <CharString name="dagger">
          -165 326 553 rmoveto
          -70 callgsubr
          -732 1 callsubr
          endchar
        </CharString>
        <CharString name="daggerdbl">
          -160 444 143 rmoveto
          14 11 11 14 14 -10 11 -13 1 hvcurveto
          -40 3 -39 3 -39 1 rrcurveto
          352 vlineto
          -70 callgsubr
          -354 vlineto
          -89 callgsubr
          -1 -8 callsubr
          hvcurveto
          -33 -1 -32 -2 -32 -3 rrcurveto
          -13 -1 -10 -12 -13 vvcurveto
          -14 12 -10 14 -1 vhcurveto
          -37 callgsubr
          31 3 32 2 31 1 rrcurveto
          -67 callsubr
          -327 1 callsubr
          264 vlineto
          37 -2 38 -2 39 -3 rrcurveto
          -37 callgsubr
          endchar
        </CharString>
        <CharString name="dcaron">
          181 -85 callgsubr
          164 629 rmoveto
          -48 callgsubr
        </CharString>
        <CharString name="dcroat">
          14 408 265 rmoveto
          -26 4 -43 -205 -130 hhcurveto
          -95 -51 89 95 -1 hvcurveto
          101 45 135 132 58 61 -27 -59 20 vhcurveto
          295 220 rmoveto
          -76 callgsubr
          -34 -5 -30 -3 -28 -3 rrcurveto
          84 vlineto
          13 -10 12 -15 vhcurveto
          -6 hlineto
          -6 -25 -31 -2 -30 -63 -61 8 -1 hhcurveto
          -3 hlineto
          -13 -13 -11 -14 -13 10 -11 -57 callgsubr
          3 31 -4 -2 40 hvcurveto
          -56 vlineto
          -42 2 -46 6 -55 7 rrcurveto
          -78 callgsubr
          50 -7 50 -5 50 -2 rrcurveto
          -92 vlineto
          30 -35 -48 18 -56 hhcurveto
          -154 -74 -142 -146 hvcurveto
          -125 2 72 -109 125 hhcurveto
          75 63 48 62 30 hvcurveto
          -83 vlineto
          -13 11 -13 15 2 3 -4 callgsubr
          1 67 19 83 hhcurveto
          15 16 -1 -1 16 hvcurveto
          2 hlineto
          12 14 10 16 13 -15 callsubr
          2 -17 -17 0 -17 hhcurveto
          -10 497 hlineto
          33 2 33 4 33 5 -46 callsubr
          endchar
        </CharString>
        <CharString name="degree">
          -312 177 594 8 callgsubr
          134 -3 rmoveto
          77 -56 54 -81 -72 -65 -53 -78 -75 60 -55 77 82 55 52 78 vhcurveto
          endchar
        </CharString>
        <CharString name="dieresis">
          -299 150 699 -99 callsubr
        </CharString>
        <CharString name="divide">
          -121 504 366 rmoveto
          -52 callgsubr
          -158 -160 -77 callsubr
          290 vmoveto
          -30 callgsubr
        </CharString>
        <CharString name="dollar">
          -93 532 253 rmoveto
          105 -112 37 -91 18 vhcurveto
          -23 4 rlineto
          -10 76 3 42 0 vvcurveto
          5 vlineto
          42 -5 41 -14 36 -28 rrcurveto
          -3 -5 -13 -3 -20 vhcurveto
          -4 vlineto
          -13 11 -13 14 13 11 10 12 2 vhcurveto
          4 24 13 43 25 44 rrcurveto
          3 4 1 4 5 vvcurveto
          -69 callgsubr
          -15 -8 -9 -4 -8 -5 vhcurveto
          -8 -14 -8 -15 -6 -14 -40 27 -47 16 -51 5 1 37 2 49 6 44 13 callgsubr
          -6 -42 -2 -51 -41 vvcurveto
          -101 -3 -97 -54 -112 vvcurveto
          -105 104 -51 104 -16 vhcurveto
          10 -72 -3 -40 0 vvcurveto
          -1 vlineto
          -63 9 -56 28 -47 51 3 23 rcurveline
          3 vlineto
          12 -10 13 -16 -13 -11 -10 -13 -1 vhcurveto
          -1 -3 -4 -41 -48 vvcurveto
          -14 0 -13 1 -13 vhcurveto
          -13 -12 callsubr
          10 12 13 hvcurveto
          2 vlineto
          -1 10 0 11 11 vvcurveto
          47 -41 58 -24 63 -8 -1 -37 -2 -50 -6 -45 rrcurveto
          -1 -1 -1 -1 vvcurveto
          -15 12 -11 14 -54 callgsubr
          1 vhcurveto
          6 44 1 51 1 42 rrcurveto
          91 125 57 111 hvcurveto
          -100 -65 rmoveto
          -42 -85 -9 -31 vhcurveto
          2 vlineto
          0 2 48 -6 59 vhcurveto
          46 -8 74 -17 -33 vvcurveto
          -268 310 rmoveto
          29 48 14 38 2 vhcurveto
          -6 vlineto
          0 -3 -49 7 -60 vhcurveto
          -45 13 -45 21 36 vvcurveto
          endchar
        </CharString>
        <CharString name="dotaccent">
          -512 150 699 -85 callsubr
        </CharString>
        <CharString name="dotlessi">
          -275 354 -12 rmoveto
          -86 callgsubr
          1 406 rcurveline
          -69 callgsubr
          -15 vhcurveto
          -2 -2 -74 callsubr
          -6 -30 callsubr
          12 callsubr
          -374 -21 callsubr
          -13 15 vhcurveto
          2 1 1 -44 callgsubr
          -1 1 hhcurveto
          endchar
        </CharString>
        <CharString name="dotlessj">
          -315 275 467 rmoveto
          12 -11 -13 callsubr
          -6 -30 callsubr
          -13 -13 -11 -14 -13 10 -11 -57 callgsubr
          2 -60 callgsubr
          -382 vlineto
          -63 4 -174 -104 -52 -32 68 38 -1 vhcurveto
          -64 callsubr
          -15 -11 -12 -14 -99 80 -67 99 152 66 131 154 10 vhcurveto
          5 83 2 83 71 109 -4 80 1 vvcurveto
          endchar
        </CharString>
        <CharString name="e">
          -104 callgsubr
          endchar
        </CharString>
        <CharString name="eacute">
          -104 callgsubr
          30 548 -91 callsubr
          endchar
        </CharString>
        <CharString name="ebreve">
          -104 callgsubr
          -58 496 -103 callsubr
        </CharString>
        <CharString name="ecaron">
          -104 callgsubr
          -43 565 rmoveto
          -122 hlineto
          -7 -7 -3 -6 -5 hvcurveto
          -96 -111 -74 109 rlineto
          -55 callsubr
          -15 -11 -13 -13 -5 1 -5 3 -4 hvcurveto
          151 -220 rlineto
          -7 4 8 -4 8 hhcurveto
          9 7 3 6 5 hvcurveto
          182 220 rlineto
          4 -43 callgsubr
          15 -14 11 -12 vhcurveto
          endchar
        </CharString>
        <CharString name="ecircumflex">
          -104 callgsubr
          -65 291 -107 callsubr
        </CharString>
        <CharString name="edieresis">
          -104 callgsubr
          -273 361 -99 callsubr
        </CharString>
        <CharString name="edotaccent">
          -104 callgsubr
          -159 371 -85 callsubr
        </CharString>
        <CharString name="egrave">
          -104 callgsubr
          -486 548 rmoveto
          -102 callsubr
        </CharString>
        <CharString name="eight">
          -88 363 165 rmoveto
          -58 -31 -63 -89 -84 -59 77 83 58 33 47 59 15 vhcurveto
          27 -18 31 -17 36 -18 rrcurveto
          57 -27 20 -20 -59 vvcurveto
          65 377 rmoveto
          -51 -35 -42 -36 -26 vhcurveto
          -68 34 -88 45 79 vvcurveto
          56 41 30 58 69 59 -57 -68 vhcurveto
          102 -338 rmoveto
          107 -62 48 -62 37 vhcurveto
          46 40 27 53 53 vvcurveto
          95 -82 81 -97 -103 -119 -70 -133 -60 20 -49 47 -44 vhcurveto
          -46 -23 -50 -39 -96 vvcurveto
          -115 72 -110 157 146 106 94 131 vhcurveto
          endchar
        </CharString>
        <CharString name="ellipsis">
          70 197 6 callgsubr
          244 hmoveto
          -90 callsubr
          244 hmoveto
          -30 callgsubr
        </CharString>
        <CharString name="emacron">
          -104 callgsubr
          -73 414 rmoveto
          15 -11 11 -14 vhcurveto
          -293 hlineto
          -14 -11 -11 -15 hvcurveto
          -94 vlineto
          -14 -1 callsubr
          293 -28 callgsubr
          hvcurveto
          endchar
        </CharString>
        <CharString name="emdash">
          76 669 -32 callsubr
          -127 -6 -63 hhcurveto
          -60 -129 6 11 -84 hvcurveto
          -78 callgsubr
          -10 71 137 -5 70 hhcurveto
          71 136 5 13 callsubr
          endchar
        </CharString>
        <CharString name="endash">
          -228 367 -61 callgsubr
          -40 -13 -40 -2 -36 1 -55 1 -47 10 -24 3 rrcurveto
          -80 callsubr
          -9 13 -3 hvcurveto
          -11 44 39 -5 45 hhcurveto
          43 50 6 10 35 hvcurveto
          8 callsubr
        </CharString>
        <CharString name="eng">
          -1 580 216 rmoveto
          95 0 174 -139 -66 -53 -29 -55 -38 vhcurveto
          50 vlineto
          -44 callsubr
          -2 -40 callsubr
          -6 -25 -31 -1 -31 -62 -61 7 -1 hhcurveto
          1 -89 callgsubr
          -12 -14 -10 -16 -13 -42 callsubr
          -1 hvcurveto
          3 -1 31 -4 41 -2 rrcurveto
          -373 vlineto
          -22 -2 -22 -3 -24 -5 rrcurveto
          -12 -75 callgsubr
          -13 15 -20 callsubr
          9 50 45 4 40 hhcurveto
          45 40 -5 -4 39 hvcurveto
          -1 21 callgsubr
          12 14 -10 callgsubr
          1 hvcurveto
          -11 2 -11 1 -12 1 1 215 rcurveline
          1 vlineto
          75 67 99 90 81 7 -103 -115 -216 -29 -202 -159 -64 -57 48 66 14 -12 11 -14 -14 -12 -11 -14 vhcurveto
          -94 2 74 -72 97 hhcurveto
          213 26 300 170 hvcurveto
          endchar
        </CharString>
        <CharString name="eogonek">
          -102 524 -166 -92 callsubr
          43 25 26 37 25 hvcurveto
          28 11 26 15 14 22 rrcurveto
          -52 callsubr
          -162 -102 -95 -166 -146 113 -115 149 -7 hvcurveto
          -38 -35 -29 -45 -52 -65 callgsubr
          -50 424 rmoveto
          -19 -42 -49 -11 -55 hhcurveto
          -52 -44 11 6 -21 hvcurveto
          3 76 18 117 103 12 rrcurveto
          99 -14 40 -72 -98 vvcurveto
          endchar
        </CharString>
        <CharString name="equal">
          -24 553 434 rmoveto
          -64 callsubr
          vhcurveto
          -1 -2 -74 callsubr
          -10 -67 -69 -5 -68 hhcurveto
          -68 -69 5 10 -68 hvcurveto
          -89 callgsubr
          -15 -11 -12 -14 -12 -79 callgsubr
          -10 70 71 -5 71 hhcurveto
          71 70 5 10 70 hvcurveto
          -55 callgsubr
          -190 vmoveto
          -64 callsubr
          vhcurveto
          -1 -2 -74 callsubr
          -10 -68 -69 -5 -68 hhcurveto
          -68 -68 5 10 -68 hvcurveto
          -89 callgsubr
          -15 -11 -12 -14 -12 -79 callgsubr
          -10 70 70 -5 71 hhcurveto
          71 71 5 10 70 hvcurveto
          -55 callgsubr
          endchar
        </CharString>
        <CharString name="eth">
          -57 394 -22 callsubr
          177 325 rmoveto
          -79 callsubr
          -1 -2 -19 callgsubr
          -29 -6 -28 -3 -35 -4 -14 17 -14 14 -13 12 rrcurveto
          68 -79 -78 11 12 callgsubr
          -1 31 -22 34 -49 vhcurveto
          -52 4 -36 5 0 vvcurveto
          1 -1 -2 -74 callsubr
          -12 -14 -12 -14 -12 -79 callgsubr
          2 -1 54 -8 72 -3 12 -24 12 -27 10 -31 -16 callgsubr
          100 -27 99 -54 91 hvcurveto
          24 2 23 4 21 4 rrcurveto
          12 3 9 10 12 vvcurveto
          endchar
        </CharString>
        <CharString name="exclam">
          -380 217 6 callgsubr
          11 574 rmoveto
          47 -39 38 -47 -47 -38 -38 -47 -83 21 -131 21 -127 vhcurveto
          6 -40 7 -38 5 -35 rrcurveto
          -13 2 11 -9 12 -41 callgsubr
          5 34 6 36 6 38 rrcurveto
          21 129 22 134 83 vvcurveto
          endchar
        </CharString>
        <CharString name="exclamdown">
          -395 60 467 rmoveto
          -41 33 -33 42 41 34 33 41 42 -34 33 -41 -42 -33 -33 -42 vhcurveto
          -11 -574 rmoveto
          -47 39 -38 47 47 38 38 47 83 -21 131 -21 127 vhcurveto
          -6 40 -7 38 -5 35 rrcurveto
          13 -2 -11 9 -12 hhcurveto
          -13 11 callgsubr
          hvcurveto
          -5 -34 -6 -36 -6 -38 rrcurveto
          -21 -129 -22 -134 -83 vvcurveto
          endchar
        </CharString>
        <CharString name="f">
          -228 546 569 rmoveto
          89 3 -74 90 -121 hhcurveto
          -140 -84 -101 -143 hvcurveto
          -18 vlineto
          -27 1 -28 0 -27 2 rrcurveto
          -1 -8 callsubr
          hvcurveto
          -84 callgsubr
          28 28 1 2 28 hvcurveto
          14 11 11 15 hvcurveto
          14 -1 -11 11 -14 hhcurveto
          -8 callsubr
          -1 vhcurveto
          24 callgsubr
          11 128 91 58 28 -60 -52 4 vhcurveto
          -14 1 11 -11 14 hhcurveto
          14 12 11 14 1 -8 callsubr
          hvcurveto
          endchar
        </CharString>
        <CharString name="fi">
          118 751 -12 rmoveto
          -86 callgsubr
          1 406 rcurveline
          -69 callgsubr
          -15 vhcurveto
          -6 -30 -31 -2 -31 hhcurveto
          2 -93 -87 11 -87 hhcurveto
          3 vlineto
          63 1 151 132 43 38 -8 -12 30 vhcurveto
          -28 -14 -19 -30 -33 vvcurveto
          -48 39 -39 48 46 41 36 46 98 -122 49 -118 -192 -111 -13 callgsubr
          hlineto
          -84 callgsubr
          26 141 -11 44 hhcurveto
          -374 -21 callsubr
          -13 15 vhcurveto
          2 1 1 -44 callgsubr
          -1 1 hhcurveto
          endchar
        </CharString>
        <CharString name="five">
          -67 556 249 rmoveto
          153 -96 111 -155 -72 -56 -19 -21 -40 vhcurveto
          17 50 21 60 18 73 rrcurveto
          -4 34 39 -2 37 89 82 8 6 hhcurveto
          13 2 10 11 13 -80 callgsubr
          vhcurveto
          -1 0 -74 callsubr
          -1 -2 -83 -7 -88 hhcurveto
          -43 -45 2 5 -37 hvcurveto
          1 -1 -33 callgsubr
          -11 -11 -8 -12 -3 hvcurveto
          -33 -145 -52 -129 -1 -1 rrcurveto
          -1 -3 0 -3 -3 vvcurveto
          -13 11 -13 14 7 7 3 5 5 vhcurveto
          23 12 62 25 41 hhcurveto
          106 59 -71 -116 -115 -50 -96 -105 -83 -58 87 64 8 1 8 1 4 hvcurveto
          1 0 1 2 vvcurveto
          11 -11 14 -15 -13 -11 -9 -13 -1 vhcurveto
          -1 -10 -1 -10 -9 vvcurveto
          -127 111 -78 122 171 114 96 171 vhcurveto
          endchar
        </CharString>
        <CharString name="fl">
          118 732 -6 rmoveto
          -33 callsubr
          12 -9 10 -12 3 hvcurveto
          -23 4 -1 -1 -22 3 rrcurveto
          1 569 -1 100 2 vvcurveto
          17 -12 9 -18 vhcurveto
          0 -156 0 -69 -201 -105 -13 callgsubr
          hlineto
          -84 callgsubr
          28 28 1 2 28 hvcurveto
          14 11 11 15 hvcurveto
          14 -1 -11 11 -14 hhcurveto
          -1 hlineto
          24 callgsubr
          17 149 121 28 50 0 0 vhcurveto
          -650 vlineto
          -22 -2 -22 -4 -24 -4 -26 callsubr
          -10 6 callsubr
          9 -12 16 vhcurveto
          5 hlineto
          10 52 45 5 46 hhcurveto
          46 26 -1 -3 callgsubr
          endchar
        </CharString>
        <CharString name="four">
          -55 546 -11 rmoveto
          -86 callgsubr
          rrcurveto
          172 vlineto
          16 1 15 2 16 2 -46 callsubr
          -58 callgsubr
          0 -27 -3 -17 -2 vhcurveto
          420 vlineto
          -45 callsubr
          -5 -6 -2 -3 -4 vhcurveto
          -38 -56 -56 -12 -1 hhcurveto
          -4 -2 -16 -5 -18 vvcurveto
          -375 vlineto
          -9 -8 0 -8 hhcurveto
          -66 -66 3 6 -66 hvcurveto
          79 122 17 115 78 vvcurveto
          60 -10 39 -1 3 vhcurveto
          12 -3 -10 7 -11 hhcurveto
          -14 -12 -11 -15 -2 0 -2 1 -3 hvcurveto
          0 9 -33 -54 vvcurveto
          -77 -19 -120 -92 -125 vhcurveto
          -3 -4 -2 -6 -5 vvcurveto
          -13 10 -10 13 -2 vhcurveto
          -10 82 82 -5 82 8 9 1 8 hhcurveto
          -164 9 callgsubr
          -4 rrcurveto
          -12 -54 callsubr
          -13 14 -20 callsubr
          -83 callgsubr
          -1 2 2 -42 callgsubr
          endchar
        </CharString>
        <CharString name="fraction">
          -248 424 707 rmoveto
          -44 callsubr
          -3 hlineto
          -10 -9 -6 -10 -5 hvcurveto
          -97 -220 -125 -228 -160 -249 rrcurveto
          -3 -5 -1 -4 -68 callgsubr
          7 7 4 6 6 vhcurveto
          190 300 66 123 133 280 rrcurveto
          3 5 1 4 5 vvcurveto
          endchar
        </CharString>
        <CharString name="g">
          -1 409 275 rmoveto
          -80 -66 -157 -104 -95 -51 89 95 -1 vhcurveto
          128 53 108 131 vhcurveto
          99 -4 27 -64 6 -16 rrcurveto
          1 -29 0 -33 -37 vvcurveto
          233 198 rmoveto
          -79 callsubr
          -1 -29 callsubr
          -4 -22 -35 -1 -33 -46 -44 3 -1 hhcurveto
          24 callsubr
          -13 -13 -12 -14 -1 -8 callsubr
          vhcurveto
          1 -5 -29 24 -41 19 -57 2 rlinecurve
          -159 -78 -131 -157 hvcurveto
          -125 2 72 -109 125 hhcurveto
          74 63 47 61 30 hvcurveto
          -212 -9 -33 -91 -70 hhcurveto
          -73 -68 49 80 -64 callsubr
          -15 -11 -12 -14 hvcurveto
          -8 callsubr
          -1 vvcurveto
          -102 83 -77 110 160 106 140 159 10 vhcurveto
          7 109 2 109 80 48 -1 37 20 vvcurveto
          15 1 14 2 12 2 rrcurveto
          12 2 9 -39 callsubr
          endchar
        </CharString>
        <CharString name="gbreve">
          -1 409 275 rmoveto
          -80 -66 -157 -104 -95 -51 89 95 -1 vhcurveto
          128 53 108 131 vhcurveto
          99 -4 27 -64 6 -16 rrcurveto
          1 -29 0 -33 -37 vvcurveto
          233 198 rmoveto
          -79 callsubr
          -1 -29 callsubr
          -4 -22 -35 -1 -33 -46 -44 3 -1 hhcurveto
          24 callsubr
          -13 -13 -12 -14 -1 -8 callsubr
          vhcurveto
          1 -5 -29 24 -41 19 -57 2 rlinecurve
          -159 -78 -131 -157 hvcurveto
          -125 2 72 -109 125 hhcurveto
          74 63 47 61 30 hvcurveto
          -212 -9 -33 -91 -70 hhcurveto
          -73 -68 49 80 -64 callsubr
          -15 -11 -12 -14 hvcurveto
          -8 callsubr
          -1 vvcurveto
          -102 83 -77 110 160 106 140 159 10 vhcurveto
          7 109 2 109 80 48 -1 37 20 vvcurveto
          15 1 14 2 12 2 rrcurveto
          12 2 9 -39 callsubr
          -195 271 -103 callsubr
        </CharString>
        <CharString name="gcircumflex">
          -1 409 275 rmoveto
          -80 -66 -157 -104 -95 -51 89 95 -1 vhcurveto
          128 53 108 131 vhcurveto
          99 -4 27 -64 6 -16 rrcurveto
          1 -29 0 -33 -37 vvcurveto
          233 198 rmoveto
          -79 callsubr
          -1 -29 callsubr
          -4 -22 -35 -1 -33 -46 -44 3 -1 hhcurveto
          24 callsubr
          -13 -13 -12 -14 -1 -8 callsubr
          vhcurveto
          1 -5 -29 24 -41 19 -57 2 rlinecurve
          -159 -78 -131 -157 hvcurveto
          -125 2 72 -109 125 hhcurveto
          74 63 47 61 30 hvcurveto
          -212 -9 -33 -91 -70 hhcurveto
          -73 -68 49 80 -64 callsubr
          -15 -11 -12 -14 hvcurveto
          -8 callsubr
          -1 vvcurveto
          -102 83 -77 110 160 106 140 159 10 vhcurveto
          7 109 2 109 80 48 -1 37 20 vvcurveto
          15 1 14 2 12 2 rrcurveto
          12 2 9 -39 callsubr
          -146 57 -107 callsubr
        </CharString>
        <CharString name="gcommaaccent">
          -1 409 275 rmoveto
          -80 -66 -157 -104 -95 -51 89 95 -1 vhcurveto
          128 53 108 131 vhcurveto
          99 -4 27 -64 6 -16 rrcurveto
          1 -29 0 -33 -37 vvcurveto
          233 198 rmoveto
          -79 callsubr
          -1 -29 callsubr
          -4 -22 -35 -1 -33 -46 -44 3 -1 hhcurveto
          24 callsubr
          -13 -13 -12 -14 -1 -8 callsubr
          vhcurveto
          1 -5 -29 24 -41 19 -57 2 rlinecurve
          -159 -78 -131 -157 hvcurveto
          -125 2 72 -109 125 hhcurveto
          74 63 47 61 30 hvcurveto
          -212 -9 -33 -91 -70 hhcurveto
          -73 -68 49 80 -64 callsubr
          -15 -11 -12 -14 hvcurveto
          -8 callsubr
          -1 vvcurveto
          -102 83 -77 110 160 106 140 159 10 vhcurveto
          7 109 2 109 80 48 -1 37 20 vvcurveto
          15 1 14 2 12 2 rrcurveto
          12 2 9 -39 callsubr
          -452 161 rmoveto
          -90 callgsubr
          endchar
        </CharString>
        <CharString name="gdotaccent">
          -1 409 275 rmoveto
          -80 -66 -157 -104 -95 -51 89 95 -1 vhcurveto
          128 53 108 131 vhcurveto
          99 -4 27 -64 6 -16 rrcurveto
          1 -29 0 -33 -37 vvcurveto
          233 198 rmoveto
          -79 callsubr
          -1 -29 callsubr
          -4 -22 -35 -1 -33 -46 -44 3 -1 hhcurveto
          24 callsubr
          -13 -13 -12 -14 -1 -8 callsubr
          vhcurveto
          1 -5 -29 24 -41 19 -57 2 rlinecurve
          -159 -78 -131 -157 hvcurveto
          -125 2 72 -109 125 hhcurveto
          74 63 47 61 30 hvcurveto
          -212 -9 -33 -91 -70 hhcurveto
          -73 -68 49 80 -64 callsubr
          -15 -11 -12 -14 hvcurveto
          -8 callsubr
          -1 vvcurveto
          -102 83 -77 110 160 106 140 159 10 vhcurveto
          7 109 2 109 80 48 -1 37 20 vvcurveto
          15 1 14 2 12 2 rrcurveto
          12 2 9 -39 callsubr
          -291 141 -85 callsubr
        </CharString>
        <CharString name="germandbls">
          199 845 145 rmoveto
          108 -114 33 -88 19 vhcurveto
          -46 10 -116 11 69 vvcurveto
          14 5 14 9 13 vhcurveto
          26 27 25 38 68 vvcurveto
          93 -81 86 -111 -140 -84 -13 callgsubr
          -8 callsubr
          hvcurveto
          7 callgsubr
          -25 -2 -26 -4 -25 -5 rrcurveto
          -13 -67 callgsubr
          11 -13 15 vhcurveto
          1 11 callsubr
          15 77 81 2 35 6 12 -42 callgsubr
          13 13 10 15 hvcurveto
          448 vlineto
          63 11 128 91 55 35 -60 -52 -67 -28 -24 -32 -27 vhcurveto
          -39 -35 -30 -40 -57 vvcurveto
          -114 118 -49 112 -12 vhcurveto
          28 -3 122 -15 -45 vvcurveto
          -32 -70 -19 -47 -70 -128 47 45 -15 vhcurveto
          1 18 1 12 1 0 -17 callgsubr
          -56 callsubr
          -14 -14 -11 -10 -14 -1 vhcurveto
          -2 -5 -49 -49 vvcurveto
          -13 0 -14 1 -12 vhcurveto
          -14 1 12 -10 13 hhcurveto
          14 11 11 15 1 hvcurveto
          0 -17 callgsubr
          -1 9 -1 11 11 vvcurveto
          -48 43 101 -26 72 hhcurveto
          104 113 63 104 hvcurveto
          endchar
        </CharString>
        <CharString name="grave">
          -352 816 vmoveto
          -102 callsubr
        </CharString>
        <CharString name="greater">
          -256 357 334 rmoveto
          6 5 6 8 9 vvcurveto
          8 -4 8 -7 4 vhcurveto
          -119 89 -129 184 -1 2 rrcurveto
          -55 callsubr
          -13 -13 -11 -15 -5 2 -5 3 -4 hvcurveto
          3 -5 52 -73 68 -77 rrcurveto
          -204 vlineto
          -69 -67 -50 -64 -3 -4 rrcurveto
          -4 -5 -2 -5 -6 vvcurveto
          -13 -38 callgsubr
          8 7 3 7 5 vhcurveto
          1 1 126 160 122 76 rrcurveto
          endchar
        </CharString>
        <CharString name="guillemotleft">
          -72 535 440 rmoveto
          -50 callsubr
          -8 -8 vvcurveto
          -7 3 -8 9 -7 vhcurveto
          83 -52 85 -92 44 -50 rrcurveto
          -6 5 7 -3 7 21 callsubr
          6 -2 6 -4 5 hvcurveto
          -21 23 -29 33 -34 33 rrcurveto
          204 vlineto
          34 39 30 37 21 27 rrcurveto
          -240 hmoveto
          -50 callsubr
          -8 -8 vvcurveto
          -7 3 -8 9 -7 vhcurveto
          83 -52 85 -92 44 -50 rrcurveto
          -6 5 7 -3 7 21 callsubr
          6 -2 6 -4 5 hvcurveto
          -21 23 -29 33 -34 33 rrcurveto
          204 vlineto
          34 39 30 37 21 27 rrcurveto
          endchar
        </CharString>
        <CharString name="guillemotright">
          -72 307 204 rmoveto
          -82 callgsubr
          240 hmoveto
          -82 callgsubr
          endchar
        </CharString>
        <CharString name="guilsinglleft">
          -312 295 440 rmoveto
          -50 callsubr
          -16 -1 vvcurveto
          -9 5 -7 7 -5 vhcurveto
          83 -52 85 -92 44 -50 rrcurveto
          -6 5 7 -3 7 21 callsubr
          6 -2 6 -4 5 hvcurveto
          -21 23 -29 33 -34 33 rrcurveto
          204 vlineto
          34 39 30 37 21 27 rrcurveto
          endchar
        </CharString>
        <CharString name="guilsinglright">
          -312 307 204 rmoveto
          -82 callgsubr
          endchar
        </CharString>
        <CharString name="h">
          17 633 8 rmoveto
          -47 callsubr
          -10 callgsubr
          1 hvcurveto
          3 -19 -20 2 -20 hhcurveto
          17 81 9 70 58 vvcurveto
          131 -45 105 -135 -63 -52 -29 -57 -37 vhcurveto
          248 vlineto
          -69 callgsubr
          -15 vhcurveto
          -2 -2 -74 callsubr
          -6 -30 callsubr
          12 callsubr
          -582 -21 callsubr
          -12 15 vhcurveto
          -20 callgsubr
          52 47 5 46 hhcurveto
          47 47 -41 callsubr
          2 2 -42 callgsubr
          13 13 10 15 12 -9 11 -12 2 hvcurveto
          -24 5 -23 4 -23 2 1 218 rcurveline
          76 64 107 88 104 25 -83 -101 -58 -9 -70 -18 -83 vhcurveto
          -24 -1 -23 -3 -23 -5 rrcurveto
          -12 -2 -9 -11 -12 -88 callgsubr
          1 2 -7 callsubr
          vhcurveto
          6 33 33 3 33 hhcurveto
          22 22 -1 -3 23 hvcurveto
          -1 -81 callgsubr
          hhcurveto
          endchar
        </CharString>
        <CharString name="hbar">
          17 633 8 rmoveto
          -47 callsubr
          -10 callgsubr
          1 hvcurveto
          3 -19 -20 2 -20 hhcurveto
          17 81 9 70 58 vvcurveto
          131 -45 105 -135 -63 -52 -29 -57 -37 vhcurveto
          96 vlineto
          23 2 22 4 16 5 rrcurveto
          19 callgsubr
          -76 callgsubr
          -16 -5 -19 -4 -19 -2 rrcurveto
          102 vlineto
          -69 callgsubr
          -15 vhcurveto
          -5 hlineto
          -6 -59 callsubr
          -61 8 -1 hhcurveto
          -3 hlineto
          12 callsubr
          -67 vlineto
          -28 3 -25 3 -11 2 rrcurveto
          -80 callsubr
          -9 13 -3 hvcurveto
          20 -5 25 -4 26 -3 rrcurveto
          -461 -21 callsubr
          -12 15 vhcurveto
          5 hlineto
          10 52 47 5 46 hhcurveto
          47 47 -41 callsubr
          5 hlineto
          13 13 10 15 12 -9 11 -12 2 hvcurveto
          -24 5 -23 4 -23 2 1 218 rcurveline
          76 64 107 88 104 25 -83 -101 -58 -9 -70 -18 -83 vhcurveto
          -24 -1 -23 -3 -23 -5 rrcurveto
          -12 -2 -9 -11 -12 -88 callgsubr
          1 2 -7 callsubr
          vhcurveto
          6 33 33 3 33 hhcurveto
          22 22 -1 -3 23 hvcurveto
          -1 -81 callgsubr
          hhcurveto
          endchar
        </CharString>
        <CharString name="hcircumflex">
          17 633 8 rmoveto
          -47 callsubr
          -10 callgsubr
          1 hvcurveto
          3 -19 -20 2 -20 hhcurveto
          17 81 9 70 58 vvcurveto
          131 -45 105 -135 -63 -52 -29 -57 -37 vhcurveto
          248 vlineto
          -69 callgsubr
          -15 vhcurveto
          -2 -2 -74 callsubr
          -6 -30 callsubr
          12 callsubr
          -582 -21 callsubr
          -12 15 vhcurveto
          -20 callgsubr
          52 47 5 46 hhcurveto
          47 47 -41 callsubr
          2 2 -42 callgsubr
          13 13 10 15 12 -9 11 -12 2 hvcurveto
          -24 5 -23 4 -23 2 1 218 rcurveline
          76 64 107 88 104 25 -83 -101 -58 -9 -70 -18 -83 vhcurveto
          -24 -1 -23 -3 -23 -5 rrcurveto
          -12 -2 -9 -11 -12 -88 callgsubr
          1 2 -7 callsubr
          vhcurveto
          6 33 33 3 33 hhcurveto
          22 22 -1 -3 23 hvcurveto
          -1 -81 callgsubr
          hhcurveto
          -35 534 rmoveto
          11 12 9 14 5 -2 4 -3 5 hvcurveto
          -160 193 rlineto
          5 -4 -7 3 -7 hhcurveto
          -7 -7 -4 -6 -4 hvcurveto
          -132 -193 rlineto
          -3 -4 -1 -4 -4 vvcurveto
          -12 10 -11 13 7 7 3 6 4 vhcurveto
          65 96 84 -97 rlineto
          -6 5 6 -2 6 hhcurveto
          endchar
        </CharString>
        <CharString name="hungarumlaut">
          -122 310 816 -95 callgsubr
        </CharString>
        <CharString name="hyphen">
          -59 535 366 rmoveto
          -52 callgsubr
          endchar
        </CharString>
        <CharString name="i">
          -275 354 -12 rmoveto
          -86 callgsubr
          1 406 rcurveline
          -69 callgsubr
          -15 vhcurveto
          -2 -2 -74 callsubr
          -6 -30 callsubr
          12 callsubr
          -374 -21 callsubr
          -13 15 vhcurveto
          2 1 1 -44 callgsubr
          -1 1 hhcurveto
          -71 642 -27 callgsubr
          endchar
        </CharString>
        <CharString name="iacute">
          -275 354 -12 rmoveto
          -86 callgsubr
          1 406 rcurveline
          -69 callgsubr
          -15 vhcurveto
          -2 -2 -74 callsubr
          -6 -30 callsubr
          12 callsubr
          -374 -21 callsubr
          -13 15 vhcurveto
          2 1 1 -44 callgsubr
          -1 1 hhcurveto
          138 771 -91 callsubr
          endchar
        </CharString>
        <CharString name="ibreve">
          -275 354 -12 rmoveto
          -86 callgsubr
          1 406 rcurveline
          -69 callgsubr
          -15 vhcurveto
          -2 -2 -74 callsubr
          -6 -30 callsubr
          12 callsubr
          -374 -21 callsubr
          -13 15 vhcurveto
          2 1 1 -44 callgsubr
          -1 1 hhcurveto
          6 720 -103 callsubr
        </CharString>
        <CharString name="icircumflex">
          -266 354 -12 rmoveto
          -86 callgsubr
          1 406 rcurveline
          -69 callgsubr
          -15 vhcurveto
          -2 -2 -74 callsubr
          -6 -30 callsubr
          12 callsubr
          -374 -21 callsubr
          -13 15 vhcurveto
          2 1 1 -44 callgsubr
          -1 1 hhcurveto
          12 528 -107 callsubr
        </CharString>
        <CharString name="idieresis">
          -275 354 -12 rmoveto
          -86 callgsubr
          1 406 rcurveline
          -69 callgsubr
          -15 vhcurveto
          -2 -2 -74 callsubr
          -6 -30 callsubr
          12 callsubr
          -374 -21 callsubr
          -13 15 vhcurveto
          2 1 1 -44 callgsubr
          -1 1 hhcurveto
          -186 608 -99 callsubr
        </CharString>
        <CharString name="igrave">
          -275 354 -12 rmoveto
          -86 callgsubr
          1 406 rcurveline
          -69 callgsubr
          -15 vhcurveto
          -2 -2 -74 callsubr
          -6 -30 callsubr
          12 callsubr
          -374 -21 callsubr
          -13 15 vhcurveto
          2 1 1 -44 callgsubr
          -1 1 hhcurveto
          -445 770 rmoveto
          -102 callsubr
        </CharString>
        <CharString name="ij">
          72 354 -12 rmoveto
          -86 callgsubr
          1 406 rcurveline
          -69 callgsubr
          -15 vhcurveto
          -2 -2 -74 callsubr
          -6 -30 callsubr
          12 callsubr
          -374 -21 callsubr
          -13 15 vhcurveto
          2 1 1 -44 callgsubr
          -1 1 hhcurveto
          -71 642 -27 callgsubr
          379 -163 rmoveto
          12 -11 -13 callsubr
          -6 -30 callsubr
          -13 -13 -11 -14 -13 10 -11 -57 callgsubr
          2 -60 callgsubr
          -382 vlineto
          -63 4 -174 -104 -52 -32 68 38 -1 vhcurveto
          -64 callsubr
          -15 -11 -12 -14 -99 80 -67 99 152 66 131 154 10 vhcurveto
          5 83 2 83 71 109 -4 80 1 vvcurveto
          -6 173 rmoveto
          0 callgsubr
          -49 -39 -39 -48 -48 39 -39 49 48 39 39 48 vhcurveto
          endchar
        </CharString>
        <CharString name="imacron">
          -275 354 -12 rmoveto
          -86 callgsubr
          1 406 rcurveline
          -69 callgsubr
          -15 vhcurveto
          -2 -2 -74 callsubr
          -6 -30 callsubr
          12 callsubr
          -374 -21 callsubr
          -13 15 vhcurveto
          2 1 1 -44 callgsubr
          -1 1 hhcurveto
          11 644 rmoveto
          15 -11 11 -14 vhcurveto
          -293 hlineto
          -14 -11 -11 -15 hvcurveto
          -94 vlineto
          -14 -1 callsubr
          293 -28 callgsubr
          hvcurveto
          endchar
        </CharString>
        <CharString name="infinity">
          128 326 292 rmoveto
          -20 -27 -41 -25 -41 hhcurveto
          -40 -65 25 50 36 34 10 34 59 43 -41 -35 44 hvcurveto
          353 77 rmoveto
          -34 -24 -22 -40 -33 -46 29 34 -49 vhcurveto
          23 27 43 30 39 hhcurveto
          51 32 -23 -37 hvcurveto
          -102 -192 rmoveto
          83 83 62 91 83 -58 67 -89 -64 -61 -49 -25 -26 hvcurveto
          1 vlineto
          55 -74 -78 56 -69 hhcurveto
          -106 -71 -67 -99 -83 79 -73 91 65 58 41 23 28 hvcurveto
          6 -4 6 -5 6 -4 rrcurveto
          -46 71 64 -24 56 hhcurveto
          endchar
        </CharString>
        <CharString name="iogonek">
          -275 337 -150 -92 callsubr
          40 21 26 35 22 hvcurveto
          39 -1 39 -5 43 -8 rrcurveto
          2 2 -1 1 hhcurveto
          -86 callgsubr
          1 406 rcurveline
          -69 callgsubr
          -15 vhcurveto
          -5 hlineto
          -6 -59 callsubr
          -61 8 -1 hhcurveto
          -3 hlineto
          12 callsubr
          -374 -21 callsubr
          -13 15 vhcurveto
          -51 callgsubr
          hhcurveto
          24 5 23 4 22 2 rrcurveto
          -44 -36 -35 -48 -58 -65 callgsubr
          -54 780 -27 callgsubr
          -51 hmoveto
          -20 -16 -16 -20 -20 -16 16 20 20 16 16 20 20 16 -16 -20 vhcurveto
          endchar
        </CharString>
        <CharString name="itilde">
          -275 354 -12 rmoveto
          -86 callgsubr
          1 406 rcurveline
          -69 callgsubr
          -15 vhcurveto
          -2 -2 -74 callsubr
          -6 -30 callsubr
          12 callsubr
          -374 -21 callsubr
          -13 15 vhcurveto
          2 1 1 -44 callgsubr
          -1 1 hhcurveto
          29 665 -105 callsubr
        </CharString>
        <CharString name="j">
          -315 275 467 rmoveto
          12 -11 -13 callsubr
          -6 -30 callsubr
          -13 -13 -11 -14 -13 10 -11 -57 callgsubr
          2 -60 callgsubr
          -382 vlineto
          -63 4 -174 -104 -52 -32 68 38 -1 vhcurveto
          -64 callsubr
          -15 -11 -12 -14 -99 80 -67 99 152 66 131 154 10 vhcurveto
          5 83 2 83 71 109 -4 80 1 vvcurveto
          -6 173 rmoveto
          0 callgsubr
          -49 -39 -39 -48 -48 39 -39 49 48 39 39 48 vhcurveto
          endchar
        </CharString>
        <CharString name="jcircumflex">
          -315 275 467 rmoveto
          12 -11 -13 callsubr
          -6 -30 callsubr
          -13 -13 -11 -14 -13 10 -11 -57 callgsubr
          2 -60 callgsubr
          -382 vlineto
          -63 4 -174 -104 -52 -32 68 38 -1 vhcurveto
          -64 callsubr
          -15 -11 -12 -14 -99 80 -67 99 152 66 131 154 10 vhcurveto
          5 83 2 83 71 109 -4 80 1 vvcurveto
          65 58 -107 callsubr
        </CharString>
        <CharString name="k">
          28 501 -6 rmoveto
          103 43 74 95 46 -9 38 -1 4 hvcurveto
          12 -2 -11 8 -12 hhcurveto
          -13 -9 callgsubr
          hvcurveto
          -2 0 -2 -2 vvcurveto
          1 7 -37 -41 -17 3 -52 -30 -35 -46 87 107 -37 hvcurveto
          38 32 36 47 24 66 26 4 26 7 23 11 rrcurveto
          10 4 5 9 10 vvcurveto
          -81 callsubr
          -3 -4 -1 -2 -3 vhcurveto
          -17 -37 -48 -4 -37 -32 -24 3 -1 -89 callgsubr
          -11 -15 -9 -16 -13 -79 callgsubr
          3 25 -3 36 3 4 0 4 hhcurveto
          -45 -99 -75 -51 -102 -20 rrcurveto
          417 vlineto
          -69 callgsubr
          -15 vhcurveto
          -2 -2 -74 callsubr
          -6 -30 callsubr
          12 callsubr
          -592 vlineto
          -19 -2 -20 -3 -20 -4 -7 callgsubr
          -9 -10 -12 -88 callgsubr
          vhcurveto
          4 callsubr
          9 45 41 3 38 hhcurveto
          52 45 -6 -6 41 hvcurveto
          1 2 -42 callgsubr
          11 14 -6 callsubr
          11 -12 2 hvcurveto
          -15 2 -16 2 -17 2 rrcurveto
          159 vlineto
          8 1 8 1 9 2 rrcurveto
          -95 28 64 -121 116 hhcurveto
          endchar
        </CharString>
        <CharString name="kcommaaccent">
          28 501 -6 rmoveto
          103 43 74 95 46 -9 38 -1 4 hvcurveto
          12 -2 -11 8 -12 hhcurveto
          -13 -9 callgsubr
          hvcurveto
          -2 0 -2 -2 vvcurveto
          1 7 -37 -41 -17 3 -52 -30 -35 -46 87 107 -37 hvcurveto
          38 32 36 47 24 66 26 4 26 7 23 11 rrcurveto
          10 4 5 9 10 vvcurveto
          -81 callsubr
          -3 -4 -1 -2 -3 vhcurveto
          -17 -37 -48 -4 -37 -32 -24 3 -1 -89 callgsubr
          -11 -15 -9 -16 -13 -79 callgsubr
          3 25 -3 36 3 4 0 4 hhcurveto
          -45 -99 -75 -51 -102 -20 rrcurveto
          417 vlineto
          -69 callgsubr
          -15 vhcurveto
          -2 -2 -74 callsubr
          -6 -30 callsubr
          12 callsubr
          -592 vlineto
          -19 -2 -20 -3 -20 -4 -7 callgsubr
          -9 -10 -12 -88 callgsubr
          vhcurveto
          4 callsubr
          9 45 41 3 38 hhcurveto
          52 45 -6 -6 41 hvcurveto
          1 2 -42 callgsubr
          11 14 -6 callsubr
          11 -12 2 hvcurveto
          -15 2 -16 2 -17 2 rrcurveto
          159 vlineto
          8 1 8 1 9 2 rrcurveto
          -95 28 64 -121 116 hhcurveto
          -80 -141 rmoveto
          -48 callgsubr
        </CharString>
        <CharString name="kgreenlandic">
          28 501 -6 rmoveto
          103 43 74 95 46 -9 38 -1 4 hvcurveto
          12 -2 -11 8 -12 hhcurveto
          -13 -9 callgsubr
          hvcurveto
          -2 0 -2 -2 vvcurveto
          1 7 -37 -41 -17 3 -52 -30 -35 -46 87 107 -37 hvcurveto
          38 32 36 47 24 66 26 4 26 7 23 11 rrcurveto
          10 4 5 9 10 vvcurveto
          -81 callsubr
          -3 -4 -1 -2 -3 vhcurveto
          -17 -37 -48 -4 -37 -32 -24 3 -1 -89 callgsubr
          -11 -15 -9 -16 -13 -79 callgsubr
          3 25 -3 36 3 4 0 4 hhcurveto
          -45 -99 -75 -51 -102 -20 rrcurveto
          235 vlineto
          -69 callgsubr
          -15 vhcurveto
          -2 -2 -74 callsubr
          -6 -30 callsubr
          12 callsubr
          -410 vlineto
          -19 -2 -20 -3 -20 -4 -7 callgsubr
          -9 -10 -12 -88 callgsubr
          vhcurveto
          4 callsubr
          9 45 41 3 38 hhcurveto
          52 45 -6 -6 41 hvcurveto
          1 2 -42 callgsubr
          11 14 -6 callsubr
          11 -12 2 hvcurveto
          -15 2 -16 2 -17 2 rrcurveto
          159 vlineto
          8 1 8 1 9 2 rrcurveto
          -95 28 64 -121 116 hhcurveto
          endchar
        </CharString>
        <CharString name="l">
          -303 -97 callsubr
          endchar
        </CharString>
        <CharString name="lacute">
          -303 -97 callsubr
          141 989 -91 callsubr
          endchar
        </CharString>
        <CharString name="lcaron">
          -133 -97 callsubr
          177 637 rmoveto
          -48 callgsubr
        </CharString>
        <CharString name="lcommaaccent">
          -303 -97 callsubr
          -58 -140 rmoveto
          -48 callgsubr
        </CharString>
        <CharString name="ldotaccent">
          -79 -97 callsubr
          216 350 rmoveto
          -30 callgsubr
        </CharString>
        <CharString name="less">
          -257 339 622 rmoveto
          3 4 1 5 5 vvcurveto
          12 -11 14 -14 -9 -10 callsubr
          -4 vhcurveto
          -2 -2 -129 -184 -119 -89 rrcurveto
          -6 -4 -4 -8 -8 vvcurveto
          -7 3 -8 9 -7 vhcurveto
          121 -76 126 -160 1 -1 rrcurveto
          -7 5 8 -3 8 hhcurveto
          13 12 10 15 -14 callgsubr
          -3 5 hvcurveto
          -4 4 -50 64 -68 67 rrcurveto
          204 vlineto
          68 77 51 73 4 5 rrcurveto
          endchar
        </CharString>
        <CharString name="logicalnot">
          -95 494 389 rmoveto
          1 -18 callgsubr
          1 -80 callgsubr
          vhcurveto
          -89 callgsubr
          -8 -65 -65 -4 -66 1 callgsubr
          4 8 -70 -2 callsubr
          -14 -10 -16 -26 callgsubr
          -8 70 70 -4 69 hhcurveto
          18 17 0 1 18 hvcurveto
          -3 -34 -2 -34 -35 vvcurveto
          -43 3 -42 4 -43 vhcurveto
          -13 2 11 -10 13 hhcurveto
          118 hlineto
          12 14 10 15 1 0 1 -1 1 hvcurveto
          -4 42 -1 42 44 vvcurveto
          43 2 44 3 45 vhcurveto
          endchar
        </CharString>
        <CharString name="lslash">
          -295 333 hmoveto
          -33 callsubr
          12 -9 10 -12 3 hvcurveto
          -23 4 -21 3 -22 3 1 301 rcurveline
          23 17 30 26 25 26 rrcurveto
          5 5 3 7 6 vvcurveto
          -81 callsubr
          -7 22 callgsubr
          -12 -13 -14 -13 -15 -14 rrcurveto
          252 vlineto
          -60 callsubr
          -61 -66 callgsubr
          3 31 -4 -3 41 hvcurveto
          -338 vlineto
          -43 -24 -30 -14 0 vvcurveto
          -10 -4 -5 -9 -10 vvcurveto
          -13 9 -13 16 4 3 1 2 4 vhcurveto
          1 20 9 17 31 hvcurveto
          -190 vlineto
          -22 -2 -22 -4 -24 -4 -26 callsubr
          -10 6 callsubr
          9 -12 16 vhcurveto
          -20 callgsubr
          52 45 5 46 hhcurveto
          46 46 -5 -10 52 -1 callgsubr
          endchar
        </CharString>
        <CharString name="m">
          267 888 2 rmoveto
          -47 callsubr
          -10 callgsubr
          1 hvcurveto
          3 -22 -22 2 -24 hhcurveto
          9 53 16 109 69 vvcurveto
          88 -26 103 -109 -78 -50 -48 -45 -29 vhcurveto
          54 -17 -40 39 -62 hhcurveto
          -71 -50 -48 -50 -32 hvcurveto
          64 vlineto
          -69 callgsubr
          -15 vhcurveto
          -2 -2 -74 callsubr
          -6 -30 callsubr
          12 callsubr
          -365 vlineto
          -22 -2 -22 -3 -24 -5 rrcurveto
          -12 -75 callgsubr
          -13 15 vhcurveto
          -51 callgsubr
          hhcurveto
          10 50 45 3 40 hhcurveto
          45 40 -4 -5 39 hvcurveto
          21 callgsubr
          11 14 -10 callgsubr
          2 hvcurveto
          -11 1 -11 2 -12 1 1 213 rcurveline
          21 6 49 147 98 hhcurveto
          69 9 -73 -62 -26 -2 -25 -1 -22 hvcurveto
          -4 -60 -10 -72 -5 -33 -25 -1 -24 -3 -28 -4 rrcurveto
          -13 -2 -9 -48 callsubr
          -13 -1 callsubr
          2 1 -42 callgsubr
          6 40 33 3 34 hhcurveto
          23 24 -1 -3 27 -27 callsubr
          13 -9 -40 callgsubr
          2 -23 -21 2 -20 hhcurveto
          5 37 9 66 4 58 rrcurveto
          2 23 1 25 26 vvcurveto
          52 17 39 85 91 hhcurveto
          71 12 -77 -64 -68 -16 -117 -10 -46 hvcurveto
          -23 -2 -26 -3 -29 -4 rrcurveto
          7 callsubr
          35 3 31 hhcurveto
          26 24 -2 -3 24 hvcurveto
          -81 callgsubr
          hhcurveto
          endchar
        </CharString>
        <CharString name="macron">
          -319 343 746 rmoveto
          15 -11 11 -14 vhcurveto
          -293 hlineto
          -14 -11 -11 -15 hvcurveto
          -94 vlineto
          -14 -1 callsubr
          293 -28 callgsubr
          hvcurveto
          endchar
        </CharString>
        <CharString name="minus">
          -27 551 366 rmoveto
          -52 callgsubr
          endchar
        </CharString>
        <CharString name="mu">
          71 701 484 rmoveto
          -44 callsubr
          -1 -40 callsubr
          -9 -47 -43 -4 -40 hhcurveto
          -24 -23 1 3 -22 hvcurveto
          -3 hlineto
          -12 -14 -10 -14 hvcurveto
          -6 -196 rlineto
          -155 -25 -64 -95 -80 hhcurveto
          -74 -38 61 113 120 60 132 2 2 hvcurveto
          2 4 2 4 5 vvcurveto
          14 -11 10 -14 2 vhcurveto
          -129 3 rlineto
          -15 -11 -12 -13 -14 11 -47 callgsubr
          88 -2 -15 -28 -17 -57 -10 -62 rlinecurve
          -9 -60 -10 -121 -119 vvcurveto
          -77 2 -79 6 -68 vhcurveto
          -14 -12 callsubr
          10 13 13 hvcurveto
          2 vlineto
          -5 66 -3 78 75 vvcurveto
          42 vlineto
          -38 25 40 -24 59 hhcurveto
          66 56 41 74 41 hvcurveto
          -3 -89 rlineto
          -1 vlineto
          -13 12 -12 14 vhcurveto
          5 hlineto
          10 43 44 4 45 hhcurveto
          -37 callsubr
          endchar
        </CharString>
        <CharString name="multiply">
          -123 470 157 rmoveto
          11 2 11 9 15 vvcurveto
          5 -1 5 -4 5 vhcurveto
          -148 200 133 134 rlineto
          5 5 2 6 7 vvcurveto
          -69 callgsubr
          -15 -6 -7 -2 -5 -5 vhcurveto
          -127 -128 -92 125 rlineto
          7 -5 -8 3 -8 -1 -33 callgsubr
          -117 -17 rlineto
          -12 -1 -73 callgsubr
          -6 2 -5 3 -5 vhcurveto
          142 -192 -140 -141 rlineto
          -5 -5 -2 -7 -6 -88 callgsubr
          6 7 2 6 5 vhcurveto
          134 136 99 -134 rlineto
          -6 4 8 -4 8 1 2 -42 callgsubr
          endchar
        </CharString>
        <CharString name="n">
          -1 658 22 rmoveto
          13 -8 14 -15 1 vhcurveto
          -27 3 -27 1 -25 1 rrcurveto
          12 48 14 97 65 vvcurveto
          89 -24 131 -117 -66 -53 -29 -55 -38 vhcurveto
          50 vlineto
          -44 callsubr
          -2 -40 callsubr
          -6 -25 -31 -1 -31 -62 -61 7 -1 hhcurveto
          1 -89 callgsubr
          -12 -14 -10 -16 -13 -42 callsubr
          -1 hvcurveto
          3 -1 31 -4 41 -2 rrcurveto
          -373 vlineto
          -22 -2 -22 -3 -24 -5 rrcurveto
          -12 -75 callgsubr
          -13 15 -20 callsubr
          9 50 45 4 40 hhcurveto
          45 40 -5 -4 39 hvcurveto
          -1 21 callgsubr
          12 14 -10 callgsubr
          1 hvcurveto
          -11 2 -11 1 -12 1 1 215 rcurveline
          1 vlineto
          75 67 99 90 80 10 -103 -66 -64 -17 -107 -11 -40 vhcurveto
          -29 -2 -28 -3 -27 -5 rrcurveto
          -12 -54 callsubr
          -13 14 vhcurveto
          1 -25 callsubr
          hhcurveto
          6 36 37 4 41 hhcurveto
          28 29 -2 -3 31 hvcurveto
          -67 callsubr
          13 12 10 13 1 hvcurveto
          endchar
        </CharString>
        <CharString name="nacute">
          -1 658 22 rmoveto
          13 -8 14 -15 1 vhcurveto
          -27 3 -27 1 -25 1 rrcurveto
          12 48 14 97 65 vvcurveto
          89 -24 131 -117 -66 -53 -29 -55 -38 vhcurveto
          50 vlineto
          -44 callsubr
          -2 -40 callsubr
          -6 -25 -31 -1 -31 -62 -61 7 -1 hhcurveto
          1 -89 callgsubr
          -12 -14 -10 -16 -13 -42 callsubr
          -1 hvcurveto
          3 -1 31 -4 41 -2 rrcurveto
          -373 vlineto
          -22 -2 -22 -3 -24 -5 rrcurveto
          -12 -75 callgsubr
          -13 15 -20 callsubr
          9 50 45 4 40 hhcurveto
          45 40 -5 -4 39 hvcurveto
          -1 21 callgsubr
          12 14 -10 callgsubr
          1 hvcurveto
          -11 2 -11 1 -12 1 1 215 rcurveline
          1 vlineto
          75 67 99 90 80 10 -103 -66 -64 -17 -107 -11 -40 vhcurveto
          -29 -2 -28 -3 -27 -5 rrcurveto
          -12 -54 callsubr
          -13 14 vhcurveto
          1 -25 callsubr
          hhcurveto
          6 36 37 4 41 hhcurveto
          28 29 -2 -3 31 hvcurveto
          -67 callsubr
          13 12 10 13 1 hvcurveto
          16 756 -91 callsubr
          endchar
        </CharString>
        <CharString name="napostrophe">
          237 200 630 rmoveto
          -105 callgsubr
          696 -608 rmoveto
          13 -8 14 -15 1 vhcurveto
          -27 3 -27 1 -25 1 rrcurveto
          12 48 14 97 65 vvcurveto
          89 -24 131 -117 -66 -53 -29 -55 -38 vhcurveto
          50 vlineto
          -44 callsubr
          -2 -40 callsubr
          -6 -25 -31 -1 -31 -62 -61 7 -1 hhcurveto
          1 -89 callgsubr
          -12 -14 -10 -16 -13 -42 callsubr
          -1 hvcurveto
          3 -1 31 -4 41 -2 rrcurveto
          -373 vlineto
          -22 -2 -22 -3 -24 -5 rrcurveto
          -12 -75 callgsubr
          -13 15 -20 callsubr
          9 50 45 4 40 hhcurveto
          45 40 -5 -4 39 hvcurveto
          -1 21 callgsubr
          12 14 -10 callgsubr
          1 hvcurveto
          -11 2 -11 1 -12 1 1 215 rcurveline
          1 vlineto
          75 67 99 90 80 10 -103 -66 -64 -17 -107 -11 -40 vhcurveto
          -29 -2 -28 -3 -27 -5 rrcurveto
          -12 -54 callsubr
          -13 14 vhcurveto
          1 -25 callsubr
          hhcurveto
          6 36 37 4 41 hhcurveto
          28 29 -2 -3 31 hvcurveto
          -67 callsubr
          13 12 10 13 1 hvcurveto
          endchar
        </CharString>
        <CharString name="nbspace">
          -362 endchar
        </CharString>
        <CharString name="ncaron">
          -1 658 22 rmoveto
          13 -8 14 -15 1 vhcurveto
          -27 3 -27 1 -25 1 rrcurveto
          12 48 14 97 65 vvcurveto
          89 -24 131 -117 -66 -53 -29 -55 -38 vhcurveto
          50 vlineto
          -44 callsubr
          -2 -40 callsubr
          -6 -25 -31 -1 -31 -62 -61 7 -1 hhcurveto
          1 -89 callgsubr
          -12 -14 -10 -16 -13 -42 callsubr
          -1 hvcurveto
          3 -1 31 -4 41 -2 rrcurveto
          -373 vlineto
          -22 -2 -22 -3 -24 -5 rrcurveto
          -12 -75 callgsubr
          -13 15 -20 callsubr
          9 50 45 4 40 hhcurveto
          45 40 -5 -4 39 hvcurveto
          -1 21 callgsubr
          12 14 -10 callgsubr
          1 hvcurveto
          -11 2 -11 1 -12 1 1 215 rcurveline
          1 vlineto
          75 67 99 90 80 10 -103 -66 -64 -17 -107 -11 -40 vhcurveto
          -29 -2 -28 -3 -27 -5 rrcurveto
          -12 -54 callsubr
          -13 14 vhcurveto
          1 -25 callsubr
          hhcurveto
          6 36 37 4 41 hhcurveto
          28 29 -2 -3 31 hvcurveto
          -67 callsubr
          13 12 10 13 1 hvcurveto
          -131 759 rmoveto
          -122 hlineto
          -7 -7 -3 -6 -5 hvcurveto
          -96 -111 -74 109 rlineto
          -55 callsubr
          -15 -11 -13 -13 -5 1 -5 3 -4 hvcurveto
          151 -220 rlineto
          -7 4 8 -4 8 hhcurveto
          9 7 3 6 5 hvcurveto
          182 220 rlineto
          4 -43 callgsubr
          15 -14 11 -12 vhcurveto
          endchar
        </CharString>
        <CharString name="ncommaaccent">
          -1 658 22 rmoveto
          13 -8 14 -15 1 vhcurveto
          -27 3 -27 1 -25 1 rrcurveto
          12 48 14 97 65 vvcurveto
          89 -24 131 -117 -66 -53 -29 -55 -38 vhcurveto
          50 vlineto
          -44 callsubr
          -2 -40 callsubr
          -6 -25 -31 -1 -31 -62 -61 7 -1 hhcurveto
          1 -89 callgsubr
          -12 -14 -10 -16 -13 -42 callsubr
          -1 hvcurveto
          3 -1 31 -4 41 -2 rrcurveto
          -373 vlineto
          -22 -2 -22 -3 -24 -5 rrcurveto
          -12 -75 callgsubr
          -13 15 -20 callsubr
          9 50 45 4 40 hhcurveto
          45 40 -5 -4 39 hvcurveto
          -1 21 callgsubr
          12 14 -10 callgsubr
          1 hvcurveto
          -11 2 -11 1 -12 1 1 215 rcurveline
          1 vlineto
          75 67 99 90 80 10 -103 -66 -64 -17 -107 -11 -40 vhcurveto
          -29 -2 -28 -3 -27 -5 rrcurveto
          -12 -54 callsubr
          -13 14 vhcurveto
          1 -25 callsubr
          hhcurveto
          6 36 37 4 41 hhcurveto
          28 29 -2 -3 31 hvcurveto
          -67 callsubr
          13 12 10 13 1 hvcurveto
          -251 -169 rmoveto
          -48 callgsubr
        </CharString>
        <CharString name="nine">
          -64 374 368 rmoveto
          -28 0 -15 -2 -24 vhcurveto
          -1 0 -1 -1 vhcurveto
          -36 -25 -32 -17 -46 hhcurveto
          -78 -92 45 157 101 42 90 86 96 52 -76 -195 hvcurveto
          170 -2 rmoveto
          240 -87 112 -170 -143 -97 -125 -145 -182 111 -71 110 38 33 9 19 27 vhcurveto
          -103 -20 -4 -81 -82 hhcurveto
          -60 -58 66 10 -7 hvcurveto
          8 2 callsubr
          -9 hhcurveto
          -13 -12 -11 -15 -4 1 -5 2 -4 hvcurveto
          -4 3 61 -98 116 hhcurveto
          200 73 180 200 hvcurveto
          endchar
        </CharString>
        <CharString name="notequal">
          -82 190 121 rmoveto
          15 -2 8 10 10 hvcurveto
          24 66 rlineto
          -1 17 17 0 17 hhcurveto
          71 71 5 10 70 hvcurveto
          -55 callgsubr
          17 -13 9 -16 vhcurveto
          -10 -68 -69 -5 -68 hhcurveto
          -30 hlineto
          21 48 24 43 30 48 56 2 55 5 56 8 rrcurveto
          -55 callgsubr
          17 -13 9 -16 vhcurveto
          -42 -6 -42 -5 -42 -2 11 17 12 17 14 19 rrcurveto
          5 5 1 3 6 vvcurveto
          15 -13 11 -15 -7 -8 -3 -7 -4 vhcurveto
          -20 -28 -19 -28 -18 -29 rrcurveto
          -17 hlineto
          -68 -69 5 10 -68 hvcurveto
          -17 -12 -34 callgsubr
          -10 65 67 -5 66 hhcurveto
          -25 -45 -23 -46 -21 -46 -41 2 -40 5 -41 6 rrcurveto
          -17 -12 -34 callgsubr
          36 -5 36 -4 36 -3 -7 -17 -7 -17 -6 -17 rrcurveto
          -1 -3 -1 -3 -3 vvcurveto
          -14 15 -12 12 vhcurveto
          endchar
        </CharString>
        <CharString name="ntilde">
          -1 658 22 rmoveto
          13 -8 14 -15 1 vhcurveto
          -27 3 -27 1 -25 1 rrcurveto
          12 48 14 97 65 vvcurveto
          89 -24 131 -117 -66 -53 -29 -55 -38 vhcurveto
          50 vlineto
          -44 callsubr
          -2 -40 callsubr
          -6 -25 -31 -1 -31 -62 -61 7 -1 hhcurveto
          1 -89 callgsubr
          -12 -14 -10 -16 -13 -42 callsubr
          -1 hvcurveto
          3 -1 31 -4 41 -2 rrcurveto
          -373 vlineto
          -22 -2 -22 -3 -24 -5 rrcurveto
          -12 -75 callgsubr
          -13 15 -20 callsubr
          9 50 45 4 40 hhcurveto
          45 40 -5 -4 39 hvcurveto
          -1 21 callgsubr
          12 14 -10 callgsubr
          1 hvcurveto
          -11 2 -11 1 -12 1 1 215 rcurveline
          1 vlineto
          75 67 99 90 80 10 -103 -66 -64 -17 -107 -11 -40 vhcurveto
          -29 -2 -28 -3 -27 -5 rrcurveto
          -12 -54 callsubr
          -13 14 vhcurveto
          1 -25 callsubr
          hhcurveto
          6 36 37 4 41 hhcurveto
          28 29 -2 -3 31 hvcurveto
          -67 callsubr
          13 12 10 13 1 hvcurveto
          -133 640 -105 callsubr
        </CharString>
        <CharString name="numbersign">
          -81 299 295 rmoveto
          1 -7 -6 0 -7 -10 -10 -1 -11 hhcurveto
          24 125 rlineto
          12 11 -1 12 5 6 1 5 hhcurveto
          217 40 rmoveto
          -45 callsubr
          -1 -29 callsubr
          -19 -2 -20 -3 -19 -2 27 140 rcurveline
          -51 callgsubr
          vvcurveto
          6 -2 6 -4 4 vhcurveto
          6 -5 -7 4 -8 hhcurveto
          -66 hlineto
          -13 -10 -9 -12 -2 hvcurveto
          -31 -157 rlineto
          -9 -9 0 -9 -8 -8 0 -8 hhcurveto
          28 147 rlineto
          -50 callgsubr
          1 2 vvcurveto
          6 -2 6 -4 4 vhcurveto
          6 -5 -7 4 -8 hhcurveto
          -66 hlineto
          -12 -11 -9 -12 -2 hvcurveto
          -29 -150 -21 2 -21 2 -21 3 rlinecurve
          1 -89 callgsubr
          -13 -11 -10 -12 -2 hvcurveto
          -4 vlineto
          -13 -42 callsubr
          -1 vhcurveto
          20 -3 20 -3 20 -2 -27 -139 rcurveline
          -21 -2 -21 -2 -21 -3 rrcurveto
          -13 -2 -9 -48 callsubr
          -13 -23 callgsubr
          1 -42 callgsubr
          15 2 15 2 15 1 -27 -138 rcurveline
          -1 0 -2 -2 vvcurveto
          -13 -31 callsubr
          67 hlineto
          12 11 8 12 2 hvcurveto
          30 157 rlineto
          13 12 0 12 5 4 0 5 hhcurveto
          -29 -147 rlineto
          -1 0 -2 -2 vvcurveto
          -13 10 -12 15 vhcurveto
          68 hlineto
          12 11 8 12 2 hvcurveto
          29 151 25 -2 25 -3 24 -3 rlinecurve
          1 2 -42 callgsubr
          12 11 9 13 2 hvcurveto
          13 -7 14 -15 2 vhcurveto
          -23 3 -24 3 -24 2 26 137 rcurveline
          25 2 25 3 25 4 -46 callsubr
          endchar
        </CharString>
        <CharString name="o">
          -98 callsubr
          endchar
        </CharString>
        <CharString name="oacute">
          -98 callsubr
          -5 546 -91 callsubr
          endchar
        </CharString>
        <CharString name="obreve">
          -98 callsubr
          -82 500 -103 callsubr
        </CharString>
        <CharString name="ocircumflex">
          -98 callsubr
          -95 293 -107 callsubr
        </CharString>
        <CharString name="odieresis">
          -98 callsubr
          -293 362 -99 callsubr
        </CharString>
        <CharString name="oe">
          370 996 239 rmoveto
          2 1 10 16 vvcurveto
          142 -67 88 -154 6 vhcurveto
          -85 -120 -42 -97 -38 hvcurveto
          84 -41 -84 59 -107 hhcurveto
          -147 -114 -112 -154 -161 102 -104 159 103 92 58 92 42 hvcurveto
          -90 43 94 -62 113 hhcurveto
          -96 callgsubr
          -485 2 rmoveto
          -105 -65 -104 -114 -103 -16 128 86 -1 vhcurveto
          84 26 117 108 98 67 -110 -96 vhcurveto
          435 17 rmoveto
          -19 -42 -49 -11 -55 hhcurveto
          -52 -44 11 6 -21 hvcurveto
          3 76 18 117 103 12 rrcurveto
          99 -14 40 -72 -98 vvcurveto
          endchar
        </CharString>
        <CharString name="ogonek">
          -372 289 -169 -92 callsubr
          40 21 26 36 23 hvcurveto
          7 5 4 9 8 vvcurveto
          -45 callsubr
          -4 -5 -1 -2 -3 vhcurveto
          -70 -35 -85 -67 -89 -65 callgsubr
          endchar
        </CharString>
        <CharString name="ograve">
          -98 callsubr
          -509 553 rmoveto
          -102 callsubr
        </CharString>
        <CharString name="ohungarumlaut">
          -98 callsubr
          -94 543 -95 callgsubr
        </CharString>
        <CharString name="omacron">
          -98 callsubr
          -90 418 rmoveto
          15 -11 11 -14 vhcurveto
          -293 hlineto
          -14 -11 -11 -15 hvcurveto
          -94 vlineto
          -14 -1 callsubr
          293 -28 callgsubr
          hvcurveto
          endchar
        </CharString>
        <CharString name="one">
          -228 369 -16 rmoveto
          10 15 8 17 12 -8 11 -12 2 hvcurveto
          -23 5 -22 3 -21 3 rrcurveto
          648 vlineto
          13 2 -13 13 -14 hhcurveto
          -8 -7 -4 -5 -5 hvcurveto
          -83 -100 -132 -114 -1 -1 rrcurveto
          -6 -5 -3 -8 -7 vvcurveto
          -13 10 -12 15 6 6 2 4 5 vhcurveto
          2 2 22 18 31 29 rrcurveto
          -460 9 callgsubr
          -5 rrcurveto
          -12 -2 -31 callgsubr
          4 callsubr
          10 51 46 5 46 hhcurveto
          46 46 -41 callsubr
          4 callsubr
          endchar
        </CharString>
        <CharString name="onehalf">
          133 262 -92 callgsubr
          316 411 rmoveto
          -44 callsubr
          -3 hlineto
          -10 -9 -6 -10 -5 hvcurveto
          -97 -220 -125 -228 -160 -249 rrcurveto
          -3 -5 -1 -4 -68 callgsubr
          7 7 4 6 6 vhcurveto
          190 300 66 123 133 280 rrcurveto
          3 5 1 4 5 vvcurveto
          176 -666 rmoveto
          -45 callsubr
          -6 -6 -2 -4 -5 vhcurveto
          -1 -1 -17 -14 -28 -31 -31 11 -36 -3 -2 -4 callsubr
          12 8 13 7 14 7 rrcurveto
          75 41 84 52 99 vvcurveto
          86 -85 53 -84 -68 -93 -39 -82 -58 36 -28 21 -8 vhcurveto
          -1 3 3 -1 3 hhcurveto
          12 13 10 16 10 -6 10 -10 4 hvcurveto
          -1 -23 10 36 34 33 12 32 45 42 -25 -51 -79 -50 -37 -48 -35 hvcurveto
          -29 -22 -33 -23 -16 -37 rrcurveto
          -2 -4 -1 -3 -4 vvcurveto
          -13 -38 callgsubr
          3 3 0 1 3 vhcurveto
          11 28 26 4 25 32 32 -11 35 hhcurveto
          47 31 25 1 1 hvcurveto
          6 6 3 7 7 vvcurveto
          endchar
        </CharString>
        <CharString name="onequarter">
          142 267 -92 callgsubr
          316 411 rmoveto
          -44 callsubr
          -3 hlineto
          -10 -9 -6 -10 -5 hvcurveto
          -97 -220 -125 -228 -160 -249 rrcurveto
          -3 -5 -1 -4 -68 callgsubr
          7 7 4 6 6 vhcurveto
          190 300 66 123 133 280 rrcurveto
          3 5 1 4 5 vvcurveto
          162 -717 rmoveto
          11 15 9 17 12 -9 11 -13 2 hvcurveto
          -12 2 -12 2 -12 1 rrcurveto
          69 vlineto
          7 14 2 0 hvcurveto
          13 2 10 11 15 vvcurveto
          14 -12 9 -13 vhcurveto
          -89 callgsubr
          0 -14 5 callsubr
          211 vlineto
          -81 callsubr
          -4 -5 -1 -2 -4 vhcurveto
          -35 -20 -35 -6 0 vvcurveto
          -12 -2 -10 -7 -14 0 0 -2 -189 vvcurveto
          -2 -3 -4 callsubr
          -36 -36 1 3 -36 hvcurveto
          42 60 10 57 40 35 -8 22 2 vvcurveto
          11 -4 -10 7 -11 hhcurveto
          -13 -9 callgsubr
          -2 0 -3 1 -3 hvcurveto
          0 5 -16 -26 vvcurveto
          -39 -11 -60 -57 -64 vhcurveto
          -5 -5 -2 -6 -6 vvcurveto
          -12 10 -13 13 -1 vhcurveto
          -5 54 53 -2 53 3 2 0 2 hhcurveto
          -64 vlineto
          -11 -2 -12 -1 -12 -2 -15 callgsubr
          -14 -23 callgsubr
          1 0 2 hhcurveto
          6 33 30 2 30 hhcurveto
          30 30 -2 -6 33 -12 callgsubr
          endchar
        </CharString>
        <CharString name="onesuperior">
          -331 269 -92 callgsubr
          endchar
        </CharString>
        <CharString name="ordfeminine">
          -118 467 347 rmoveto
          12 11 11 13 14 -9 9 -13 1 hvcurveto
          -17 -12 0 -11 hhcurveto
          15 -17 callsubr
          vvcurveto
          117 -11 159 -160 -114 -74 -92 -69 -12 11 -12 13 12 12 10 12 41 40 50 40 52 39 -47 -51 2 vhcurveto
          -2 hlineto
          -71 -150 -29 -107 -48 44 -29 47 52 46 27 40 39 hvcurveto
          -1 -13 -2 -13 -1 -4 rrcurveto
          -7 vlineto
          -11 9 -13 14 vhcurveto
          2 3 1 1 hhcurveto
          11 41 38 5 41 hhcurveto
          -283 24 rmoveto
          -18 -24 8 22 67 120 22 53 hvcurveto
          6 hlineto
          -7 0 -6 1 -6 vhcurveto
          -48 -28 -49 -52 -61 hhcurveto
          332 -100 rmoveto
          -76 callgsubr
          -11 -79 -16 1 -82 callsubr
          25 -2 13 callsubr
          endchar
        </CharString>
        <CharString name="ordmasculine">
          -164 439 524 rmoveto
          104 -77 89 -111 -106 -83 -82 -111 -116 73 -75 116 101 87 78 113 vhcurveto
          -47 hmoveto
          -70 -44 -70 -76 -67 -10 86 58 -1 vhcurveto
          56 18 79 70 65 45 -74 -65 vhcurveto
          46 -253 rmoveto
          -76 callgsubr
          -11 -79 -16 1 -63 hhcurveto
          -60 -16 6 11 -84 hvcurveto
          -78 callgsubr
          -10 71 24 -5 70 hhcurveto
          71 25 -2 13 callsubr
          endchar
        </CharString>
        <CharString name="oslash">
          -86 callsubr
          endchar
        </CharString>
        <CharString name="oslashacute">
          -86 callsubr
          387 548 -91 callsubr
          endchar
        </CharString>
        <CharString name="otilde">
          -98 callsubr
          -72 429 -105 callsubr
        </CharString>
        <CharString name="p">
          14 584 262 rmoveto
          -98 -47 -138 -129 -56 -69 27 61 -15 vhcurveto
          97 -17 callgsubr
          88 65 145 104 94 52 -94 -90 1 vhcurveto
          52 hmoveto
          111 -3 -68 124 -128 hhcurveto
          -71 -59 -43 -68 -39 hvcurveto
          80 vlineto
          -19 callsubr
          -1 -19 callgsubr
          -5 -25 -30 -2 -28 -59 -55 -66 callgsubr
          2 25 -4 -2 35 hvcurveto
          -643 vlineto
          -18 -2 -18 -3 -19 -4 -24 callsubr
          10 51 44 3 41 hhcurveto
          45 40 -4 -5 38 hvcurveto
          -81 callgsubr
          hhcurveto
          11 15 9 17 12 -9 11 -13 2 hvcurveto
          23 callsubr
          -32 37 51 -17 52 hhcurveto
          149 79 148 140 hvcurveto
          endchar
        </CharString>
        <CharString name="paragraph">
          62 409 254 rmoveto
          -5 -20 -24 -3 -26 hhcurveto
          -117 -136 58 147 154 125 55 163 6 hvcurveto
          11 11 0 11 hhcurveto
          254 -32 rmoveto
          -47 callsubr
          10 -7 10 -10 4 hvcurveto
          1 -3 -84 33 -166 hhcurveto
          -163 -219 -47 -219 -165 151 -92 153 25 24 2 5 22 hvcurveto
          1 -154 -26 -2 -26 -2 -26 -2 rlinecurve
          -14 -2 -9 -48 callsubr
          -13 10 -12 15 vhcurveto
          -81 callgsubr
          hhcurveto
          5 52 52 3 51 hhcurveto
          52 50 -3 -5 50 hvcurveto
          21 callgsubr
          11 14 -10 callgsubr
          2 hvcurveto
          -24 2 -25 2 -24 2 1 606 rcurveline
          48 -8 24 -10 0 vvcurveto
          -1 4 3 -1 3 hhcurveto
          endchar
        </CharString>
        <CharString name="parenleft">
          -260 409 927 rmoveto
          -81 callsubr
          -1 -2 -19 callgsubr
          -4 -1 -86 -19 -86 -80 rrcurveto
          -78 -74 -94 -141 -255 vvcurveto
          -254 93 -157 77 -87 vhcurveto
          85 -94 86 -34 3 -2 rrcurveto
          -1 3 3 -1 3 hhcurveto
          -11 callsubr
          9 -4 8 -8 5 hvcurveto
          0 -50 32 -49 87 vhcurveto
          -45 80 -55 145 236 vvcurveto
          233 54 131 44 68 vhcurveto
          48 72 48 19 0 vvcurveto
          10 4 7 10 10 vvcurveto
          endchar
        </CharString>
        <CharString name="parenright">
          -260 372 382 rmoveto
          255 -93 141 -79 74 vhcurveto
          -86 80 -86 19 -4 1 rrcurveto
          1 -2 -2 -74 callsubr
          -12 -14 -10 -16 -10 7 -10 10 -4 hvcurveto
          0 48 -19 48 -72 vhcurveto
          44 -68 54 -131 -233 vvcurveto
          -236 -55 -145 -45 -80 vhcurveto
          -87 -49 -49 -32 -1 hhcurveto
          -8 -5 -4 -8 -9 -88 callgsubr
          3 3 1 1 3 vhcurveto
          4 2 85 34 85 94 rrcurveto
          77 87 93 157 254 vvcurveto
          endchar
        </CharString>
        <CharString name="partialdiff">
          -56 389 -22 callsubr
          13 380 rmoveto
          69 -82 -75 10 12 callgsubr
          77 -67 23 -41 31 -99 -16 callgsubr
          196 -87 126 -69 58 hvcurveto
          endchar
        </CharString>
        <CharString name="percent">
          229 356 497 rmoveto
          -87 callsubr
          247 210 rmoveto
          -44 callsubr
          -3 hlineto
          -10 -9 -6 -10 -5 hvcurveto
          -97 -220 -125 -228 -160 -249 rrcurveto
          -3 -5 -1 -4 -68 callgsubr
          7 7 4 6 6 vhcurveto
          190 300 66 123 133 280 rrcurveto
          3 5 1 4 5 vvcurveto
          152 -508 rmoveto
          -87 callsubr
          endchar
        </CharString>
        <CharString name="period">
          -418 197 6 callgsubr
          endchar
        </CharString>
        <CharString name="periodcentered">
          -406 203 343 rmoveto
          -30 callgsubr
        </CharString>
        <CharString name="perthousand">
          633 357 497 rmoveto
          -87 callsubr
          247 210 rmoveto
          -44 callsubr
          -3 hlineto
          -10 -9 -6 -10 -5 hvcurveto
          -97 -220 -125 -228 -160 -249 rrcurveto
          -3 -5 -1 -4 -68 callgsubr
          7 7 4 6 6 vhcurveto
          190 300 66 123 133 280 rrcurveto
          3 5 1 4 5 vvcurveto
          152 -508 rmoveto
          -87 callsubr
          352 hmoveto
          -87 callsubr
          endchar
        </CharString>
        <CharString name="pi">
          19 644 455 4 callgsubr
          vhcurveto
          -2 hlineto
          -283 -8 rlineto
          -171 -104 12 2 -28 hvcurveto
          -2 hlineto
          -12 -14 -10 14 callgsubr
          13 -1 30 -3 41 -2 rrcurveto
          -403 vlineto
          -14 -31 callsubr
          117 hlineto
          14 12 12 14 hvcurveto
          397 43 -255 vlineto
          -150 89 -32 75 81 58 50 86 19 vhcurveto
          5 vlineto
          12 -10 14 -15 -12 -11 -8 -12 -2 vhcurveto
          -25 -7 -10 -43 -35 hhcurveto
          -23 -24 19 26 hvcurveto
          312 -57 callsubr
          endchar
        </CharString>
        <CharString name="plus">
          -127 501 -73 callsubr
          endchar
        </CharString>
        <CharString name="plusminus">
          -95 517 -73 callsubr
          -330 vmoveto
          -52 callgsubr
          endchar
        </CharString>
        <CharString name="product">
          74 703 516 rmoveto
          -23 65 -17 101 1 vvcurveto
          12 -2 -11 9 -12 hhcurveto
          -2 hlineto
          -3 -40 -103 -36 callsubr
          -4 hlineto
          -12 -10 -8 -12 -3 hvcurveto
          -1 -23 -108 -19 -69 vhcurveto
          -1 -2 0 -3 -2 -88 callgsubr
          11 10 8 11 3 vhcurveto
          15 52 15 69 8 35 rrcurveto
          1 -3 -1 -2 55 hvcurveto
          -11 -606 rlineto
          0 -19 1 -25 -3 vhcurveto
          16 callsubr
          32 42 1 12 22 53 -1 18 hhcurveto
          12 13 10 16 0 1 19 16 611 hvcurveto
          47 hlineto
          -12 -511 1 -100 -19 vvcurveto
          10 callsubr
          vhcurveto
          3 hlineto
          31 43 1 12 21 36 -1 37 hhcurveto
          16 callgsubr
          -21 -1 0 vvcurveto
          15 602 rlineto
          22 20 0 1 9 hvcurveto
          6 -34 14 -67 17 -50 rrcurveto
          -11 4 10 -7 10 21 callsubr
          hvcurveto
          3 -1 3 2 vvcurveto
          endchar
        </CharString>
        <CharString name="q">
          18 409 261 rmoveto
          -85 -1 -63 -150 -106 hhcurveto
          -98 -49 93 97 111 55 119 129 hvcurveto
          107 -5 23 -74 3 -9 rrcurveto
          237 -625 rmoveto
          12 14 12 13 13 -10 11 -12 2 hvcurveto
          -22 3 -23 1 -22 1 rrcurveto
          646 vlineto
          2 34 25 4 3 hhcurveto
          12 2 10 -39 callsubr
          -44 callsubr
          -1 -33 callgsubr
          0 -55 -8 -59 -29 -29 2 5 -25 vhcurveto
          1 -2 -2 -4 callsubr
          -13 -12 -11 -15 hvcurveto
          -18 vlineto
          -29 26 -42 20 -60 3 rrcurveto
          -154 -83 -129 -151 -126 70 -117 129 76 63 51 61 30 hvcurveto
          -327 vlineto
          -17 5 -13 20 -2 vhcurveto
          1 hlineto
          2 2 0 1 2 hvcurveto
          2 14 55 8 60 hhcurveto
          24 25 -2 -3 23 -12 callgsubr
          endchar
        </CharString>
        <CharString name="question">
          -107 314 53 rmoveto
          41 -34 33 -41 -41 -34 -33 -41 -42 34 -33 41 41 34 33 42 vhcurveto
          207 468 rmoveto
          123 -111 86 -158 -99 -120 -57 -114 -80 52 -28 2 -1 vhcurveto
          -4 5 5 -1 5 hhcurveto
          14 11 12 13 9 -5 9 -11 7 hvcurveto
          -1 1 -26 15 48 vvcurveto
          55 58 57 59 85 69 -63 -93 -107 -40 -38 -42 -40 vhcurveto
          -40 -36 -32 -44 -59 -9 1 -6 -2 vvcurveto
          -13 -12 callsubr
          1 10 12 13 -18 callgsubr
          12 vvcurveto
          54 19 12 55 27 vhcurveto
          77 38 117 57 143 vvcurveto
          endchar
        </CharString>
        <CharString name="questiondown">
          -111 240 485 rmoveto
          -41 34 -33 41 41 34 33 41 42 -34 33 -41 -41 -34 -33 -42 vhcurveto
          -207 -468 rmoveto
          -123 111 -86 158 99 120 57 114 80 -52 28 -2 1 vhcurveto
          4 -5 -5 1 -5 hhcurveto
          -14 -11 -12 -13 -9 5 -9 11 -7 hvcurveto
          1 -1 26 -15 -48 vvcurveto
          -55 -58 -57 -59 -85 -69 63 93 107 40 38 42 40 vhcurveto
          40 36 32 44 59 9 -1 6 2 vvcurveto
          13 -1 -12 10 -15 hhcurveto
          -13 -1 -10 -12 -13 -36 callgsubr
          -12 vvcurveto
          -54 -19 -12 -55 -27 vhcurveto
          -77 -38 -117 -57 -143 vvcurveto
          endchar
        </CharString>
        <CharString name="quotedbl">
          -255 368 -32 callgsubr
          -180 hmoveto
          41 -34 -18 callsubr
          -33 -34 -41 -45 46 -109 5 -12 vhcurveto
          -10 4 9 -6 10 hhcurveto
          11 9 6 10 4 hvcurveto
          5 12 46 108 46 vvcurveto
          endchar
        </CharString>
        <CharString name="quotedblbase">
          -238 199 20 -71 callsubr
        </CharString>
        <CharString name="quotedblleft">
          -243 222 553 rmoveto
          -90 callgsubr
          -180 hmoveto
          -90 callgsubr
          endchar
        </CharString>
        <CharString name="quotedblright">
          -244 200 604 -71 callsubr
        </CharString>
        <CharString name="quoteleft">
          -423 42 553 rmoveto
          -90 callgsubr
          endchar
        </CharString>
        <CharString name="quoteright">
          -424 200 604 rmoveto
          -48 callgsubr
        </CharString>
        <CharString name="quotesinglbase">
          -418 199 20 rmoveto
          -48 callgsubr
        </CharString>
        <CharString name="quotesingle">
          -435 188 -32 callgsubr
          endchar
        </CharString>
        <CharString name="r">
          -69 483 242 rmoveto
          55 35 50 53 85 -61 54 -88 3 hvcurveto
          -59 -42 -29 -39 -28 hvcurveto
          35 vlineto
          -78 callsubr
          hhcurveto
          -62 -61 7 1 -1 hvcurveto
          -89 callgsubr
          -12 -14 -10 -16 -13 -42 callsubr
          -1 hvcurveto
          3 -1 31 -4 41 -2 rrcurveto
          -364 9 callgsubr
          -4 rrcurveto
          -12 -3 -61 callsubr
          10 -12 15 vhcurveto
          2 1 0 -44 callgsubr
          -42 callgsubr
          12 14 11 14 12 -9 11 -12 3 hvcurveto
          -24 4 -23 4 -23 2 1 217 rcurveline
          7 17 154 112 29 22 -7 -13 17 vhcurveto
          -3 0 callsubr
          -48 -39 -40 -48 -48 39 -39 48 hvcurveto
          endchar
        </CharString>
        <CharString name="racute">
          -69 483 242 rmoveto
          55 35 50 53 85 -61 54 -88 3 hvcurveto
          -59 -42 -29 -39 -28 hvcurveto
          35 vlineto
          -78 callsubr
          hhcurveto
          -62 -61 7 1 -1 hvcurveto
          -89 callgsubr
          -12 -14 -10 -16 -13 -42 callsubr
          -1 hvcurveto
          3 -1 31 -4 41 -2 rrcurveto
          -364 9 callgsubr
          -4 rrcurveto
          -12 -3 -61 callsubr
          10 -12 15 vhcurveto
          2 1 0 -44 callgsubr
          -42 callgsubr
          12 14 11 14 12 -9 11 -12 3 hvcurveto
          -24 4 -23 4 -23 2 1 217 rcurveline
          7 17 154 112 29 22 -7 -13 17 vhcurveto
          -3 0 callsubr
          -48 -39 -40 -48 -48 39 -39 48 hvcurveto
          161 524 -91 callsubr
          endchar
        </CharString>
        <CharString name="rcaron">
          -69 483 242 rmoveto
          55 35 50 53 85 -61 54 -88 3 hvcurveto
          -59 -42 -29 -39 -28 hvcurveto
          35 vlineto
          -78 callsubr
          hhcurveto
          -62 -61 7 1 -1 hvcurveto
          -89 callgsubr
          -12 -14 -10 -16 -13 -42 callsubr
          -1 hvcurveto
          3 -1 31 -4 41 -2 rrcurveto
          -364 9 callgsubr
          -4 rrcurveto
          -12 -3 -61 callsubr
          10 -12 15 vhcurveto
          2 1 0 -44 callgsubr
          -42 callgsubr
          12 14 11 14 12 -9 11 -12 3 hvcurveto
          -24 4 -23 4 -23 2 1 217 rcurveline
          7 17 154 112 29 22 -7 -13 17 vhcurveto
          -3 0 callsubr
          -48 -39 -40 -48 -48 39 -39 48 hvcurveto
          -21 541 rmoveto
          -122 hlineto
          -7 -7 -3 -6 -5 hvcurveto
          -96 -111 -74 109 rlineto
          -55 callsubr
          -15 -11 -13 -13 -5 1 -5 3 -4 hvcurveto
          151 -220 rlineto
          -7 4 8 -4 8 hhcurveto
          9 7 3 6 5 hvcurveto
          182 220 rlineto
          4 -43 callgsubr
          15 -14 11 -12 vhcurveto
          endchar
        </CharString>
        <CharString name="rcommaaccent">
          -69 483 242 rmoveto
          55 35 50 53 85 -61 54 -88 3 hvcurveto
          -59 -42 -29 -39 -28 hvcurveto
          35 vlineto
          -78 callsubr
          hhcurveto
          -62 -61 7 1 -1 hvcurveto
          -89 callgsubr
          -12 -14 -10 -16 -13 -42 callsubr
          -1 hvcurveto
          3 -1 31 -4 41 -2 rrcurveto
          -364 9 callgsubr
          -4 rrcurveto
          -12 -3 -61 callsubr
          10 -12 15 vhcurveto
          2 1 0 -44 callgsubr
          -42 callgsubr
          12 14 11 14 12 -9 11 -12 3 hvcurveto
          -24 4 -23 4 -23 2 1 217 rcurveline
          7 17 154 112 29 22 -7 -13 17 vhcurveto
          -3 0 callsubr
          -48 -39 -40 -48 -48 39 -39 48 hvcurveto
          -198 -379 rmoveto
          -48 callgsubr
        </CharString>
        <CharString name="registered">
          145 579 343 rmoveto
          39 26 34 38 58 -41 37 -60 3 hvcurveto
          24 callsubr
          -29 -23 -11 -15 -17 vhcurveto
          12 -3 -9 9 -14 -1 -2 -4 callsubr
          -3 -14 -19 -1 -18 hhcurveto
          -31 -30 2 2 -14 hvcurveto
          -1 -2 -74 callsubr
          -11 -14 -10 -15 -13 -79 callgsubr
          2 15 -2 -1 20 hvcurveto
          -206 vlineto
          -11 -2 -11 -1 -11 -3 -24 callsubr
          6 32 28 3 28 hhcurveto
          28 29 -3 -6 31 hvcurveto
          -20 callgsubr
          15 8 17 12 -8 11 -12 2 hvcurveto
          -12 3 -12 2 -11 1 rrcurveto
          124 vlineto
          6 1 10 84 58 hhcurveto
          1 hlineto
          -50 callgsubr
          -1 2 hvcurveto
          -20 -10 -13 -21 -24 vvcurveto
          -35 29 -28 35 vhcurveto
          127 8 -3 callsubr
          115 124 -133 -125 vhcurveto
          51 hmoveto
          186 -175 134 -179 -16 callsubr
        </CharString>
        <CharString name="ring">
          -359 157 704 -77 callgsubr
        </CharString>
</ttFont>
